<svg width="916" height="655" viewBox="0 0 916 655" fill="none" xmlns="http://www.w3.org/2000/svg">
<g clip-path="url(#clip0_112_4474)">
<path d="M921.918 36.8665V652.516H122.933C98.0325 549.306 90.124 468.654 229.807 435.065C369.489 401.477 265.786 164.16 409.662 103.707C508.915 62.0044 562.411 50.6529 585.705 6.11957C587.68 2.33448 589.396 -1.5713 590.844 -5.57275H877.973C889.628 -5.57275 900.806 -1.10148 909.047 6.85742C917.288 14.8163 921.918 25.6109 921.918 36.8665Z" fill="#EBEBFF"/>
<path d="M515.251 648.268L463.469 677.826C439.348 652.775 405.833 635.258 370.461 633.478C362.939 633.099 355.301 633.303 348.005 631.506C340.71 629.709 333.575 625.483 330.638 618.786C327.95 612.659 329.266 605.368 332.855 599.699C336.443 594.03 342.051 589.773 348.022 586.455C375.461 571.201 410.726 574.416 439.334 587.518C467.941 600.62 493.104 626.415 515.251 648.268Z" fill="#A8C6F8"/>
<path d="M410.828 594.275C403.004 592.174 395.001 590.75 386.916 590.019C380.927 584.26 373.646 580.791 367.948 578.773C367.234 578.946 366.523 579.128 365.813 579.319C371.24 581.069 378.691 584.271 384.951 589.86C367.527 588.56 350.632 590.711 335.518 596.151C334.54 597.267 333.65 598.452 332.855 599.696L332.818 599.759C345.626 594.597 359.924 591.944 374.823 591.908C350.606 599.816 336.723 615.977 332.35 621.791C332.592 622.138 332.848 622.477 333.118 622.808C337.291 617.172 352.179 599.415 378.815 591.96C389.417 592.287 399.939 593.844 410.156 596.596C410.602 596.716 411.051 596.849 411.497 596.972C384.787 604.288 368.047 624.354 364.45 633.26L365.754 633.306C369.741 623.86 387.811 604.018 413.812 597.621C426.823 601.422 439.935 606.946 452.655 613.87C440.296 614.911 428.61 623.77 422.444 629.303C417.328 633.892 413.146 638.716 410.69 642.329C411.079 642.481 411.469 642.631 411.858 642.787C414.196 639.411 418.189 634.759 423.291 630.184C429.658 624.471 441.999 615.148 454.659 614.971C463.532 619.928 472.055 625.447 480.172 631.493C471.216 632.06 462.362 637.911 454.397 648.614C451.217 652.949 448.428 657.539 446.062 662.335C446.398 662.591 446.731 662.85 447.067 663.112C451.627 653.917 464.124 632.545 481.717 632.654C490.247 639.107 498.305 646.123 505.832 653.65L508.04 652.388C480.582 624.755 445.204 603.486 410.828 594.275Z" fill="#5E8DDF"/>
<path d="M439.334 587.507C415.052 576.385 385.97 572.393 360.946 580.772C409.391 596.268 452.443 627.075 481.977 667.262L515.251 648.268C493.104 626.416 467.941 600.609 439.334 587.507Z" fill="#5E8DDF"/>
<path d="M507.463 651.785H436.03C427.048 612.097 403.749 574.635 368.701 552.172C361.25 547.394 353.313 543.146 346.978 537.052C340.642 530.957 335.994 522.472 337.183 513.912C338.27 506.081 344.177 499.395 351.399 495.684C358.622 491.973 367.01 490.904 375.193 490.994C412.787 491.414 446.824 515.279 467.873 545.368C488.922 575.458 498.496 616.523 507.463 651.785Z" fill="#A8C6F8"/>
<path d="M434.497 535.65C427.812 528.938 420.522 522.813 412.714 517.348C410.193 507.965 404.915 500.17 400.358 494.784C399.521 494.542 398.679 494.311 397.834 494.089C402.287 499.049 407.903 506.667 410.802 516.036C393.808 504.538 375.187 496.876 356.332 493.62C354.635 494.187 352.986 494.877 351.397 495.684C351.371 495.684 351.346 495.711 351.32 495.725C367.643 497.923 383.92 503.553 399.175 512.214C369.461 506.174 345.165 514.586 337.059 517.975C337.09 518.471 337.141 518.968 337.209 519.461C345.002 516.137 371.327 506.673 403.224 514.597C413.861 521.118 423.648 528.85 432.374 537.627C432.755 538.009 433.13 538.407 433.503 538.794C401.62 530.685 371.952 541.428 362.702 548.436L364.006 549.254C373.99 541.924 404.882 532.184 435.465 540.817C446.387 552.297 456.334 565.598 465.005 580.082C451.734 573.939 434.229 576.172 424.457 578.228C416.353 579.933 409.06 582.422 404.289 584.683C404.591 585.067 404.898 585.446 405.198 585.83C409.701 583.745 416.692 581.32 424.77 579.619C434.856 577.498 453.304 575.166 466.357 582.376C472.327 592.62 477.587 603.236 482.101 614.153C472.591 609.518 459.874 610.319 445.037 616.607C439.074 619.181 433.351 622.245 427.932 625.767C428.116 626.225 428.294 626.688 428.472 627.149C438.887 620.411 465.036 605.856 482.965 616.242C487.644 627.819 491.49 639.694 494.476 651.783H497.522C486.725 607.53 463.884 565.115 434.497 535.65Z" fill="#5E8DDF"/>
<path d="M467.873 545.368C450.004 519.824 422.771 498.773 391.95 492.742C431.781 536.855 456.515 593.471 461.563 651.788H507.464C498.497 616.523 488.92 575.458 467.873 545.368Z" fill="#5E8DDF"/>
<path d="M548.015 651.785H471.442C466.292 595.775 447.578 536.642 415.961 489.423C407.329 476.534 397.73 464.04 391.99 449.722C386.249 435.404 384.849 418.555 392.605 405.158C401.863 389.169 422.867 381.621 441.587 384.58C460.306 387.538 476.544 399.459 487.911 414.124C499.279 428.788 506.34 446.101 512.543 463.41C533.482 521.861 544.166 590.049 548.015 651.785Z" fill="#A8C6F8"/>
<path d="M538.556 567.264C538.466 566.719 538.367 566.173 538.274 565.628C528.648 573.353 514.235 587.442 508.17 606.281C504.81 583.682 500.719 561.074 495.086 538.832C499.524 516.061 514.692 495.081 520.497 487.714C520.328 487.144 520.17 486.568 519.997 486.001C514.94 492.316 499.634 512.808 494.27 535.661C492.011 526.935 489.507 518.278 486.7 509.702C483.928 501.224 480.9 492.992 477.617 485.006C481.005 464.264 495.227 440.595 499.922 433.233C499.666 432.731 499.411 432.23 499.149 431.731C495.154 437.939 480.796 461.31 476.586 482.5C469.528 465.668 461.34 449.994 452.183 435.643C455.893 419.681 462.746 402.377 466.205 394.123C465.784 393.851 465.358 393.578 464.945 393.33C461.605 401.278 454.919 418.094 451.079 433.917C439.785 416.534 427.023 401.139 412.962 388.018C411.994 388.424 411.034 388.836 410.099 389.31C426.193 404.188 440.61 422.086 453.044 442.559C443.106 439.126 411.158 428.51 387.274 425.192C387.274 425.672 387.252 426.149 387.252 426.629C412.491 430.174 446.847 441.899 454.208 444.475C463.87 460.675 472.3 478.454 479.37 497.582C470.053 492.908 437.493 477.551 405.184 473.586C405.53 474.11 405.879 474.633 406.231 475.157C439.831 479.58 473.43 496.137 480.099 499.564C481.416 503.185 482.682 506.852 483.896 510.564C490.108 529.591 494.888 549.044 498.762 568.666C496.314 566.697 492.028 563.55 485.435 559.7C477.024 554.792 463.412 547.95 443.699 541.185C443.947 541.777 444.198 542.366 444.447 542.958C478.984 554.977 495.103 567.417 499.191 570.912C503.824 594.807 507.159 618.931 510.143 642.822C504.064 638.053 486.443 624.869 466.253 615.555C466.366 616.133 466.484 616.714 466.591 617.292C487.796 627.236 505.979 641.32 510.403 644.862C510.686 647.174 510.968 649.467 511.25 651.774H514.226C512.532 637.849 510.739 623.828 508.698 609.782C513.856 590.171 528.564 575.401 538.556 567.264Z" fill="#5E8DDF"/>
<path d="M707.416 648.268L759.199 677.826C783.32 652.775 816.831 635.258 852.207 633.478C859.725 633.099 867.363 633.303 874.662 631.506C881.96 629.709 889.092 625.483 892.029 618.786C894.714 612.659 893.401 605.368 889.812 599.699C886.224 594.03 880.614 589.773 874.645 586.455C847.203 571.201 811.941 574.416 783.334 587.518C754.726 600.62 729.564 626.415 707.416 648.268Z" fill="#A8C6F8"/>
<path d="M811.839 594.275C819.663 592.174 827.664 590.75 835.748 590.019C841.74 584.26 849.019 580.791 854.716 578.774C855.431 578.945 856.145 579.125 856.854 579.319C851.427 581.069 843.976 584.271 837.716 589.861C855.137 588.56 872.036 590.711 887.15 596.151C888.127 597.267 889.017 598.452 889.812 599.696L889.849 599.759C877.042 594.597 862.744 591.944 847.841 591.908C872.061 599.816 885.941 615.977 890.318 621.791C890.073 622.138 889.816 622.477 889.547 622.808C885.362 617.164 870.488 599.396 843.857 591.952C833.256 592.279 822.734 593.836 812.517 596.587C812.071 596.707 811.622 596.841 811.176 596.964C837.886 604.28 854.626 624.346 858.22 633.251L856.916 633.298C852.932 623.852 834.862 604.01 808.86 597.613C795.847 601.414 782.738 606.938 770.018 613.861C782.374 614.903 794.063 623.762 800.229 629.295C805.345 633.884 809.527 638.708 811.986 642.32C811.596 642.473 811.204 642.623 810.817 642.779C808.477 639.403 804.487 634.751 799.385 630.175C793.015 624.463 780.674 615.14 768.013 614.963C759.142 619.92 750.62 625.439 742.503 631.484C751.459 632.052 760.314 637.903 768.279 648.606C771.458 652.941 774.246 657.531 776.614 662.327C776.277 662.583 775.942 662.842 775.608 663.104C771.049 653.909 758.549 632.537 740.956 632.646C732.427 639.1 724.371 646.115 716.844 653.642L714.636 652.379C742.086 624.755 777.461 603.486 811.839 594.275Z" fill="#5E8DDF"/>
<path d="M783.334 587.507C807.616 576.385 836.697 572.393 861.722 580.772C813.277 596.268 770.224 627.075 740.691 667.262L707.416 648.268C729.564 626.416 754.726 600.609 783.334 587.507Z" fill="#5E8DDF"/>
<path d="M715.203 651.785H786.637C795.621 612.097 818.918 574.634 853.968 552.171C861.42 547.394 869.356 543.146 875.689 537.052C882.022 530.957 886.673 522.472 885.484 513.912C884.397 506.081 878.493 499.395 871.271 495.684C864.048 491.973 855.657 490.904 847.477 490.994C809.88 491.414 775.843 515.278 754.797 545.368C733.751 575.458 724.168 616.523 715.203 651.785Z" fill="#A8C6F8"/>
<path d="M788.168 535.65C794.853 528.938 802.142 522.813 809.951 517.348C812.469 507.965 817.746 500.169 822.303 494.784C823.141 494.542 823.982 494.311 824.828 494.089C820.375 499.049 814.762 506.667 811.862 516.036C828.857 504.538 847.477 496.875 866.333 493.62C868.029 494.188 869.679 494.878 871.268 495.684C871.293 495.684 871.319 495.711 871.344 495.725C855.022 497.923 838.742 503.553 823.489 512.213C853.201 506.174 877.499 514.586 885.606 517.975C885.572 518.471 885.521 518.968 885.453 519.461C877.663 516.137 851.334 506.673 819.437 514.597C808.801 521.118 799.016 528.85 790.291 537.627C789.91 538.009 789.534 538.407 789.161 538.794C821.047 530.685 850.713 541.428 859.963 548.436L858.658 549.254C848.675 541.924 817.786 532.184 787.202 540.817C776.278 552.297 766.334 565.598 757.66 580.082C770.944 573.939 788.436 576.172 798.211 578.228C806.311 579.933 813.604 582.422 818.376 584.682C818.074 585.067 817.769 585.446 817.47 585.83C812.952 583.744 805.975 581.32 797.894 579.619C787.812 577.497 769.36 575.166 756.308 582.376C750.338 592.62 745.08 603.236 740.567 614.153C750.076 609.518 762.79 610.319 777.63 616.607C783.593 619.182 789.316 622.246 794.735 625.767C794.551 626.225 794.374 626.688 794.193 627.149C783.78 620.411 757.632 605.856 739.7 616.242C735.021 627.819 731.176 639.694 728.191 651.783H725.142C735.942 607.53 758.781 565.115 788.168 535.65Z" fill="#5E8DDF"/>
<path d="M754.794 545.368C772.661 519.824 799.893 498.773 830.714 492.742C790.886 536.855 766.153 593.471 761.102 651.788H715.203C724.168 616.523 733.742 575.458 754.794 545.368Z" fill="#5E8DDF"/>
<path d="M674.65 651.785H751.231C756.378 595.775 775.095 536.642 806.712 489.423C815.341 476.534 824.943 464.04 830.681 449.722C836.418 435.404 837.824 418.555 830.065 405.158C820.81 389.169 799.803 381.621 781.086 384.58C762.37 387.538 746.126 399.459 734.762 414.124C723.397 428.788 716.333 446.101 710.13 463.41C689.185 521.861 678.501 590.049 674.65 651.785Z" fill="#A8C6F8"/>
<path d="M684.111 567.264C684.199 566.719 684.298 566.173 684.394 565.628C694.019 573.353 708.433 587.442 714.498 606.281C717.858 583.682 721.952 561.074 727.582 538.832C723.146 516.061 707.975 495.081 702.17 487.714C702.34 487.144 702.498 486.568 702.67 486.001C707.724 492.316 723.033 512.808 728.398 535.661C730.656 526.935 733.161 518.278 735.964 509.702C738.739 501.224 741.768 492.992 745.05 485.006C741.662 464.264 727.438 440.595 722.745 433.233C723.005 432.731 723.256 432.23 723.519 431.731C727.517 437.939 741.871 461.31 746.084 482.5C753.142 465.668 761.316 449.994 770.484 435.643C766.774 419.681 759.922 402.377 756.466 394.123C756.884 393.851 757.299 393.578 757.725 393.33C761.065 401.278 767.751 418.094 771.591 433.917C782.885 416.534 795.647 401.139 809.708 388.018C810.679 388.424 811.636 388.836 812.574 389.31C796.48 404.188 782.06 422.086 769.629 442.559C779.567 439.126 811.515 428.51 835.396 425.192C835.396 425.672 835.421 426.149 835.418 426.629C810.182 430.174 775.823 441.899 768.465 444.475C758.801 460.675 750.37 478.454 743.303 497.582C752.62 492.908 785.178 477.551 817.489 473.586C817.139 474.11 816.792 474.633 816.439 475.157C782.84 479.58 749.24 496.137 742.574 499.564C741.256 503.185 739.991 506.852 738.777 510.564C732.565 529.591 727.782 549.044 723.911 568.666C726.356 566.697 730.645 563.55 737.238 559.7C745.649 554.792 759.261 547.95 778.974 541.185C778.723 541.777 778.472 542.366 778.226 542.958C743.689 554.977 727.57 567.417 723.479 570.912C718.849 594.807 715.514 618.931 712.527 642.822C718.609 638.053 736.244 624.869 756.418 615.555C756.308 616.133 756.189 616.714 756.082 617.292C734.875 627.236 716.691 641.32 712.27 644.862C711.987 647.174 711.705 649.467 711.423 651.774H708.447C710.141 637.849 711.931 623.828 713.972 609.782C708.811 590.171 694.101 575.401 684.111 567.264Z" fill="#5E8DDF"/>
<path d="M653.11 236.067C653.11 236.067 626.786 265.788 618.158 296.574C608.013 332.755 632.154 380.953 625.668 446.638C619.183 512.323 611.158 562.318 615.021 589.503C618.883 616.689 612.813 684.793 612.813 684.793L669.116 676.397C669.116 676.397 674.667 620.291 671.355 568.047C667.899 513.511 684.204 459.451 680.181 405.079C678.614 383.884 673.811 363.057 667.882 342.637C662.085 322.682 654.945 303.298 653.002 282.503C651.546 267.055 651.582 251.509 653.11 236.067Z" fill="#A3C5FF"/>
<path d="M553.749 682.794C553.749 682.794 541.608 658.798 549.887 627.353C558.165 595.908 534.431 559.119 537.181 511.139C539.931 463.159 535.97 422.915 519.517 375.737C507.594 341.546 518.953 290.441 542.15 271.785C542.15 271.785 537.39 325.676 557.606 362.408C586.064 414.118 584.547 483.686 588.963 542.859C593.379 602.033 603.422 627.353 597.349 670.534C591.276 713.715 553.749 682.794 553.749 682.794Z" fill="#A3C5FF"/>
<path d="M625.087 676.931C625.087 676.931 634.686 554.5 611.709 496.747C597.211 460.296 580.247 439.706 579.694 406.121C579.694 406.121 558.165 463.162 573.621 504.742C589.076 546.323 589.079 589.503 589.079 615.626C589.079 641.748 589.906 679.595 589.906 679.595L625.087 676.931Z" fill="#C0DAFF"/>
<path d="M610.193 686.088H610.167C609.991 686.085 609.818 686.049 609.656 685.981C609.495 685.913 609.349 685.815 609.227 685.693C609.104 685.571 609.008 685.426 608.944 685.268C608.88 685.11 608.848 684.941 608.852 684.771C608.852 684.07 610.038 614.052 604.052 562.479C602.123 545.892 596.126 525.122 590.327 505.039C584.172 483.73 578.358 463.593 578.358 451.301C578.358 450.957 578.499 450.628 578.751 450.385C579.003 450.142 579.344 450.005 579.699 450.005C580.055 450.005 580.396 450.142 580.648 450.385C580.899 450.628 581.04 450.957 581.04 451.301C581.04 463.246 586.803 483.204 592.899 504.344C598.73 524.522 604.758 545.398 606.706 562.19C612.717 613.932 611.542 684.114 611.528 684.817C611.522 685.156 611.379 685.478 611.129 685.716C610.88 685.954 610.543 686.087 610.193 686.088Z" fill="#5E8DDF"/>
<path d="M579.697 675.025C579.633 675.029 579.569 675.029 579.505 675.025C579.154 674.975 578.839 674.792 578.627 674.518C578.416 674.244 578.325 673.9 578.375 673.561C578.429 673.204 583.559 637.677 578.375 607.317C577.099 599.835 575.125 590.043 572.838 578.705C565.848 544.013 556.27 496.499 558.8 473.698C562.233 442.738 552.572 399.04 541.244 374.679C529.103 348.581 530.625 308.397 530.642 307.993C530.649 307.823 530.69 307.657 530.764 307.502C530.838 307.348 530.942 307.21 531.072 307.094C531.201 306.979 531.352 306.89 531.518 306.831C531.683 306.772 531.858 306.746 532.034 306.753C532.21 306.759 532.382 306.799 532.542 306.871C532.701 306.942 532.845 307.043 532.964 307.168C533.084 307.293 533.176 307.439 533.237 307.598C533.298 307.758 533.325 307.927 533.318 308.097C533.318 308.495 531.819 348.082 543.692 373.618C555.163 398.292 564.947 442.578 561.466 473.963C558.978 496.376 568.524 543.669 575.47 578.201C577.76 589.558 579.736 599.366 581.018 606.886C586.267 637.647 581.077 673.556 581.018 673.915C580.973 674.223 580.814 674.504 580.571 674.708C580.329 674.912 580.018 675.024 579.697 675.025Z" fill="#5E8DDF"/>
<path d="M641.547 655.295C641.205 655.294 640.876 655.168 640.627 654.941C640.378 654.714 640.229 654.403 640.209 654.073C637.668 610.328 643.329 521.28 649.744 479.092C656.292 436.009 650.839 402.568 640.641 347.168C630.739 293.372 638.382 278.572 638.707 277.969C638.878 277.675 639.161 277.457 639.495 277.361C639.83 277.265 640.19 277.299 640.499 277.456C640.809 277.612 641.042 277.879 641.151 278.2C641.26 278.52 641.235 278.869 641.082 279.171C640.955 279.417 633.639 294.327 643.281 346.716C653.527 402.38 659.005 435.99 652.395 479.468C646 521.553 640.353 610.322 642.886 653.926C642.896 654.095 642.871 654.265 642.813 654.425C642.755 654.586 642.665 654.733 642.547 654.86C642.43 654.987 642.288 655.09 642.13 655.163C641.971 655.237 641.799 655.28 641.624 655.289L641.547 655.295Z" fill="#5E8DDF"/>
<path d="M849.267 653.49H85.584C85.3174 653.49 85.0618 653.387 84.8733 653.205C84.6848 653.023 84.5789 652.776 84.5789 652.519C84.5789 652.261 84.6848 652.014 84.8733 651.832C85.0618 651.65 85.3174 651.548 85.584 651.548H849.267C849.534 651.548 849.79 651.65 849.978 651.832C850.167 652.014 850.273 652.261 850.273 652.519C850.273 652.776 850.167 653.023 849.978 653.205C849.79 653.387 849.534 653.49 849.267 653.49Z" fill="#000381"/>
<path d="M906.047 653.49H889.705C889.438 653.49 889.183 653.387 888.994 653.205C888.806 653.023 888.7 652.776 888.7 652.519C888.7 652.261 888.806 652.014 888.994 651.832C889.183 651.65 889.438 651.548 889.705 651.548H906.047C906.314 651.548 906.57 651.65 906.758 651.832C906.947 652.014 907.053 652.261 907.053 652.519C907.053 652.776 906.947 653.023 906.758 653.205C906.57 653.387 906.314 653.49 906.047 653.49Z" fill="#000381"/>
<path d="M749.249 180.31L784.579 304.004C785.683 307.874 785.15 312.008 783.098 315.499C781.046 318.989 777.642 321.55 773.635 322.617L574.086 375.788C570.081 376.856 565.8 376.343 562.186 374.362C558.573 372.382 555.921 369.096 554.816 365.228L519.486 241.531C518.382 237.663 518.914 233.529 520.965 230.039C523.016 226.549 526.418 223.989 530.424 222.921L729.973 169.749C731.957 169.22 734.029 169.074 736.071 169.319C738.113 169.563 740.086 170.194 741.876 171.174C743.666 172.155 745.238 173.466 746.503 175.034C747.768 176.602 748.701 178.394 749.249 180.31Z" fill="white"/>
<path d="M781.329 292.636L784.579 304.015C785.683 307.885 785.151 312.019 783.098 315.51C781.046 319 777.642 321.561 773.635 322.628L574.086 375.799C570.081 376.867 565.8 376.354 562.187 374.373C558.573 372.393 555.922 369.107 554.816 365.239L551.566 353.857L781.329 292.636Z" fill="#BA2928"/>
<path d="M706.052 371.213L657.156 384.239L652.065 332.458L682.934 324.234L706.052 371.213Z" fill="#BA2928"/>
<path d="M637.092 385.931L725.513 362.377C727.078 361.961 728.751 362.161 730.163 362.935C731.575 363.709 732.61 364.993 733.042 366.504L735.277 374.33L635.045 401.029L632.81 393.203C632.597 392.454 632.538 391.672 632.637 390.901C632.736 390.13 632.992 389.385 633.39 388.71C633.788 388.034 634.319 387.441 634.955 386.964C635.59 386.487 636.316 386.136 637.092 385.931Z" fill="#BA2928"/>
<path d="M654.197 354.435L696.935 352.685L692.742 344.166L654.197 354.435Z" fill="#B4330C"/>
<path d="M618.799 290.662L610.783 292.925L613.804 302.908L602.694 306.044L599.672 296.061L573.163 303.543L570.921 296.14L584.996 259.435L596.951 256.059L584.098 290.727L597.318 286.992L594.624 278.097L605.381 275.06L608.075 283.954L616.091 281.691L618.799 290.662Z" fill="#CDDEFC"/>
<path d="M618 275.921C613.248 260.234 619.555 248.798 631.651 245.381C643.815 241.946 655.439 248.321 660.188 264.008C664.937 279.695 658.703 291.112 646.537 294.548C634.441 297.964 622.749 291.608 618 275.921ZM648.728 267.245C645.458 256.447 640.164 253.065 634.466 254.685C628.842 256.275 626.261 261.867 629.531 272.665C632.8 283.463 638.094 286.844 643.719 285.244C649.417 283.638 651.997 278.042 648.728 267.245Z" fill="#CDDEFC"/>
<path d="M714.992 263.498L706.973 265.761L709.997 275.744L698.887 278.882L695.863 268.913L669.367 276.385L667.128 268.982L681.203 232.279L693.158 228.904L680.297 263.569L693.516 259.836L690.823 250.939L701.58 247.901L704.274 256.796L712.29 254.532L714.992 263.498Z" fill="#CDDEFC"/>
<path d="M720.59 266.119C719.399 262.178 721.641 258.756 725.438 257.665C729.236 256.575 733.039 258.323 734.234 262.26C735.406 266.132 733.223 269.77 729.434 270.841C725.645 271.913 721.762 269.988 720.59 266.119Z" fill="#CDDEFC"/>
<path d="M765.579 238.139C765.433 238.139 765.29 238.092 765.174 238.006C765.058 237.919 764.974 237.799 764.936 237.662L748.602 180.482C748.078 178.648 747.185 176.932 745.974 175.431C744.763 173.931 743.258 172.675 741.544 171.737C739.831 170.798 737.943 170.195 735.988 169.961C734.033 169.727 732.049 169.867 730.15 170.374L677.123 184.499C677.038 184.521 676.95 184.527 676.863 184.517C676.775 184.506 676.691 184.479 676.615 184.437C676.538 184.396 676.471 184.34 676.417 184.273C676.363 184.206 676.323 184.129 676.3 184.047C676.277 183.965 676.27 183.88 676.281 183.796C676.292 183.711 676.32 183.63 676.363 183.556C676.407 183.483 676.465 183.418 676.534 183.366C676.603 183.313 676.683 183.275 676.767 183.252L729.789 169.114C731.858 168.562 734.019 168.41 736.148 168.665C738.278 168.92 740.335 169.577 742.201 170.6C744.068 171.623 745.708 172.99 747.027 174.625C748.346 176.26 749.319 178.13 749.889 180.128L766.22 237.308C766.247 237.404 766.251 237.504 766.231 237.602C766.211 237.699 766.168 237.791 766.106 237.87C766.043 237.949 765.963 238.014 765.87 238.058C765.778 238.102 765.677 238.125 765.574 238.126L765.579 238.139Z" fill="#002396"/>
<path d="M617.726 200.297C617.563 200.299 617.405 200.243 617.282 200.139C617.159 200.036 617.079 199.894 617.057 199.738C617.035 199.582 617.073 199.424 617.163 199.293C617.254 199.162 617.39 199.067 617.548 199.027L645.765 191.509C645.933 191.473 646.109 191.501 646.256 191.587C646.403 191.673 646.511 191.81 646.557 191.969C646.603 192.129 646.583 192.3 646.503 192.447C646.422 192.593 646.287 192.705 646.124 192.758L617.906 200.276C617.847 200.291 617.787 200.298 617.726 200.297Z" fill="#002396"/>
<path d="M569.925 376.969C566.349 376.964 562.874 375.829 560.029 373.738C557.184 371.646 555.126 368.713 554.17 365.386L518.837 241.689C518.807 241.606 518.795 241.517 518.802 241.428C518.809 241.34 518.834 241.254 518.877 241.175C518.92 241.097 518.979 241.027 519.051 240.972C519.122 240.916 519.205 240.875 519.294 240.852C519.382 240.828 519.475 240.822 519.566 240.835C519.657 240.847 519.744 240.878 519.822 240.924C519.901 240.97 519.969 241.032 520.021 241.104C520.074 241.177 520.111 241.259 520.13 241.346L555.46 365.042C556.522 368.743 559.061 371.885 562.519 373.78C565.977 375.676 570.071 376.169 573.906 375.153C574.077 375.108 574.26 375.13 574.414 375.214C574.568 375.299 574.682 375.439 574.729 375.605C574.776 375.77 574.753 375.946 574.666 376.095C574.578 376.245 574.433 376.354 574.261 376.399C572.849 376.778 571.39 376.969 569.925 376.969Z" fill="#002396"/>
<path d="M631.834 361.04C631.672 361.041 631.514 360.985 631.391 360.882C631.267 360.779 631.188 360.636 631.166 360.48C631.144 360.324 631.182 360.166 631.272 360.035C631.362 359.904 631.499 359.809 631.656 359.769L773.457 321.992C773.542 321.97 773.63 321.964 773.717 321.974C773.804 321.985 773.889 322.012 773.965 322.053C774.042 322.095 774.109 322.151 774.163 322.218C774.217 322.285 774.257 322.362 774.28 322.444C774.303 322.525 774.31 322.611 774.299 322.695C774.288 322.779 774.26 322.861 774.217 322.935C774.173 323.008 774.115 323.073 774.046 323.125C773.977 323.178 773.897 323.216 773.813 323.239L632.012 361.015C631.954 361.031 631.895 361.04 631.834 361.04Z" fill="#002396"/>
<path d="M729.614 467.778L749.119 452.301L735.673 430.855L714.458 451.829C713.423 452.852 712.608 454.063 712.06 455.391C711.512 456.719 711.241 458.139 711.264 459.569C711.286 460.999 711.601 462.41 712.191 463.722C712.781 465.033 713.634 466.219 714.7 467.211C716.682 469.055 719.296 470.131 722.045 470.236C724.795 470.34 727.488 469.466 729.614 467.778Z" fill="white"/>
<path d="M805.475 458.39C805.475 458.39 808.838 451.829 804.885 448.236C800.932 444.642 738.869 416.63 738.869 416.63L735.252 421.696L805.475 458.39Z" fill="white"/>
<path d="M720.189 440.186L735.264 421.699L784.607 447.478L805.486 458.385L805.416 458.426C805.325 458.48 805.153 458.576 804.91 458.698L804.848 458.731C803.027 459.628 797.4 461.897 789.229 460.454C787.622 460.19 786.002 460.008 784.375 459.909C771.65 459.023 748.071 460.182 746.953 460.831C745.668 461.583 739.586 455.405 738.864 449.106C738.141 442.807 720.189 440.186 720.189 440.186Z" fill="#091E77"/>
<path d="M784.598 447.478L805.478 458.385L805.407 458.426L804.902 458.698L804.84 458.731C803.018 459.628 797.391 461.897 789.22 460.454C787.614 460.19 785.993 460.008 784.367 459.909C783.545 454.016 784.598 447.478 784.598 447.478Z" fill="white"/>
<path d="M756.496 460.228C756.455 460.228 756.415 460.217 756.38 460.197C756.345 460.177 756.316 460.148 756.296 460.113C756.253 460.045 752.321 453.185 755.288 445.97C755.311 445.915 755.356 445.871 755.412 445.847C755.469 445.824 755.533 445.823 755.59 445.844C755.618 445.855 755.644 445.871 755.666 445.891C755.688 445.911 755.705 445.936 755.718 445.963C755.73 445.989 755.736 446.018 755.736 446.048C755.737 446.077 755.731 446.106 755.72 446.133C752.834 453.152 756.66 459.827 756.7 459.893C756.729 459.944 756.737 460.005 756.72 460.063C756.704 460.12 756.665 460.168 756.612 460.198C756.577 460.218 756.537 460.229 756.496 460.228Z" fill="white"/>
<path d="M766.15 459.822C766.118 459.821 766.086 459.815 766.056 459.802C766.026 459.789 766 459.771 765.978 459.748C765.933 459.699 761.33 454.709 764.309 447.464C764.332 447.409 764.377 447.365 764.433 447.342C764.49 447.318 764.554 447.317 764.611 447.339C764.64 447.349 764.665 447.365 764.687 447.385C764.709 447.406 764.727 447.43 764.739 447.457C764.751 447.484 764.757 447.513 764.758 447.542C764.758 447.571 764.752 447.6 764.741 447.628C761.872 454.605 766.277 459.399 766.322 459.445C766.364 459.49 766.385 459.549 766.382 459.608C766.379 459.668 766.351 459.724 766.305 459.764C766.263 459.802 766.207 459.822 766.15 459.822Z" fill="white"/>
<path d="M775.086 459.879C775.026 459.879 774.969 459.856 774.925 459.816C774.886 459.778 770.972 456.07 773.048 449.555C773.066 449.5 773.105 449.454 773.158 449.427C773.211 449.399 773.272 449.393 773.33 449.408C773.387 449.426 773.435 449.464 773.463 449.515C773.491 449.566 773.498 449.625 773.483 449.681C771.486 455.917 775.199 459.448 775.239 459.497C775.272 459.529 775.294 459.569 775.304 459.612C775.313 459.656 775.309 459.701 775.292 459.742C775.274 459.784 775.245 459.819 775.207 459.845C775.169 459.87 775.124 459.884 775.078 459.884L775.086 459.879Z" fill="white"/>
<path d="M369.376 580.93L349.632 597.711L364.415 619.585L385.741 597.024C386.781 595.923 387.585 594.634 388.107 593.232C388.63 591.83 388.859 590.342 388.783 588.854C388.708 587.366 388.328 585.907 387.666 584.561C387.003 583.215 386.072 582.009 384.925 581.012C382.795 579.16 380.034 578.128 377.167 578.113C374.3 578.098 371.528 579.101 369.376 580.93Z" fill="white"/>
<path d="M290.74 593.294C290.74 593.294 287.479 600.236 291.725 603.843C295.972 607.451 361.609 634.509 361.609 634.509L365.192 629.107L290.74 593.294Z" fill="white"/>
<path d="M380.207 609.34L365.186 629.107L312.864 603.944L290.723 593.293L290.796 593.247C290.886 593.19 291.061 593.084 291.313 592.95L291.378 592.912C293.238 591.916 299.001 589.367 307.576 590.583C309.262 590.802 310.958 590.933 312.658 590.976C325.929 591.467 350.45 589.46 351.588 588.74C352.898 587.922 359.457 594.141 360.443 600.677C361.428 607.214 380.207 609.34 380.207 609.34Z" fill="#00249F"/>
<path d="M312.865 603.944L290.723 593.294L290.796 593.247L291.313 592.95L291.378 592.912C293.238 591.917 299.001 589.367 307.576 590.583C309.262 590.802 310.958 590.933 312.658 590.976C313.72 597.098 312.865 603.944 312.865 603.944Z" fill="white"/>
<path d="M343.211 604.67C343.183 604.671 343.155 604.666 343.129 604.656C343.099 604.646 343.072 604.63 343.048 604.61C343.025 604.589 343.005 604.564 342.992 604.537C342.978 604.509 342.97 604.479 342.969 604.449C342.967 604.418 342.972 604.387 342.982 604.359C345.73 596.958 341.503 590.13 341.461 590.062C341.427 590.01 341.417 589.946 341.432 589.886C341.447 589.826 341.486 589.774 341.541 589.742C341.596 589.71 341.661 589.7 341.724 589.714C341.786 589.729 341.84 589.767 341.873 589.82C341.918 589.89 346.263 596.909 343.437 604.517C343.421 604.562 343.39 604.601 343.349 604.628C343.309 604.656 343.261 604.67 343.211 604.67Z" fill="white"/>
<path d="M333.764 603.423C333.736 603.423 333.708 603.418 333.682 603.407C333.652 603.397 333.625 603.381 333.601 603.361C333.577 603.34 333.558 603.316 333.545 603.288C333.531 603.26 333.523 603.23 333.521 603.2C333.52 603.169 333.525 603.139 333.535 603.11C336.274 595.748 331.505 590.905 331.457 590.858C331.435 590.837 331.417 590.811 331.404 590.783C331.392 590.755 331.386 590.724 331.386 590.694C331.386 590.663 331.392 590.632 331.404 590.604C331.417 590.576 331.435 590.55 331.457 590.529C331.479 590.507 331.506 590.489 331.535 590.478C331.565 590.466 331.596 590.46 331.628 590.46C331.66 590.46 331.691 590.466 331.721 590.478C331.75 590.489 331.776 590.507 331.799 590.529C331.85 590.578 336.822 595.617 333.984 603.265C333.969 603.31 333.939 603.349 333.9 603.378C333.86 603.406 333.813 603.422 333.764 603.423Z" fill="white"/>
<path d="M324.582 601.558C324.561 601.561 324.54 601.561 324.52 601.558C324.458 601.542 324.405 601.503 324.372 601.45C324.34 601.396 324.331 601.332 324.348 601.272C326.2 594.706 322.204 591.158 322.162 591.123C322.138 591.103 322.119 591.078 322.105 591.05C322.092 591.022 322.084 590.992 322.082 590.962C322.081 590.931 322.085 590.9 322.096 590.871C322.107 590.842 322.124 590.816 322.145 590.793C322.166 590.77 322.191 590.751 322.22 590.738C322.248 590.724 322.279 590.716 322.31 590.715C322.342 590.713 322.374 590.717 322.403 590.727C322.433 590.738 322.461 590.753 322.484 590.774C322.529 590.812 326.748 594.54 324.816 601.408C324.798 601.454 324.766 601.493 324.724 601.519C324.682 601.546 324.632 601.56 324.582 601.558Z" fill="white"/>
<path d="M649.242 543.555C657.43 534.494 657.712 520.628 649.936 509.345L590.31 422.656C561.002 395.388 525.458 403.296 514.424 425.565C507.083 440.388 513.927 461.3 530.831 475.691L605.294 542.892C618.706 554.988 638.654 555.288 649.242 543.555Z" fill="#091E77"/>
<path d="M613.942 547.517C600.514 537.799 600.37 518.774 613.66 510.062L715.305 443.437L738.059 465.81L644.648 546.723C636.282 554.023 623.393 554.355 613.942 547.517Z" fill="#091E77"/>
<path d="M457.293 536.953C461.97 540.678 467.759 542.861 473.812 543.182C479.866 543.503 485.867 541.945 490.938 538.737L570.898 488.144C595.135 462.758 584.321 430.583 561.496 419.924C546.312 412.834 526.37 418.266 513.701 432.952L454.151 497.519C451.606 500.276 449.665 503.5 448.441 506.999C447.218 510.498 446.739 514.2 447.032 517.882C447.326 521.564 448.386 525.151 450.149 528.428C451.912 531.705 454.342 534.605 457.293 536.953Z" fill="#00249F"/>
<path d="M446.217 505.064L355.149 584.083L381.757 609.441L479.449 546.352C482.712 544.245 485.462 541.48 487.511 538.247C489.559 535.014 490.858 531.39 491.316 527.626C491.774 523.861 491.381 520.046 490.165 516.442C488.948 512.838 486.937 509.532 484.269 506.752C479.427 501.701 472.721 498.692 465.601 498.376C458.481 498.061 451.518 500.463 446.217 505.064Z" fill="#00249F"/>
<path d="M501.986 417.592L565.777 392.866C565.777 392.866 624.149 440.134 591.51 473.968C542.607 524.656 503.104 443.428 503.104 443.428L501.986 417.592Z" fill="#00249F"/>
<path d="M579.908 334.538L517.747 321.212C514.583 320.535 511.807 318.712 509.991 316.119C508.175 313.526 507.457 310.359 507.983 307.271C508.268 305.603 508.906 304.01 509.859 302.593C510.812 301.175 512.058 299.963 513.519 299.034C514.981 298.104 516.625 297.476 518.35 297.191C520.075 296.905 521.842 296.967 523.541 297.372L585.349 312.13C588.259 312.825 590.79 314.553 592.439 316.97C594.088 319.387 594.733 322.316 594.246 325.172C593.984 326.716 593.398 328.192 592.524 329.51C591.65 330.828 590.508 331.96 589.166 332.836C587.824 333.713 586.31 334.316 584.719 334.609C583.127 334.901 581.49 334.877 579.908 334.538Z" fill="white"/>
<path d="M693.858 336.861C693.842 336.859 693.826 336.859 693.81 336.861H685.904C685.622 336.861 685.289 336.949 685.057 336.771C684.971 336.704 684.907 336.614 684.873 336.512C684.811 336.341 684.752 336.065 684.941 335.945C685.094 335.875 685.265 335.85 685.433 335.874C687.07 335.961 688.713 335.844 690.32 335.525C690.705 335.465 691.078 335.349 691.427 335.179C692.308 334.688 691.904 333.976 691.526 333.543C691.422 333.426 691.291 333.334 691.144 333.274C690.997 333.214 690.838 333.187 690.679 333.197C688.346 333.306 677.885 333.772 677.273 333.529C676.584 333.257 677.03 331.961 677.03 331.961C677.03 331.961 684.975 328.752 685.664 327.89C686.353 327.029 685.382 325.66 683.97 326.527C682.558 327.394 669.051 331.132 669.051 331.132C665.809 331.132 654.199 331.588 654.199 331.588L652.068 343.643L665.553 349.62C667.184 350.983 673.992 356.63 675.322 357.181C676.835 357.805 677.753 357.181 677.753 355.875C677.753 354.569 673.235 350.053 671.756 348.619C671.468 348.352 671.261 348.015 671.157 347.643C672.22 347.103 673.237 346.482 674.198 345.786C679.201 346.419 690.17 347.695 691.376 346.74C692.26 346.048 692.093 345.363 691.78 344.897C691.539 344.546 691.165 344.301 690.738 344.215C688.733 343.795 681.02 342.162 679.916 341.573C678.645 340.894 679.836 340.242 681.293 339.664C682.555 339.168 691.017 339.471 693.296 339.564C693.49 339.571 693.684 339.533 693.859 339.452C694.034 339.37 694.186 339.249 694.301 339.097C695.439 337.581 693.858 336.861 693.858 336.861Z" fill="white"/>
<path d="M583.816 336.032C582.886 336.032 581.959 335.932 581.052 335.735L518.876 322.412C517.169 322.026 515.558 321.318 514.135 320.33C512.711 319.342 511.503 318.093 510.579 316.654C509.656 315.215 509.035 313.614 508.751 311.943C508.468 310.273 508.529 308.564 508.929 306.916C509.33 305.268 510.062 303.712 511.085 302.337C512.108 300.962 513.402 299.796 514.892 298.904C516.382 298.012 518.039 297.412 519.769 297.138C521.499 296.865 523.268 296.923 524.975 297.31L586.783 312.067C589.849 312.814 592.514 314.642 594.254 317.192C595.993 319.741 596.682 322.827 596.183 325.843C595.697 328.68 594.187 331.259 591.92 333.124C589.654 334.989 586.777 336.02 583.799 336.032H583.816ZM521.748 298.218C518.907 298.231 516.163 299.214 514.001 300.994C511.84 302.774 510.4 305.235 509.937 307.941C509.44 310.867 510.121 313.865 511.84 316.321C513.56 318.777 516.187 320.503 519.184 321.147L581.343 334.473C582.835 334.793 584.38 334.815 585.882 334.539C587.385 334.263 588.813 333.693 590.079 332.866C591.346 332.039 592.425 330.97 593.249 329.727C594.074 328.483 594.627 327.09 594.875 325.633C595.324 322.938 594.71 320.18 593.156 317.901C591.601 315.622 589.219 313.989 586.478 313.324L524.67 298.564C523.711 298.334 522.727 298.218 521.739 298.218H521.748Z" fill="#002396"/>
<path d="M652.065 343.643L581.196 335.105C574.625 333.696 566.107 329.153 567.2 322.74C568.4 315.688 579.767 311.061 586.964 312.776L654.219 331.591L652.065 343.643Z" fill="white"/>
<path d="M654.197 332.237C654.133 332.237 654.071 332.228 654.01 332.209L586.755 313.395L577.734 311.235C577.562 311.194 577.413 311.088 577.321 310.941C577.229 310.794 577.202 310.618 577.244 310.451C577.287 310.285 577.397 310.141 577.549 310.052C577.701 309.964 577.884 309.937 578.056 309.978L587.091 312.143L654.372 330.958C654.526 331.002 654.658 331.099 654.745 331.23C654.832 331.36 654.867 331.517 654.844 331.671C654.822 331.824 654.743 331.965 654.622 332.068C654.501 332.17 654.346 332.227 654.185 332.229L654.197 332.237Z" fill="#002396"/>
<path d="M652.065 344.289H651.988C651.452 344.232 598.114 338.383 580.702 335.476C577.695 334.972 569.125 333.189 569.046 333.169C568.96 333.152 568.879 333.117 568.806 333.069C568.734 333.021 568.672 332.959 568.624 332.888C568.577 332.816 568.544 332.737 568.528 332.653C568.512 332.569 568.514 332.484 568.532 332.4C568.551 332.317 568.586 332.239 568.636 332.169C568.686 332.099 568.75 332.039 568.824 331.993C568.898 331.947 568.981 331.915 569.067 331.9C569.154 331.885 569.243 331.886 569.329 331.904C569.413 331.923 577.949 333.701 580.93 334.2C598.306 337.101 651.604 342.945 652.141 343.005C652.314 343.02 652.475 343.099 652.588 343.226C652.702 343.353 652.76 343.518 652.75 343.685C652.74 343.853 652.663 344.01 652.535 344.124C652.407 344.238 652.238 344.299 652.065 344.295V344.289Z" fill="#002396"/>
<path d="M676.398 358.078C675.933 358.067 675.476 357.966 675.054 357.781C673.71 357.236 667.761 352.327 665.171 350.173L651.774 344.234C651.694 344.199 651.622 344.148 651.563 344.085C651.503 344.023 651.457 343.949 651.427 343.87C651.396 343.79 651.383 343.705 651.386 343.62C651.39 343.535 651.411 343.451 651.448 343.374C651.485 343.297 651.538 343.228 651.602 343.17C651.667 343.112 651.743 343.068 651.826 343.039C651.909 343.009 651.997 342.996 652.085 343C652.173 343.003 652.259 343.023 652.339 343.059L665.824 349.036C665.881 349.061 665.935 349.094 665.982 349.134C671.013 353.334 674.78 356.259 675.582 356.592C676.101 356.808 676.536 356.843 676.776 356.69C677.016 356.538 677.078 356.109 677.078 355.872C677.053 355.261 674.876 352.551 671.276 349.074C670.905 348.726 670.638 348.287 670.505 347.804C670.467 347.664 670.478 347.516 670.538 347.384C670.597 347.251 670.701 347.142 670.833 347.073C671.862 346.551 672.847 345.95 673.778 345.276C673.847 345.222 673.928 345.181 674.014 345.158C674.101 345.135 674.191 345.13 674.28 345.142C685.526 346.566 690.295 346.615 690.961 346.233C691.455 345.846 691.427 345.571 691.212 345.257C691.142 345.153 691.05 345.064 690.944 344.995C690.837 344.926 690.717 344.878 690.591 344.853C687.663 344.24 680.726 342.754 679.58 342.143C678.967 341.816 678.668 341.404 678.699 340.919C678.747 340.131 679.667 339.61 681.031 339.073C682.321 338.566 689.281 338.762 693.313 338.925C693.397 338.927 693.48 338.909 693.555 338.874C693.631 338.839 693.697 338.788 693.748 338.724C693.845 338.618 693.919 338.494 693.966 338.359C694.012 338.225 694.029 338.082 694.016 337.941C693.954 337.764 693.83 337.613 693.666 337.513H685.913C685.86 337.51 685.807 337.51 685.755 337.513C685.369 337.575 684.974 337.492 684.651 337.281C684.464 337.14 684.322 336.951 684.241 336.736C683.939 335.896 684.419 335.509 684.574 335.411C684.845 335.26 685.159 335.198 685.469 335.236C687.05 335.322 688.635 335.208 690.185 334.898C690.499 334.852 690.805 334.76 691.091 334.625C691.235 334.546 691.28 334.484 691.283 334.462C691.286 334.44 691.258 334.249 691.018 333.976C690.981 333.935 690.934 333.902 690.882 333.881C690.829 333.86 690.772 333.852 690.715 333.856C677.807 334.451 677.239 334.225 677.024 334.129C676.087 333.758 676.101 332.621 676.4 331.76C676.43 331.672 676.479 331.592 676.544 331.524C676.609 331.456 676.688 331.403 676.776 331.367C680.523 329.854 684.682 327.991 685.145 327.489C685.201 327.421 685.23 327.335 685.227 327.247C685.223 327.16 685.187 327.076 685.125 327.012C684.967 326.84 684.665 326.865 684.323 327.072C682.866 327.956 670.626 331.367 669.235 331.751C669.174 331.768 669.111 331.776 669.048 331.776C665.858 331.776 654.338 332.229 654.222 332.231C654.134 332.235 654.047 332.221 653.964 332.192C653.881 332.163 653.806 332.118 653.741 332.06C653.676 332.003 653.624 331.933 653.587 331.856C653.55 331.779 653.53 331.696 653.526 331.611C653.523 331.526 653.536 331.441 653.567 331.362C653.597 331.282 653.643 331.209 653.703 331.146C653.763 331.084 653.835 331.034 653.914 330.998C653.994 330.962 654.081 330.942 654.168 330.939C654.284 330.939 665.609 330.492 668.955 330.483C674.348 328.986 682.635 326.568 683.612 325.976C684.716 325.305 685.653 325.646 686.119 326.14C686.392 326.432 686.549 326.807 686.564 327.2C686.579 327.593 686.451 327.978 686.201 328.288C685.509 329.153 680.184 331.389 677.6 332.439C677.561 332.602 677.553 332.771 677.575 332.938C678.306 333.028 683.53 332.88 690.653 332.553C690.914 332.539 691.175 332.583 691.415 332.683C691.655 332.782 691.868 332.934 692.037 333.126C692.497 333.646 692.692 334.181 692.602 334.672C692.554 334.9 692.453 335.114 692.306 335.298C692.159 335.483 691.97 335.632 691.755 335.735C691.348 335.943 690.908 336.085 690.453 336.155L690.171 336.212H693.813C693.918 336.212 694.023 336.229 694.123 336.261C694.412 336.395 694.668 336.585 694.875 336.82C695.082 337.054 695.236 337.329 695.326 337.625C695.436 338.037 695.442 338.694 694.843 339.49C694.665 339.729 694.428 339.921 694.153 340.049C693.879 340.177 693.575 340.237 693.271 340.223C686.983 339.97 682.259 339.992 681.548 340.278C681.047 340.445 680.573 340.676 680.136 340.965L680.226 341.017C680.878 341.366 685.153 342.402 690.865 343.594C691.163 343.653 691.445 343.768 691.696 343.933C691.948 344.098 692.162 344.31 692.328 344.556C692.957 345.489 692.751 346.495 691.783 347.253C691.396 347.556 690.227 348.469 674.373 346.473C673.616 347.008 672.825 347.496 672.004 347.935C672.068 348.02 672.138 348.101 672.216 348.175C674.529 350.408 678.411 354.381 678.411 355.886C678.411 356.734 678.089 357.405 677.504 357.776C677.175 357.98 676.789 358.086 676.398 358.078Z" fill="#002396"/>
<path d="M597.781 386.188C597.781 392.866 534.371 453.196 501.65 442.07C501.047 441.863 500.466 441.601 499.914 441.288C475.914 427.976 458.059 311.478 471.174 303.11C479.006 298.114 498.527 290.995 498.527 290.995C498.527 290.995 535.055 292.982 543.762 309.174C543.836 309.31 543.909 309.447 543.974 309.588C552.292 325.676 542.334 344.764 555.79 359.488C569.36 374.319 597.781 379.516 597.781 386.188Z" fill="#BA2928"/>
<path d="M597.781 386.188C597.781 392.866 534.371 453.196 501.65 442.07C501.047 441.863 500.466 441.601 499.914 441.288C546.964 434.324 563.109 412.172 564.125 405.311C565.164 398.303 535.077 415.583 537.61 410.069C540.143 404.556 578.655 382.764 567.095 384.239C555.536 385.714 532.737 400.054 537.61 387.274C542.483 374.493 552.453 348.445 539.225 318.63L543.974 309.588C552.292 325.676 542.334 344.764 555.79 359.488C569.36 374.319 597.781 379.516 597.781 386.188Z" fill="#B4330C"/>
<path d="M476.524 248.135H493.555C494.872 248.135 496.136 248.641 497.067 249.54C497.999 250.44 498.522 251.66 498.522 252.932V301.711C498.522 305.164 497.101 308.476 494.573 310.917C492.045 313.359 488.615 314.731 485.04 314.731C481.464 314.731 478.035 313.359 475.506 310.917C472.978 308.476 471.558 305.164 471.558 301.711V252.932C471.558 251.66 472.081 250.44 473.012 249.54C473.944 248.641 475.207 248.135 476.524 248.135Z" fill="white"/>
<path d="M471.56 280.797V297.574C471.56 297.574 488.719 281.852 488.719 278.817C488.719 275.782 471.56 280.797 471.56 280.797Z" fill="#A6C8F6"/>
<path d="M486.739 315.377H483.351C480.048 315.374 476.882 314.105 474.547 311.85C472.211 309.594 470.898 306.536 470.894 303.347V259.52C470.898 256.33 472.211 253.272 474.547 251.016C476.882 248.76 480.048 247.491 483.351 247.487H486.739C490.042 247.491 493.209 248.76 495.544 251.016C497.879 253.272 499.193 256.33 499.197 259.52V303.347C499.193 306.536 497.879 309.594 495.544 311.85C493.208 314.105 490.042 315.374 486.739 315.377ZM483.351 248.782C480.404 248.785 477.578 249.918 475.494 251.931C473.41 253.944 472.238 256.673 472.235 259.52V303.347C472.238 306.193 473.41 308.923 475.494 310.936C477.578 312.949 480.404 314.081 483.351 314.085H486.739C489.687 314.081 492.513 312.949 494.596 310.936C496.68 308.923 497.852 306.193 497.855 303.347V259.52C497.852 256.673 496.68 253.944 494.596 251.931C492.513 249.918 489.687 248.785 486.739 248.782H483.351Z" fill="#002396"/>
<path d="M555.793 335.381L518.202 330.811C515.661 330.268 513.261 329.233 511.146 327.769C509.031 326.306 507.246 324.443 505.897 322.294C504.549 320.145 503.665 317.754 503.3 315.266C502.935 312.778 503.096 310.245 503.774 307.819C504.99 303.467 507.802 299.691 511.686 297.192C515.569 294.693 520.261 293.642 524.888 294.234L555.878 299.243L555.793 335.381Z" fill="#B4330C"/>
<path d="M471.623 302.821C471.153 303.094 470.717 303.419 470.324 303.789C469.929 304.233 469.477 304.639 469.285 305.19L467.292 310.611H475.197L471.623 302.821Z" fill="#B4330C"/>
<path d="M472.416 303.933L499.38 290.005C499.38 290.005 507.043 298.959 506.721 299.071C501.472 300.885 484.359 330.227 484.359 328.248C484.359 326.268 472.416 320.749 472.416 303.933Z" fill="#B4330C"/>
<path d="M471.56 302.946L498.527 289.015C498.527 289.015 506.19 297.97 505.868 298.081C500.619 299.895 483.509 329.237 483.509 327.258C483.509 325.278 471.56 319.759 471.56 302.946Z" fill="#BA2928"/>
<path d="M460.529 267.474C460.44 267.473 460.351 267.456 460.269 267.422C460.186 267.388 460.112 267.339 460.049 267.277C457.389 264.63 454.315 261.194 454.772 259.863C455.249 258.5 465.501 251.178 466.162 251.178C466.269 251.178 466.375 251.203 466.471 251.251C466.567 251.299 466.649 251.369 466.71 251.454C466.772 251.539 466.812 251.637 466.826 251.74C466.84 251.843 466.828 251.948 466.791 252.046L461.145 267.043C461.106 267.146 461.041 267.238 460.955 267.31C460.87 267.383 460.767 267.433 460.656 267.457C460.614 267.466 460.572 267.471 460.529 267.474ZM456.057 260.256C456.116 260.954 458.146 263.424 460.269 265.622L464.849 253.425C462.025 255.353 456.607 259.353 456.057 260.256Z" fill="#002396"/>
<path d="M498.691 266.386C489.868 287.736 480.401 286.291 469.655 286.329C449.69 286.414 460.411 264.109 466.696 249.245C472.981 234.382 482.657 228.667 492.409 232.511C502.161 236.356 504.852 251.479 498.691 266.386Z" fill="white"/>
<path d="M472.995 286.984H471.631C470.978 286.984 470.319 286.984 469.655 286.984H469.542C464.587 286.984 461.111 285.596 459.208 282.861C454.495 276.09 460.309 262.497 464.979 251.574C465.356 250.698 465.72 249.843 466.072 249.011C469.178 241.689 473.249 236.269 477.88 233.332C482.51 230.395 487.595 229.924 492.66 231.922C502.783 235.914 505.705 251.16 499.313 266.634C491.257 286.122 482.383 286.984 472.995 286.984ZM470.225 285.68H471.637C481.474 285.729 489.961 285.762 498.07 266.14C504.084 251.585 501.433 236.768 492.158 233.108C487.519 231.279 482.84 231.729 478.619 234.401C474.217 237.196 470.307 242.412 467.325 249.488C466.972 250.322 466.608 251.181 466.233 252.057C461.684 262.691 456.023 275.935 460.334 282.127C462.009 284.535 465.078 285.672 469.652 285.672L470.225 285.68Z" fill="#002396"/>
<path d="M526.754 247.331C526.796 245.564 534.942 245.602 534.942 245.602C531.553 238.698 523.526 245.602 523.526 245.602C523.526 245.602 531.209 230.766 519.26 215.27C507.311 199.774 491.952 219.886 491.952 219.886C488.024 207.027 462.932 212.797 468.234 230.106C473.537 247.416 493.499 242.139 493.499 242.139C483.769 256.727 494.608 263.487 494.608 263.487C494.608 263.487 486.33 268.515 492.217 275.85C498.104 283.185 509.031 276.755 509.031 276.755C509.031 276.755 526.093 274.757 526.754 247.331Z" fill="#FD4D1E"/>
<path d="M464.174 275.902C465.588 275.902 466.735 274.131 466.735 271.946C466.735 269.76 465.588 267.989 464.174 267.989C462.76 267.989 461.613 269.76 461.613 271.946C461.613 274.131 462.76 275.902 464.174 275.902Z" fill="#A6C8F6"/>
<path d="M495.247 267.989C498.378 267.989 500.916 265.538 500.916 262.514C500.916 259.49 498.378 257.038 495.247 257.038C492.116 257.038 489.577 259.49 489.577 262.514C489.577 265.538 492.116 267.989 495.247 267.989Z" fill="white"/>
<path d="M495.247 268.641C495.155 268.647 495.063 268.634 494.976 268.604C494.89 268.574 494.811 268.527 494.743 268.467C494.676 268.406 494.623 268.333 494.586 268.251C494.55 268.17 494.531 268.082 494.531 267.993C494.531 267.904 494.55 267.817 494.586 267.735C494.623 267.654 494.676 267.58 494.743 267.52C494.811 267.459 494.89 267.412 494.976 267.382C495.063 267.352 495.155 267.34 495.247 267.346C496.572 267.346 497.843 266.837 498.78 265.932C499.718 265.027 500.244 263.799 500.244 262.519C500.244 261.239 499.718 260.011 498.78 259.106C497.843 258.201 496.572 257.693 495.247 257.693C495.155 257.699 495.063 257.686 494.976 257.656C494.89 257.626 494.811 257.579 494.743 257.519C494.676 257.458 494.623 257.385 494.586 257.303C494.55 257.222 494.531 257.134 494.531 257.045C494.531 256.956 494.55 256.869 494.586 256.787C494.623 256.706 494.676 256.632 494.743 256.572C494.811 256.511 494.89 256.464 494.976 256.434C495.063 256.404 495.155 256.392 495.247 256.398C496.928 256.398 498.54 257.042 499.729 258.191C500.917 259.339 501.585 260.896 501.585 262.519C501.585 264.143 500.917 265.7 499.729 266.848C498.54 267.996 496.928 268.641 495.247 268.641Z" fill="#002396"/>
<path d="M172.611 486.459C174.614 486.459 176.237 484.892 176.237 482.958C176.237 481.025 174.614 479.457 172.611 479.457C170.609 479.457 168.986 481.025 168.986 482.958C168.986 484.892 170.609 486.459 172.611 486.459Z" fill="#FD500E"/>
<path d="M659.643 63.0434C661.645 63.0434 663.268 61.4759 663.268 59.5422C663.268 57.6086 661.645 56.0411 659.643 56.0411C657.641 56.0411 656.018 57.6086 656.018 59.5422C656.018 61.4759 657.641 63.0434 659.643 63.0434Z" fill="#FD500E"/>
<path d="M290.723 420.131C292.725 420.131 294.348 418.564 294.348 416.63C294.348 414.696 292.725 413.129 290.723 413.129C288.721 413.129 287.098 414.696 287.098 416.63C287.098 418.564 288.721 420.131 290.723 420.131Z" fill="#4A90F4"/>
<path d="M871.186 225.697C873.188 225.697 874.811 224.13 874.811 222.196C874.811 220.262 873.188 218.695 871.186 218.695C869.184 218.695 867.561 220.262 867.561 222.196C867.561 224.13 869.184 225.697 871.186 225.697Z" fill="#4A90F4"/>
<path d="M851.582 360.59C853.584 360.59 855.208 359.022 855.208 357.088C855.208 355.155 853.584 353.587 851.582 353.587C849.58 353.587 847.957 355.155 847.957 357.088C847.957 359.022 849.58 360.59 851.582 360.59Z" fill="#00249F"/>
<path d="M555.751 125.298C557.396 125.298 558.729 124.01 558.729 122.421C558.729 120.832 557.396 119.544 555.751 119.544C554.105 119.544 552.772 120.832 552.772 122.421C552.772 124.01 554.105 125.298 555.751 125.298Z" fill="#00249F"/>
<path d="M570.546 232.44C570.37 232.441 570.195 232.408 570.033 232.343C569.87 232.278 569.722 232.183 569.598 232.063C569.473 231.943 569.374 231.8 569.307 231.643C569.239 231.486 569.205 231.318 569.205 231.148V223.131C569.196 222.956 569.225 222.782 569.288 222.618C569.352 222.454 569.449 222.304 569.574 222.177C569.7 222.051 569.85 221.95 570.017 221.881C570.184 221.812 570.363 221.777 570.544 221.777C570.726 221.777 570.905 221.812 571.072 221.881C571.238 221.95 571.389 222.051 571.514 222.177C571.639 222.304 571.737 222.454 571.8 222.618C571.864 222.782 571.892 222.956 571.884 223.131V231.148C571.884 231.491 571.743 231.819 571.492 232.062C571.241 232.304 570.901 232.44 570.546 232.44Z" fill="#002396"/>
<path d="M574.705 228.432H566.404C566.223 228.44 566.042 228.413 565.872 228.351C565.702 228.29 565.547 228.196 565.416 228.075C565.285 227.954 565.18 227.808 565.109 227.647C565.038 227.487 565.001 227.313 565.001 227.138C565.001 226.963 565.038 226.79 565.109 226.629C565.18 226.468 565.285 226.322 565.416 226.202C565.547 226.081 565.702 225.987 565.872 225.925C566.042 225.864 566.223 225.836 566.404 225.844H574.705C575.049 225.86 575.375 226.003 575.613 226.244C575.851 226.485 575.984 226.805 575.984 227.138C575.984 227.471 575.851 227.792 575.613 228.033C575.375 228.274 575.049 228.417 574.705 228.432Z" fill="#002396"/>
<path d="M245.245 557.467C244.89 557.467 244.548 557.33 244.297 557.088C244.045 556.845 243.904 556.515 243.904 556.172V548.155C243.904 547.811 244.045 547.482 244.297 547.239C244.548 546.996 244.89 546.86 245.245 546.86C245.601 546.86 245.942 546.996 246.194 547.239C246.445 547.482 246.586 547.811 246.586 548.155V556.172C246.586 556.515 246.445 556.845 246.194 557.088C245.942 557.33 245.601 557.467 245.245 557.467Z" fill="#002396"/>
<path d="M249.396 553.458H241.095C240.739 553.458 240.398 553.322 240.146 553.079C239.895 552.836 239.753 552.507 239.753 552.163C239.753 551.82 239.895 551.49 240.146 551.247C240.398 551.004 240.739 550.868 241.095 550.868H249.396C249.751 550.868 250.092 551.004 250.344 551.247C250.595 551.49 250.737 551.82 250.737 552.163C250.737 552.507 250.595 552.836 250.344 553.079C250.092 553.322 249.751 553.458 249.396 553.458Z" fill="#002396"/>
<path d="M377.985 264.951C377.765 264.952 377.547 264.91 377.344 264.829C377.141 264.748 376.956 264.629 376.8 264.479C376.645 264.328 376.521 264.15 376.437 263.954C376.353 263.757 376.31 263.547 376.311 263.334V255.318C376.311 254.889 376.487 254.478 376.801 254.174C377.115 253.871 377.541 253.701 377.985 253.701C378.429 253.701 378.855 253.871 379.169 254.174C379.483 254.478 379.659 254.889 379.659 255.318V263.334C379.659 263.547 379.616 263.757 379.532 263.954C379.448 264.15 379.325 264.328 379.17 264.479C379.014 264.629 378.829 264.748 378.626 264.829C378.423 264.91 378.205 264.952 377.985 264.951Z" fill="#FD500E"/>
<path d="M382.124 260.943H373.823C373.379 260.943 372.953 260.773 372.639 260.469C372.325 260.166 372.149 259.755 372.149 259.326C372.149 258.897 372.325 258.486 372.639 258.183C372.953 257.879 373.379 257.709 373.823 257.709H382.124C382.344 257.709 382.562 257.751 382.765 257.832C382.968 257.913 383.153 258.033 383.308 258.183C383.464 258.333 383.587 258.511 383.671 258.707C383.755 258.903 383.799 259.114 383.799 259.326C383.799 259.538 383.755 259.749 383.671 259.945C383.587 260.141 383.464 260.319 383.308 260.469C383.153 260.62 382.968 260.739 382.765 260.82C382.562 260.901 382.344 260.943 382.124 260.943Z" fill="#FD500E"/>
<path d="M755.452 581.877C755.231 581.877 755.013 581.835 754.81 581.753C754.606 581.672 754.421 581.553 754.266 581.402C754.11 581.252 753.986 581.073 753.902 580.877C753.818 580.68 753.774 580.47 753.774 580.257V572.24C753.792 571.823 753.976 571.428 754.289 571.138C754.601 570.849 755.017 570.687 755.45 570.687C755.883 570.687 756.299 570.849 756.611 571.138C756.924 571.428 757.108 571.823 757.126 572.24V580.257C757.126 580.686 756.95 581.097 756.636 581.401C756.322 581.705 755.896 581.876 755.452 581.877Z" fill="#FD500E"/>
<path d="M759.602 577.868H751.301C751.075 577.877 750.85 577.842 750.639 577.765C750.427 577.688 750.234 577.57 750.071 577.419C749.908 577.267 749.778 577.086 749.69 576.885C749.601 576.684 749.555 576.468 749.555 576.25C749.555 576.032 749.601 575.816 749.69 575.615C749.778 575.414 749.908 575.233 750.071 575.082C750.234 574.93 750.427 574.813 750.639 574.735C750.85 574.658 751.075 574.623 751.301 574.632H759.602C760.035 574.649 760.444 574.827 760.744 575.129C761.043 575.43 761.211 575.832 761.211 576.25C761.211 576.668 761.043 577.07 760.744 577.372C760.444 577.673 760.035 577.851 759.602 577.868Z" fill="#FD500E"/>
<path d="M798.916 125.172C798.696 125.172 798.478 125.131 798.275 125.049C798.072 124.968 797.887 124.848 797.731 124.698C797.576 124.547 797.453 124.369 797.369 124.172C797.285 123.976 797.242 123.765 797.242 123.553V115.536C797.242 115.107 797.418 114.696 797.732 114.393C798.046 114.09 798.472 113.919 798.916 113.919C799.36 113.919 799.786 114.09 800.1 114.393C800.414 114.696 800.591 115.107 800.591 115.536V123.553C800.591 123.765 800.548 123.976 800.464 124.172C800.38 124.369 800.257 124.547 800.101 124.698C799.946 124.848 799.761 124.968 799.558 125.049C799.354 125.131 799.136 125.172 798.916 125.172Z" fill="#FD500E"/>
<path d="M803.067 121.164H794.766C794.333 121.147 793.924 120.969 793.625 120.667C793.325 120.366 793.157 119.964 793.157 119.546C793.157 119.128 793.325 118.726 793.625 118.424C793.924 118.123 794.333 117.945 794.766 117.927H803.067C803.499 117.945 803.908 118.123 804.208 118.424C804.508 118.726 804.675 119.128 804.675 119.546C804.675 119.964 804.508 120.366 804.208 120.667C803.908 120.969 803.499 121.147 803.067 121.164Z" fill="#FD500E"/>
</g>
<defs>
<clipPath id="clip0_112_4474">
<rect width="922" height="655" fill="white"/>
</clipPath>
</defs>
</svg>
