<svg width="608" height="526" viewBox="0 0 608 526" fill="none" xmlns="http://www.w3.org/2000/svg">
<g clip-path="url(#clip0_24_59)">
<path opacity="0.5" d="M164.636 30.577C109.027 62.0325 150.4 126.752 91.4092 144.038C-26.3326 178.505 -26.3326 289.08 68.4066 349.393C100.464 369.784 48.1488 473.018 82.7676 495.873C118.662 519.569 251 483.015 308.193 483.664C371.371 484.385 446.621 496.647 508.493 498.743C570.365 500.84 702.87 376.294 606.364 296.678C562.335 260.36 515.733 296.793 537.209 171.326C554.027 73.0282 436.061 91.7206 395.059 82.2882C354.057 72.8557 229.487 -6.11226 164.636 30.577Z" fill="#D6D6FF"/>
<path opacity="0.5" d="M236.209 216.099C276.002 176.3 276.002 111.773 236.209 71.9745C196.416 32.1757 131.899 32.1757 92.1061 71.9745C52.3131 111.773 52.3131 176.3 92.106 216.099C131.899 255.898 196.416 255.898 236.209 216.099Z" fill="url(#paint0_linear_24_59)"/>
<path d="M67.2302 231.884C77.5343 246.995 93.2545 241.484 95.9364 252.088C98.6183 262.692 72.139 247.905 68.1606 250.341C64.1822 252.778 55.2583 274.56 63.0948 280.145C70.9314 285.729 102.131 270.733 108.394 274.393C114.657 278.053 118.061 292.772 92.0676 295.417C66.0747 298.063 62.7341 295.904 61.1135 301.289C59.4928 306.675 52.9528 331.736 67.5804 334.993C82.2079 338.25 128.642 309.676 131.434 313.629C134.225 317.582 128.166 332.102 103.846 345.785C79.5261 359.468 62.6453 358.203 63.1158 363.745C63.5863 369.288 66.3153 392.142 79.1759 395.206C92.0364 398.27 147.76 363.98 154.98 366.49C162.2 369 167.286 387.091 160.244 390.511C153.202 393.93 130.011 408.56 111.102 408.476C92.1931 408.392 84.1997 408.753 92.6008 416.753C101.002 424.753 126.253 449.458 151.676 444.418C177.099 439.377 200.572 415.979 201.037 417.339C201.503 418.698 193.65 432.674 195.569 434.593C197.487 436.512 206.976 437.087 217.693 415.859C228.41 394.631 254.445 388.487 255.987 366.318C257.53 344.148 253.049 301.179 244.24 304.4C235.431 307.621 238.103 333.973 217.322 344.195C196.541 354.417 179.681 357.654 190.074 344.499C200.467 331.343 225.31 295.93 218.587 275.188C211.864 254.446 197.555 250.812 194.921 256.642C192.286 262.472 183.712 296.097 164.395 303.046C145.078 309.995 163.088 296.17 172.969 281.305C182.849 266.44 183.022 248.595 179.666 242.248C176.309 235.9 174.438 242.357 169.78 237.176C165.122 231.994 162.147 225.955 157.913 229.474C153.678 232.993 157.683 254.676 146.119 262.341C134.554 270.006 128.866 272.955 128.26 266.001C127.654 259.047 143.499 252.407 142.062 236.109C140.624 219.812 140.326 224.371 134.471 221.391C128.616 218.41 123.89 216.376 123.121 219.592C122.353 222.808 124.569 243.947 117.893 247.68C111.217 251.413 106.188 249.772 111.233 239.523C116.278 229.275 117.235 224.308 112.132 221.961C107.03 219.613 102.801 219.283 103.423 222.379C104.045 225.474 104.27 235.942 101.823 231.963C99.3762 227.984 97.1178 214.186 85.0049 211.759C72.8919 209.333 61.5998 223.639 67.2302 231.884Z" fill="#AFC1FA"/>
<path opacity="0.5" d="M424.073 365.476C508.65 365.476 577.213 296.903 577.213 212.314C577.213 127.725 508.65 59.1515 424.073 59.1515C339.497 59.1515 270.934 127.725 270.934 212.314C270.934 296.903 339.497 365.476 424.073 365.476Z" fill="url(#paint1_linear_24_59)"/>
<path opacity="0.5" d="M350.594 500.784C384.432 466.941 384.432 412.072 350.594 378.229C316.757 344.387 261.895 344.387 228.058 378.229C194.22 412.072 194.22 466.942 228.058 500.784C261.895 534.627 316.757 534.627 350.594 500.784Z" fill="url(#paint2_linear_24_59)"/>
<path d="M443.955 163.557C433.823 184.09 443.233 224.606 431.732 222.379C420.231 220.151 429.991 170.981 427.304 169.465C424.617 167.949 401.165 169.151 395.696 179.818C390.228 190.484 407.067 243.016 401.447 247.487C395.827 251.957 376.354 207.848 373.123 202.05C369.892 196.251 339.842 213.867 334.682 222.002C329.522 230.138 335.837 264.15 356.901 296.85C377.964 329.55 377.969 343.85 351.087 323.73C324.206 303.611 322.407 242.268 316.505 239.931C310.603 237.594 277.928 249.343 270.651 274.534C263.374 299.726 275.958 319.867 286.115 331.004C296.273 342.14 317.519 352.399 314.869 355.855C312.218 359.311 286.481 367.029 271.587 357.779C256.693 348.53 254.204 367.515 271.587 381.418C288.97 395.321 325 399.938 360.984 394.61C396.967 389.282 383.882 412.764 407.94 420.816C431.999 428.868 491.116 419.582 478.516 404.126C477.69 403.112 475.604 403.263 442.387 398.897C408.097 394.39 411.061 378.113 417.099 376.702C423.137 375.29 490.661 387.609 506.025 371.918C521.39 356.226 535.118 309.028 522.331 306.345C509.544 303.663 466.984 325.398 444.995 318.941C423.007 312.484 424.283 307.961 442.904 303.041C461.526 298.121 517.312 287.093 520.047 269.944C522.781 252.794 514.777 243.889 505.152 246.389C495.528 248.888 455.603 262.195 456.978 248.956C458.352 235.717 490.687 245.17 494.299 220.439C497.912 195.708 485.6 211.027 474.067 213.119C462.535 215.21 452.424 214.081 463.293 202.086C474.162 190.092 482.536 182.777 470.889 165.021C459.241 147.264 444.938 161.565 443.955 163.557Z" fill="#AFC1FA"/>
<path d="M380.604 290.612C380.391 290.687 380.157 290.68 379.948 290.595C379.739 290.509 379.569 290.35 379.469 290.147C379.344 289.891 367.147 264.166 385.152 234.64C391.519 224.183 398.284 214.248 404.824 204.654C416.655 187.279 426.87 172.278 430.357 160.629C433.076 151.562 433.29 142.177 433.494 133.895C433.682 125.717 433.844 118.653 436.516 114.476C436.648 114.268 436.858 114.121 437.098 114.067C437.339 114.014 437.591 114.058 437.799 114.191C438.007 114.323 438.154 114.533 438.207 114.774C438.261 115.014 438.216 115.266 438.084 115.474C435.695 119.218 435.538 126.036 435.355 133.937C435.162 142.334 434.942 151.855 432.156 161.162C428.585 173.083 418.297 188.199 406.377 205.699C399.853 215.284 393.104 225.202 386.757 235.602C369.275 264.271 381.038 289.086 381.158 289.331C381.212 289.441 381.244 289.56 381.252 289.682C381.259 289.803 381.243 289.925 381.203 290.041C381.163 290.156 381.1 290.262 381.019 290.353C380.938 290.444 380.839 290.518 380.729 290.571L380.604 290.612Z" fill="#94B5FF"/>
<path d="M434.346 126.407C434.346 126.407 420.754 117.252 426.902 103.469C433.049 89.6867 441.158 92.5206 442.151 93.6552C445.194 97.1427 442.068 102.638 442.068 102.638C442.068 102.638 448.979 94.6068 452.121 100.144C455.263 105.681 452.68 110.601 446.642 114.784C440.604 118.967 434.346 126.407 434.346 126.407Z" fill="#94B5FF"/>
<path d="M432.778 153.424C429.876 147.641 428.481 136.263 421.01 134.763C413.539 133.262 415.374 139.991 415.374 139.991C415.374 139.991 405.478 139.991 404.396 146.569C403.314 153.147 417.857 150.496 421.355 150.679C424.852 150.862 432.778 153.424 432.778 153.424Z" fill="#94B5FF"/>
<path d="M432.391 155.102C432.391 155.102 450.192 133.978 455.806 138.167C461.421 142.355 456.063 145.769 456.063 145.769C456.063 145.769 464.088 144.383 462.932 150.015C461.777 155.646 456.753 154.851 449.193 151.907C441.634 148.964 432.391 155.102 432.391 155.102Z" fill="#94B5FF"/>
<path d="M421.726 181.12C419.969 175.101 416.89 170.662 407.82 168.346C398.75 166.03 393.741 168.064 393.093 170.908C392.445 173.753 397.15 175.551 397.15 175.551C397.15 175.551 389.481 176.074 388.817 181.951C388.153 187.828 403.455 180.246 409.263 179.133C415.071 178.019 421.726 181.12 421.726 181.12Z" fill="#94B5FF"/>
<path d="M421.726 181.12C428.022 176.082 435.388 172.553 443.26 170.804C456.329 167.923 452.173 176.717 452.173 176.717C452.173 176.717 460.313 179.216 457.291 186.071C454.27 192.926 444.535 184.184 438.424 181.888C432.312 179.593 421.726 181.12 421.726 181.12Z" fill="#94B5FF"/>
<path d="M405.347 204.69C405.347 204.69 407.862 197.773 395.414 195.127C382.967 192.481 376.029 196.518 373.818 200.063C371.607 203.608 377.974 206.395 377.974 206.395C377.974 206.395 368.966 207.545 369.306 213.971C369.646 220.397 379.877 214.975 388.299 209.788C393.446 206.645 399.32 204.889 405.347 204.69Z" fill="#94B5FF"/>
<path d="M406.116 205.004C406.116 205.004 416.075 197.386 425.861 198.73C435.648 200.074 446.318 205.396 446.475 212.701C446.632 220.005 437.269 215.639 437.269 215.639C437.269 215.639 442.925 225.375 434.77 228.036C426.614 230.698 433.661 216.533 424.084 210.144C414.507 203.754 406.116 205.004 406.116 205.004Z" fill="#94B5FF"/>
<path d="M379.945 246.833C375.559 239.597 370.326 245.74 365.307 241.667C360.288 237.594 358.066 232.073 353.152 234.18C348.238 236.287 352.002 240.548 352.002 240.548C352.002 240.548 335.587 243.445 341.118 250.446C346.649 257.447 358.992 251.298 366.562 248.595C374.132 245.892 379.945 246.833 379.945 246.833Z" fill="#94B5FF"/>
<path d="M380.41 247.257C380.41 247.257 382.643 243.785 393.234 246.504C403.826 249.223 412.232 234.29 417.403 235.769C422.573 237.249 419.285 244.276 419.285 244.276C419.285 244.276 432.522 245.913 424.199 255.659C415.876 265.405 394.463 249.594 390.27 248.339C386.077 247.084 380.41 247.257 380.41 247.257Z" fill="#94B5FF"/>
<path d="M185.96 296.097C186.2 296.18 186.462 296.172 186.696 296.076C186.931 295.98 187.123 295.801 187.236 295.574C187.377 295.287 201.074 266.399 180.858 233.249C173.706 221.521 166.11 210.369 158.765 199.582C145.486 180.074 134.011 163.227 130.095 150.15C127.047 139.97 126.807 129.429 126.592 120.128C126.378 110.946 126.2 103.02 123.205 98.3243C123.046 98.1132 122.814 97.9697 122.555 97.9227C122.295 97.8757 122.027 97.9286 121.805 98.0709C121.583 98.2131 121.422 98.4342 121.356 98.6897C121.29 98.9452 121.323 99.2163 121.448 99.4485C124.13 103.631 124.308 111.307 124.512 120.175C124.726 129.586 124.972 140.3 128.103 150.747C132.113 164.132 143.667 181.104 157.045 200.753C164.364 211.519 171.955 222.651 179.075 234.331C198.706 266.524 185.5 294.382 185.348 294.659C185.229 294.908 185.213 295.193 185.303 295.454C185.393 295.714 185.582 295.928 185.829 296.05C185.871 296.072 185.915 296.087 185.96 296.097Z" fill="#94B5FF"/>
<path d="M125.599 111.725C125.599 111.725 140.859 101.441 133.964 85.9691C127.068 70.4976 117.956 73.6766 116.843 74.9472C113.424 78.8634 116.937 85.0332 116.937 85.0332C116.937 85.0332 109.173 76.0138 105.65 82.2306C102.126 88.4475 105.022 94.0003 111.803 98.6852C118.583 103.37 125.599 111.725 125.599 111.725Z" fill="#94B5FF"/>
<path d="M127.408 142.057C130.665 135.563 132.239 122.794 140.624 121.1C149.01 119.406 146.95 126.967 146.95 126.967C146.95 126.967 158.064 126.967 159.272 134.35C160.48 141.732 144.158 138.763 140.232 138.967C136.306 139.17 127.408 142.057 127.408 142.057Z" fill="#94B5FF"/>
<path d="M127.816 143.944C127.816 143.944 107.83 120.227 101.52 124.928C95.2097 129.628 101.232 133.461 101.232 133.461C101.232 133.461 92.2247 131.892 93.5212 138.234C94.8177 144.577 100.458 143.662 108.948 140.326C117.439 136.99 127.816 143.944 127.816 143.944Z" fill="#94B5FF"/>
<path d="M139.793 173.151C141.759 166.396 145.22 161.439 155.403 158.814C165.587 156.19 171.212 158.495 171.944 161.69C172.676 164.885 167.386 166.919 167.386 166.919C167.386 166.919 175.991 167.51 176.743 174.108C177.496 180.707 160.328 172.194 153.783 170.94C147.237 169.685 139.793 173.151 139.793 173.151Z" fill="#94B5FF"/>
<path d="M139.793 173.151C132.721 167.496 124.448 163.536 115.609 161.575C100.94 158.333 105.603 168.215 105.603 168.215C105.603 168.215 96.4593 171.018 99.8522 178.714C103.245 186.411 114.177 176.623 121.035 174.009C127.894 171.394 139.793 173.151 139.793 173.151Z" fill="#94B5FF"/>
<path d="M158.179 199.624C158.179 199.624 155.356 191.854 169.33 188.884C183.304 185.914 191.099 190.453 193.582 194.427C196.066 198.4 188.919 201.537 188.919 201.537C188.919 201.537 199.03 202.829 198.648 210.044C198.267 217.26 186.781 211.169 177.324 205.339C171.543 201.812 164.947 199.843 158.179 199.624Z" fill="#94B5FF"/>
<path d="M157.327 199.974C157.327 199.974 146.145 191.42 135.151 192.942C124.156 194.463 112.185 200.424 112.007 208.628C111.829 216.831 122.342 211.927 122.342 211.927C122.342 211.927 115.99 222.86 125.15 225.845C134.309 228.831 126.394 212.962 137.147 205.757C147.901 198.552 157.327 199.974 157.327 199.974Z" fill="#94B5FF"/>
<path d="M186.708 246.959C191.627 238.833 197.503 245.735 203.123 241.16C208.743 236.585 211.258 230.384 216.773 232.752C222.288 235.121 218.064 239.9 218.064 239.9C218.064 239.9 236.498 243.152 230.287 251.016C224.076 258.88 210.217 251.968 201.722 248.924C193.227 245.881 186.708 246.959 186.708 246.959Z" fill="#94B5FF"/>
<path d="M186.18 247.419C186.18 247.419 183.67 243.518 171.782 246.572C159.894 249.625 150.453 232.852 144.644 234.546C138.836 236.24 142.553 244.098 142.553 244.098C142.553 244.098 127.69 245.934 137.033 256.877C146.375 267.821 170.418 250.08 175.128 248.663C179.838 247.246 186.18 247.419 186.18 247.419Z" fill="#94B5FF"/>
<path d="M406.33 102.026V455.021C406.331 455.348 406.267 455.672 406.142 455.975C406.017 456.277 405.834 456.552 405.603 456.783C405.371 457.014 405.097 457.197 404.795 457.322C404.493 457.447 404.169 457.511 403.842 457.51H147.86C147.532 457.512 147.207 457.448 146.903 457.324C146.6 457.199 146.324 457.016 146.091 456.785C145.859 456.554 145.674 456.279 145.548 455.977C145.421 455.674 145.356 455.349 145.355 455.021V102.026C145.354 101.741 145.377 101.456 145.423 101.174C145.629 99.6706 146.373 98.2928 147.517 97.2959C148.661 96.299 150.127 95.7505 151.645 95.7519H400.083C401.742 95.7588 403.331 96.4229 404.502 97.5988C405.673 98.7747 406.33 100.367 406.33 102.026Z" fill="#FAFBFF"/>
<path d="M406.335 99.14V119.349H145.397V99.14C145.399 98.2405 145.757 97.3782 146.393 96.7421C147.029 96.106 147.891 95.748 148.79 95.7466H402.943C403.842 95.748 404.704 96.106 405.34 96.7421C405.976 97.3782 406.334 98.2405 406.335 99.14Z" fill="#5372DB"/>
<path d="M162.058 110.068C163.447 110.068 164.573 108.942 164.573 107.553C164.573 106.164 163.447 105.038 162.058 105.038C160.67 105.038 159.544 106.164 159.544 107.553C159.544 108.942 160.67 110.068 162.058 110.068Z" fill="#B1BFF0"/>
<path d="M169.126 110.068C170.515 110.068 171.641 108.942 171.641 107.553C171.641 106.164 170.515 105.038 169.126 105.038C167.738 105.038 166.612 106.164 166.612 107.553C166.612 108.942 167.738 110.068 169.126 110.068Z" fill="#415AAD"/>
<path d="M176.195 110.068C177.583 110.068 178.709 108.942 178.709 107.553C178.709 106.164 177.583 105.038 176.195 105.038C174.806 105.038 173.68 106.164 173.68 107.553C173.68 108.942 174.806 110.068 176.195 110.068Z" fill="#415AAD"/>
<path d="M374.926 344.499H176.749C174.603 344.499 172.864 346.238 172.864 348.384V435.513C172.864 437.659 174.603 439.398 176.749 439.398H374.926C377.072 439.398 378.811 437.659 378.811 435.513V348.384C378.811 346.238 377.072 344.499 374.926 344.499Z" fill="#95A9F0"/>
<path d="M260.807 419.341C260.586 419.34 260.37 419.272 260.189 419.146C260.007 419.02 259.867 418.842 259.788 418.635C259.675 418.358 259.675 418.047 259.787 417.769C259.899 417.491 260.115 417.267 260.389 417.145L273.642 411.535C273.676 411.522 273.707 411.504 273.736 411.483L249.562 363.379C249.513 363.331 249.454 363.294 249.389 363.27C249.324 363.247 249.255 363.238 249.186 363.243H236.921C236.632 363.224 236.36 363.095 236.162 362.883C235.964 362.671 235.854 362.391 235.854 362.101C235.854 361.81 235.964 361.531 236.162 361.319C236.36 361.107 236.632 360.978 236.921 360.958H249.186C249.662 360.952 250.131 361.076 250.542 361.316C250.952 361.557 251.29 361.905 251.517 362.323L275.723 410.479C275.86 410.745 275.94 411.036 275.96 411.335C275.98 411.633 275.938 411.933 275.837 412.215C275.721 412.53 275.539 412.819 275.305 413.061C275.071 413.303 274.79 413.494 274.478 413.621L261.226 419.252C261.094 419.311 260.951 419.341 260.807 419.341Z" fill="white"/>
<path d="M298.725 419.817L275.252 413.25L275.843 410.991L299.316 417.558L298.725 419.817Z" fill="white"/>
<path d="M306.651 402.96H270.495C270.198 402.94 269.921 402.808 269.718 402.591C269.515 402.374 269.402 402.089 269.402 401.791C269.402 401.494 269.515 401.208 269.718 400.991C269.921 400.774 270.198 400.643 270.495 400.623H306.651C306.713 400.629 306.777 400.62 306.835 400.596C306.893 400.573 306.945 400.535 306.985 400.487L313.583 380.163C313.583 380.195 313.494 380.101 313.316 380.08L256.165 373.235C255.862 373.194 255.588 373.034 255.402 372.791C255.216 372.549 255.133 372.242 255.172 371.939C255.183 371.787 255.224 371.639 255.294 371.504C255.363 371.369 255.459 371.249 255.575 371.151C255.692 371.054 255.827 370.981 255.972 370.936C256.118 370.892 256.27 370.877 256.421 370.893L313.583 377.748C313.973 377.789 314.348 377.919 314.681 378.127C315.013 378.336 315.294 378.617 315.501 378.95C315.679 379.239 315.792 379.563 315.832 379.9C315.871 380.237 315.837 380.578 315.731 380.9L309.124 401.235C308.947 401.747 308.613 402.191 308.168 402.501C307.724 402.811 307.193 402.972 306.651 402.96Z" fill="white"/>
<path d="M309.458 395.441H266.981C266.773 395.441 266.574 395.359 266.427 395.212C266.28 395.064 266.197 394.865 266.197 394.657C266.197 394.449 266.28 394.249 266.427 394.102C266.574 393.955 266.773 393.873 266.981 393.873H309.458C309.666 393.873 309.865 393.955 310.012 394.102C310.16 394.249 310.242 394.449 310.242 394.657C310.242 394.865 310.16 395.064 310.012 395.212C309.865 395.359 309.666 395.441 309.458 395.441Z" fill="white"/>
<path d="M312.584 387.583H312.537L263.202 385.873C263.091 385.869 262.982 385.844 262.882 385.799C262.781 385.753 262.69 385.688 262.614 385.608C262.539 385.527 262.479 385.432 262.44 385.329C262.401 385.226 262.383 385.115 262.386 385.005C262.389 384.894 262.415 384.786 262.46 384.685C262.506 384.584 262.571 384.493 262.651 384.417C262.732 384.342 262.826 384.282 262.93 384.243C263.033 384.204 263.143 384.186 263.254 384.189L312.594 385.899C312.818 385.902 313.03 385.994 313.186 386.155C313.341 386.315 313.426 386.531 313.423 386.754C313.42 386.977 313.328 387.19 313.167 387.345C313.007 387.501 312.792 387.586 312.568 387.583H312.584Z" fill="white"/>
<path d="M278.65 402.034C278.432 402.03 278.224 401.94 278.073 401.783C277.921 401.627 277.837 401.416 277.84 401.198V375.055C277.84 374.84 277.925 374.634 278.077 374.482C278.229 374.33 278.435 374.244 278.65 374.244C278.865 374.244 279.071 374.33 279.223 374.482C279.375 374.634 279.46 374.84 279.46 375.055V401.198C279.463 401.416 279.38 401.627 279.228 401.783C279.076 401.94 278.868 402.03 278.65 402.034Z" fill="white"/>
<path d="M294.961 402.024H294.888C294.679 402 294.487 401.895 294.356 401.73C294.224 401.565 294.164 401.355 294.187 401.146L296.367 377.214C296.373 377.11 296.4 377.008 296.446 376.915C296.492 376.821 296.557 376.738 296.636 376.67C296.715 376.602 296.807 376.551 296.906 376.52C297.006 376.488 297.111 376.477 297.214 376.487C297.424 376.511 297.615 376.617 297.747 376.782C297.878 376.946 297.938 377.156 297.915 377.366L295.735 401.297C295.718 401.492 295.63 401.675 295.487 401.809C295.344 401.943 295.157 402.02 294.961 402.024Z" fill="white"/>
<path d="M259.171 422.928C261.96 422.928 264.221 420.95 264.221 418.51C264.221 416.07 261.96 414.092 259.171 414.092C256.382 414.092 254.121 416.07 254.121 418.51C254.121 420.95 256.382 422.928 259.171 422.928Z" fill="white"/>
<path d="M301.616 422.928C304.405 422.928 306.666 420.95 306.666 418.51C306.666 416.07 304.405 414.092 301.616 414.092C298.827 414.092 296.566 416.07 296.566 418.51C296.566 420.95 298.827 422.928 301.616 422.928Z" fill="white"/>
<path d="M264.99 134.7H176.665C174.667 134.7 173.047 136.32 173.047 138.318V222.656C173.047 224.654 174.667 226.274 176.665 226.274H264.99C266.988 226.274 268.607 224.654 268.607 222.656V138.318C268.607 136.32 266.988 134.7 264.99 134.7Z" fill="#CFD9FF"/>
<path d="M375.01 134.7H286.685C284.687 134.7 283.068 136.32 283.068 138.318V222.656C283.068 224.654 284.687 226.274 286.685 226.274H375.01C377.008 226.274 378.628 224.654 378.628 222.656V138.318C378.628 136.32 377.008 134.7 375.01 134.7Z" fill="#CFD9FF"/>
<path d="M264.99 238.561H176.665C174.667 238.561 173.047 240.181 173.047 242.18V326.517C173.047 328.516 174.667 330.136 176.665 330.136H264.99C266.988 330.136 268.607 328.516 268.607 326.517V242.18C268.607 240.181 266.988 238.561 264.99 238.561Z" fill="#CFD9FF"/>
<path d="M375.01 238.561H286.685C284.687 238.561 283.068 240.181 283.068 242.18V326.517C283.068 328.516 284.687 330.136 286.685 330.136H375.01C377.008 330.136 378.628 328.516 378.628 326.517V242.18C378.628 240.181 377.008 238.561 375.01 238.561Z" fill="#CFD9FF"/>
<path d="M330.667 162.271C337.741 162.271 339.508 155.285 339.837 153.523C339.858 153.414 339.918 153.318 340.008 153.252C340.097 153.187 340.208 153.159 340.318 153.173C345.017 153.769 349.637 154.872 354.099 156.462C359.258 158.339 361.261 159.175 361.993 159.51C362.098 159.557 362.181 159.644 362.223 159.751C362.265 159.859 362.263 159.979 362.217 160.085L356.263 173.794C356.218 173.898 356.135 173.98 356.03 174.024C355.926 174.068 355.809 174.07 355.703 174.03L347.741 171.065C347.675 171.04 347.603 171.031 347.532 171.039C347.461 171.048 347.393 171.074 347.335 171.114C347.276 171.155 347.228 171.209 347.195 171.273C347.162 171.336 347.145 171.407 347.146 171.478V207.362C347.146 207.421 347.134 207.478 347.112 207.532C347.089 207.586 347.057 207.635 347.015 207.676C346.974 207.718 346.925 207.75 346.871 207.773C346.817 207.795 346.76 207.807 346.701 207.807H330.965C330.907 207.807 330.85 207.795 330.796 207.773C330.742 207.75 330.694 207.718 330.653 207.676C330.612 207.635 330.58 207.586 330.558 207.532C330.536 207.478 330.526 207.42 330.526 207.362L330.667 162.271Z" fill="#9C96FF"/>
<path d="M331.023 162.271C323.949 162.271 322.183 155.285 321.848 153.523C321.83 153.414 321.77 153.317 321.681 153.251C321.592 153.186 321.481 153.158 321.372 153.173C316.674 153.769 312.053 154.872 307.592 156.462C302.432 158.339 300.429 159.175 299.697 159.51C299.592 159.557 299.509 159.644 299.467 159.751C299.425 159.859 299.427 159.979 299.473 160.085L305.427 173.794C305.472 173.898 305.556 173.98 305.66 174.024C305.764 174.068 305.881 174.07 305.987 174.03L313.949 171.065C314.015 171.041 314.087 171.033 314.157 171.042C314.228 171.051 314.295 171.077 314.353 171.118C314.412 171.158 314.459 171.212 314.493 171.275C314.526 171.337 314.544 171.407 314.545 171.478V207.362C314.545 207.48 314.591 207.593 314.675 207.676C314.758 207.76 314.871 207.807 314.989 207.807H330.725C330.842 207.805 330.954 207.758 331.036 207.675C331.118 207.591 331.164 207.479 331.164 207.362L331.023 162.271Z" fill="#9C96FF"/>
<path d="M220.961 158.265C214.907 158.265 212.784 152.153 212.199 149.826C212.173 149.725 212.124 149.632 212.056 149.553C211.987 149.474 211.901 149.412 211.805 149.373C211.708 149.333 211.604 149.317 211.5 149.325C211.396 149.333 211.295 149.365 211.205 149.419L193.222 160.263C193.08 160.348 192.975 160.483 192.926 160.641C192.878 160.8 192.89 160.97 192.96 161.12L196.923 169.627C196.985 169.76 197.088 169.869 197.217 169.938C197.347 170.007 197.495 170.032 197.639 170.009L206.527 168.581C206.643 168.561 206.763 168.573 206.874 168.615C206.984 168.657 207.081 168.729 207.154 168.822C208.372 170.344 213.704 177.188 213.375 179.881C213.046 182.573 199.83 205.543 196.871 210.646C196.812 210.748 196.781 210.863 196.781 210.981C196.781 211.098 196.812 211.214 196.871 211.315C196.93 211.417 197.014 211.502 197.116 211.56C197.218 211.619 197.333 211.65 197.451 211.65H222.884L220.961 158.265Z" fill="#9C96FF"/>
<path d="M220.684 158.265C226.743 158.265 228.865 152.153 229.451 149.826C229.476 149.725 229.526 149.632 229.594 149.553C229.663 149.474 229.749 149.412 229.845 149.373C229.942 149.333 230.046 149.317 230.15 149.325C230.254 149.333 230.355 149.365 230.444 149.419L248.428 160.263C248.57 160.348 248.675 160.483 248.723 160.641C248.772 160.8 248.76 160.97 248.689 161.12L244.727 169.627C244.664 169.759 244.561 169.868 244.432 169.937C244.303 170.005 244.155 170.031 244.01 170.009L235.123 168.581C235.006 168.561 234.885 168.573 234.774 168.615C234.662 168.657 234.565 168.729 234.49 168.822C233.272 170.344 227.945 177.188 228.274 179.881C228.604 182.573 241.82 205.543 244.779 210.646C244.838 210.748 244.869 210.864 244.868 210.982C244.868 211.1 244.837 211.216 244.777 211.318C244.718 211.42 244.633 211.504 244.53 211.562C244.427 211.621 244.311 211.651 244.193 211.65H218.749L220.684 158.265Z" fill="#9C96FF"/>
<path d="M219.654 254.676H236.456C236.767 254.674 237.072 254.764 237.332 254.935C237.591 255.106 237.794 255.351 237.915 255.638C239.054 258.352 242.071 266.765 242.317 280.061C242.568 293.723 241.004 308.149 240.471 312.614C240.428 313 240.244 313.356 239.955 313.614C239.665 313.871 239.29 314.013 238.903 314.01H230.81C230.442 314.018 230.084 313.895 229.797 313.665C229.511 313.435 229.314 313.111 229.242 312.75L220.642 271.8L219.654 254.676Z" fill="#9C96FF"/>
<path d="M221.996 254.676H205.193C204.882 254.674 204.578 254.764 204.318 254.935C204.058 255.106 203.855 255.351 203.735 255.638C202.595 258.352 199.579 266.765 199.333 280.061C199.082 293.723 200.645 308.149 201.173 312.614C201.216 313 201.4 313.356 201.689 313.614C201.979 313.871 202.354 314.013 202.742 314.01H210.834C211.202 314.018 211.561 313.895 211.847 313.665C212.134 313.435 212.33 313.111 212.403 312.75L221.003 271.8L221.996 254.676Z" fill="#9C96FF"/>
<path d="M338.634 269.436C342.958 269.436 343.454 275.219 349.399 276.668C355.343 278.116 364.659 275.862 365.302 277.63C365.945 279.397 365.621 292.573 361.93 295.789C358.239 299.004 320.159 300.772 311.162 297.556C302.165 294.34 294.616 289.52 296.383 286.147C298.15 282.775 312.286 286.79 324.655 279.721C337.024 272.652 337.667 269.436 338.634 269.436Z" fill="#9C96FF"/>
<path d="M262.062 334.444C268.166 334.444 273.114 329.495 273.114 323.391C273.114 317.286 268.166 312.337 262.062 312.337C255.958 312.337 251.01 317.286 251.01 323.391C251.01 329.495 255.958 334.444 262.062 334.444Z" fill="#3DBD00"/>
<path d="M254.2 322.585C254.182 322.586 254.165 322.593 254.15 322.604C254.136 322.614 254.126 322.629 254.12 322.646C254.114 322.663 254.114 322.681 254.119 322.698C254.124 322.716 254.134 322.731 254.147 322.742C255.159 323.726 256.076 324.803 256.887 325.958C259.108 329.095 259.893 330.7 260.023 330.7C260.154 330.7 261.069 327.945 262.852 324.823C263.897 323.009 268.372 317.226 269.365 316.086C269.376 316.07 269.381 316.051 269.38 316.032C269.379 316.013 269.372 315.994 269.36 315.98C269.347 315.965 269.33 315.955 269.312 315.95C269.293 315.946 269.273 315.948 269.256 315.956C269.256 315.956 263.505 320.17 261.9 321.968C261.086 322.815 260.36 323.744 259.736 324.74C259.72 324.753 259.699 324.761 259.678 324.761C259.657 324.761 259.637 324.753 259.621 324.74C258.552 324.038 257.421 323.434 256.244 322.936C255.593 322.68 254.898 322.561 254.2 322.585Z" fill="white"/>
<path d="M372.046 230.112C378.149 230.112 383.097 225.163 383.097 219.059C383.097 212.954 378.149 208.005 372.046 208.005C365.942 208.005 360.994 212.954 360.994 219.059C360.994 225.163 365.942 230.112 372.046 230.112Z" fill="#3DBD00"/>
<path d="M364.178 218.253C364.16 218.253 364.142 218.258 364.127 218.268C364.112 218.278 364.101 218.293 364.095 218.31C364.089 218.327 364.089 218.345 364.094 218.362C364.1 218.38 364.111 218.395 364.126 218.405C365.138 219.39 366.057 220.466 366.87 221.621C369.092 224.758 369.876 226.363 370.007 226.363C370.138 226.363 371.052 223.607 372.83 220.486C373.876 218.672 378.356 212.889 379.344 211.754C379.361 211.74 379.372 211.72 379.375 211.698C379.377 211.676 379.371 211.654 379.357 211.637C379.343 211.619 379.323 211.608 379.301 211.606C379.279 211.603 379.257 211.61 379.239 211.623C379.239 211.623 373.488 215.806 371.878 217.631C371.056 218.48 370.322 219.41 369.688 220.408C369.673 220.422 369.654 220.43 369.633 220.43C369.612 220.43 369.593 220.422 369.578 220.408C368.51 219.706 367.379 219.104 366.201 218.609C365.558 218.353 364.869 218.232 364.178 218.253Z" fill="white"/>
<path d="M428.214 293.786C428.062 293.948 427.916 294.089 427.765 294.241C427.765 294.241 425.004 293.033 423.922 291.752C423.796 291.557 423.706 291.341 423.655 291.114C423.285 289.586 423.024 288.032 422.876 286.466C422.197 280.641 421.778 272.134 422.51 272.134C423.525 272.134 432.647 270.398 434.953 276.04C435.109 276.389 435.228 276.754 435.308 277.128C436.809 283.815 432.067 289.917 428.214 293.786Z" fill="#5B3702"/>
<g style="mix-blend-mode:multiply">
<path d="M428.214 293.786C426.425 293.465 424.809 292.518 423.655 291.114C422.772 290.156 422.181 288.967 421.951 287.684C421.909 287.161 422.265 286.811 422.876 286.466C425.056 285.258 430.535 284.578 433.133 280.861C434.791 278.487 435.225 277.755 434.953 276.04C435.109 276.389 435.228 276.754 435.308 277.128C436.808 283.815 432.067 289.917 428.214 293.786Z" fill="#CCCCCC"/>
</g>
<path d="M426.013 285.002C428.439 282.44 429.991 283.183 430.661 284.599C431.33 286.016 429.583 289.828 428.371 290.393C427.158 290.957 424.664 290.733 424.596 290.393C424.528 290.053 426.013 285.002 426.013 285.002Z" fill="#FCD9BB"/>
<g style="mix-blend-mode:multiply">
<path d="M427.148 291.501C426.975 294.534 424.534 298.414 422.406 300.108C422.186 298.607 421.909 297.237 421.564 296.678C420.712 295.297 425.877 290.738 426.18 290.476C426.535 290.786 426.859 291.129 427.148 291.501Z" fill="#E6E6E6"/>
</g>
<path d="M408.291 278.655C407.569 284.406 407.214 293.755 411.882 298.607C416.551 303.459 425.631 294.382 426.081 293.661C426.531 292.939 427.205 281.802 427.127 280.814C427.048 279.826 408.291 278.655 408.291 278.655Z" fill="#FCD9BB"/>
<path d="M427.027 283.753L426.985 284.092C426.985 284.092 427.184 282.252 422.196 281.081C417.209 279.909 409.346 280.364 408.134 280.317C406.921 280.27 403.91 276.406 405.305 271.601C406.701 266.796 408.045 265.327 408.311 265.222C408.578 265.118 411.234 268.882 412.4 269.264C413.565 269.646 424.946 270.613 426.551 272.401C428.156 274.189 429.746 277.478 429.835 278.597C429.923 279.716 427.027 283.753 427.027 283.753Z" fill="#5B3702"/>
<path d="M408.332 265.222C410.533 265.714 414.355 266.927 416.603 267.063C418.851 267.199 426.347 267.016 430.08 269.353C432.325 270.79 433.976 272.991 434.728 275.549C433.949 274.471 432.884 273.632 431.654 273.128C429.563 272.276 424.952 271.789 421.925 271.622C418.265 271.418 413.858 270.974 411.208 269.264C408.557 267.554 408.332 265.222 408.332 265.222Z" fill="#704402"/>
<path d="M409.033 359.724C408.917 359.963 408.784 360.194 408.636 360.415C408.483 360.661 408.308 360.892 408.113 361.105C407.439 361.892 406.632 362.556 405.729 363.066C404.66 363.609 403.524 364.012 402.352 364.263C397.223 365.575 389.115 366.354 388.953 365.309C388.759 363.96 392.121 362.548 395.749 361.471C398.907 360.55 401.974 359.344 404.913 357.868C405.468 357.586 405.959 357.293 406.393 357.016C406.393 357.016 406.79 357.1 407.297 357.241C408.107 357.455 409.195 357.764 409.357 358.03C409.519 358.297 409.446 358.862 409.033 359.724Z" fill="#E3C5A8"/>
<path d="M443.202 457.589C443.171 458.038 441.833 460.381 440.107 463.173C438.382 465.965 436.359 469.05 434.759 471.303C434.086 472.358 433.303 473.338 432.422 474.226C431.56 474.864 423.969 475.24 417.392 475.272C412.227 475.303 407.684 475.12 407.459 474.691C406.984 473.698 410.298 470.064 416.483 467.371C422.667 464.679 424.983 463.084 425.046 461.369C425.109 459.654 425.046 454.368 425.454 453.777C425.862 453.186 433.405 450.99 433.405 450.99C436.27 452.459 442.815 456.167 443.16 457.474C443.183 457.508 443.197 457.548 443.202 457.589Z" fill="#821E1D"/>
<path d="M443.72 462.389C443.699 462.433 443.675 462.475 443.646 462.514C442.371 464.605 435.324 471.152 434.759 471.303C434.738 471.303 434.728 471.303 434.728 471.303C434.618 471.089 434.205 468.611 435.277 465.599C435.569 464.766 435.949 463.967 436.411 463.215C438.837 459.257 443.181 457.463 443.181 457.463C444.896 459.346 444.948 460.318 443.72 462.389Z" fill="#AB2625"/>
<path d="M415.029 369.617C407.344 371.599 383.625 395.588 386.051 400.607C388.477 405.627 426.959 372.853 426.687 370.872C426.416 368.89 415.029 369.617 415.029 369.617Z" fill="#821E1D"/>
<path d="M453.381 469.421C453.278 469.415 453.177 469.389 453.085 469.344C452.992 469.299 452.91 469.235 452.842 469.158C452.773 469.081 452.721 468.991 452.688 468.893C452.655 468.796 452.642 468.693 452.649 468.59L450.249 393.548L455.367 393.627L454.097 468.569C454.109 468.775 454.042 468.979 453.908 469.137C453.775 469.296 453.587 469.397 453.381 469.421Z" fill="#FFA8C2"/>
<path d="M458.081 392.393C459.571 394.537 457.919 397.888 454.73 398.296C451.541 398.704 447.118 397.742 444.546 396.806C442.57 396.084 438.957 394.526 438.272 394.458C437.587 394.39 439.213 392.111 445.304 392.095C451.394 392.079 458.081 392.393 458.081 392.393Z" fill="#FA96B5"/>
<path d="M460.585 317.838C463.146 313.132 478.647 298.832 484.037 301.661C489.427 304.489 484.56 321.88 479.185 337.116C473.811 352.352 472.175 379.17 471.5 383.217C470.826 387.264 470.559 389.549 461.259 391.582C451.959 393.616 431.46 396.288 427.278 393.47C423.096 390.652 460.585 317.838 460.585 317.838Z" fill="#FF6692"/>
<g style="mix-blend-mode:multiply">
<path d="M426.348 392.921C443.736 391.98 465.034 383.483 466.513 374.725C467.993 365.967 465.259 341.518 458.786 338.125C452.314 334.732 426.348 392.921 426.348 392.921Z" fill="#E6E6E6"/>
</g>
<path d="M460.046 372.263C460.053 372.824 459.928 373.379 459.68 373.884C454.641 384.686 400.605 404.487 400.605 404.487C400.605 404.487 403.559 406.871 408.693 411.226C413.827 415.582 422.286 429.579 424.868 434.609C427.451 439.639 437.127 448.517 436.589 450.295C436.05 452.072 423.734 457.427 422.84 456.282C421.946 455.136 416.639 447.037 401.813 433.171C386.987 419.305 383.077 407.551 384.974 400.283C386.872 393.015 410.031 377.277 420.001 371.086C420.001 371.086 432.548 362.632 435.763 358.674C439.083 354.611 455.827 360.571 459.377 369.35C459.761 370.277 459.988 371.261 460.046 372.263Z" fill="#962221"/>
<g style="mix-blend-mode:multiply">
<path d="M408.473 361.199C408.345 361.202 408.219 361.169 408.108 361.105C407.92 361.029 407.744 360.927 407.585 360.801C406.507 360.005 405.601 359.001 404.919 357.847C405.473 357.565 405.964 357.272 406.398 356.995C406.398 356.995 406.795 357.079 407.303 357.22C407.886 358.092 408.313 359.06 408.562 360.08C408.596 360.189 408.619 360.301 408.63 360.415C408.698 360.864 408.656 361.178 408.473 361.199Z" fill="#E6E6E6"/>
</g>
<path d="M423.028 303.459C414.491 305.436 406.403 309.66 406.942 318.554C407.48 327.448 412.693 337.9 422.035 343.359C431.377 348.817 426.17 346.323 423.744 346.773C421.318 347.223 405.123 356.66 405.525 357.471C405.928 358.281 408.291 360.3 408.557 361.042C408.824 361.785 431.204 353.157 431.335 351.4C431.466 349.644 423.028 303.459 423.028 303.459Z" fill="#A87E71"/>
<path d="M422.913 357.068C422.528 357.279 422.185 357.557 421.899 357.889C420.426 359.585 419.138 361.432 418.056 363.4C417.68 364.132 406.921 364.509 402.346 364.263C401.118 364.211 400.344 364.101 400.344 363.939C400.344 363.238 405.175 362.37 407.6 360.802C407.749 360.709 407.892 360.608 408.029 360.498L408.552 360.08C408.693 359.96 408.855 359.839 409.017 359.724C411.736 357.633 417.267 353.628 421.564 351.667C421.93 351.495 422.296 351.343 422.641 351.202C422.641 351.202 424.413 356.389 422.913 357.068Z" fill="#FCD9BB"/>
<g style="mix-blend-mode:multiply">
<path d="M422.913 357.068C422.528 357.279 422.185 357.557 421.899 357.889C421.412 356.519 421.026 353.565 421.564 351.667C421.93 351.495 422.296 351.343 422.641 351.202C422.641 351.202 424.413 356.389 422.913 357.068Z" fill="#E6E6E6"/>
</g>
<g style="mix-blend-mode:multiply">
<path d="M460.046 372.263C460.053 372.824 459.928 373.379 459.68 373.884C456.11 375.714 444.985 373.277 438.069 369.664C438.069 369.664 453.166 368.707 459.398 369.329C459.778 370.264 459.997 371.255 460.046 372.263Z" fill="#E6E6E6"/>
</g>
<path d="M423.028 303.459C415.923 305.849 411.344 309.838 412.693 317.838C414.041 325.838 424.466 348.033 427.331 353.513C430.195 358.992 425.239 365.063 425.6 366.767C425.961 368.472 459.137 373.193 459.764 371.217C460.391 369.24 463.423 343.986 461.024 338.329C458.624 332.671 450.777 302.921 446.109 301.932C441.44 300.944 432.098 300.4 423.028 303.459Z" fill="#C29284"/>
<path d="M444.891 302.586C445.572 302.105 446.402 301.882 447.233 301.959C457.824 302.79 469.19 319.344 471.009 336.708C472.896 354.684 471.009 355.134 466.602 356.66C462.195 358.187 446.03 356.571 438.481 356.211C430.932 355.85 423.253 357.471 422.913 357.063C422.573 356.655 421.345 352.389 422.646 351.202C423.948 350.015 431.921 346.595 442.434 346.323C452.947 346.052 460.046 346.146 460.046 346.146C460.046 346.146 459.414 338.779 453.935 333.116C448.456 327.453 442.705 319.992 441.984 311.637C441.503 306.058 443.505 303.606 444.891 302.586Z" fill="#D19E8D"/>
<path d="M472.985 473.139C470.581 474.132 466.289 472.511 458.598 472.825C457.553 472.856 456.444 472.945 455.279 473.06C445.466 474.106 434.404 474.54 434.989 472.407C435.266 471.361 437.985 470.347 441.545 469.588C445.518 468.765 449.564 468.346 453.621 468.339C460.852 468.417 474.078 472.71 472.985 473.139Z" fill="#FA96B5"/>
<path d="M361.219 369.183L332.466 476.448C332.366 476.819 332.11 477.055 331.838 477.023C331.425 476.982 331.153 476.375 331.316 475.805L357.978 368.362L361.219 369.183Z" fill="#80634B"/>
<path d="M458.724 368.995L487.477 476.26C487.576 476.637 487.832 476.867 488.104 476.84C488.517 476.793 488.789 476.187 488.627 475.622L461.965 368.179L458.724 368.995Z" fill="#80634B"/>
<path d="M422.547 363.4H376.871C376.507 363.4 376.212 363.695 376.212 364.059V365.507C376.212 365.871 376.507 366.166 376.871 366.166H422.547C422.911 366.166 423.206 365.871 423.206 365.507V364.059C423.206 363.695 422.911 363.4 422.547 363.4Z" fill="#303052"/>
<path d="M367.858 366.046H379.846C379.858 366.045 379.869 366.042 379.879 366.035C379.89 366.029 379.898 366.02 379.903 366.009L384.917 357.811C384.924 357.799 384.928 357.786 384.929 357.772C384.929 357.759 384.927 357.745 384.921 357.733C384.916 357.72 384.907 357.71 384.896 357.701C384.885 357.693 384.873 357.688 384.859 357.685H372.872C372.86 357.687 372.849 357.691 372.839 357.697C372.829 357.703 372.82 357.712 372.814 357.722L367.801 365.92C367.792 365.932 367.787 365.945 367.785 365.959C367.784 365.973 367.786 365.987 367.792 366C367.798 366.013 367.807 366.024 367.819 366.032C367.831 366.04 367.844 366.045 367.858 366.046Z" fill="#424270"/>
<path d="M338.676 365.711H482.223C482.472 365.711 482.712 365.81 482.888 365.987C483.065 366.163 483.164 366.403 483.164 366.652V366.872C483.164 367.881 482.763 368.85 482.049 369.563C481.335 370.277 480.367 370.678 479.358 370.678H341.536C340.527 370.678 339.559 370.277 338.845 369.563C338.131 368.85 337.73 367.881 337.73 366.872V366.652C337.73 366.403 337.829 366.163 338.006 365.987C338.182 365.81 338.422 365.711 338.671 365.711H338.676Z" fill="#5C4634"/>
<path d="M384.849 357.826H372.867C372.85 357.833 372.831 357.833 372.814 357.826L367.811 350.742C367.802 350.731 367.797 350.719 367.795 350.705C367.793 350.692 367.795 350.678 367.8 350.665C367.805 350.653 367.814 350.642 367.826 350.634C367.837 350.627 367.85 350.622 367.864 350.621H379.846C379.864 350.615 379.885 350.615 379.903 350.621L384.906 357.706C384.914 357.717 384.918 357.73 384.919 357.744C384.92 357.757 384.917 357.77 384.911 357.782C384.905 357.794 384.897 357.805 384.886 357.812C384.875 357.82 384.862 357.825 384.849 357.826Z" fill="#303052"/>
<path d="M404.092 351.929H350.648C350.275 351.931 349.911 351.808 349.615 351.58C349.32 351.351 349.109 351.03 349.017 350.668L341.175 320.076C341.114 319.828 341.11 319.57 341.164 319.321C341.217 319.072 341.325 318.838 341.482 318.636C341.638 318.435 341.838 318.272 342.067 318.159C342.295 318.046 342.546 317.986 342.801 317.984H396.261C396.635 317.987 396.997 318.113 397.292 318.343C397.587 318.573 397.798 318.893 397.892 319.255L405.734 349.848C405.795 350.096 405.799 350.355 405.745 350.605C405.691 350.855 405.581 351.089 405.422 351.29C405.264 351.491 405.062 351.652 404.831 351.763C404.601 351.874 404.348 351.93 404.092 351.929Z" fill="#424270"/>
<g style="mix-blend-mode:soft-light" opacity="0.3">
<path d="M378.011 351.929H350.648C350.275 351.931 349.911 351.808 349.615 351.58C349.32 351.351 349.109 351.03 349.017 350.668L341.175 320.076C341.114 319.828 341.11 319.57 341.164 319.321C341.217 319.072 341.325 318.838 341.482 318.636C341.638 318.435 341.838 318.272 342.067 318.159C342.295 318.046 342.546 317.986 342.801 317.984H354.783L378.011 351.929Z" fill="white"/>
</g>
<g style="mix-blend-mode:multiply">
<path d="M443.72 462.388C443.699 462.433 443.675 462.475 443.647 462.514C442.371 464.605 435.324 471.152 434.759 471.303C434.086 472.358 433.303 473.338 432.422 474.226C431.56 474.864 423.969 475.24 417.392 475.272C418.987 473.797 429.939 472.935 431.56 469.761C432.458 468.097 433.73 466.665 435.277 465.578C436.742 464.508 438.374 463.688 440.107 463.152C441.285 462.786 442.495 462.531 443.72 462.388Z" fill="#E6E6E6"/>
</g>
<g style="mix-blend-mode:multiply">
<path d="M458.598 472.825C457.553 472.856 456.444 472.945 455.279 473.06C445.466 474.106 434.404 474.54 434.989 472.407C435.266 471.361 437.985 470.347 441.545 469.588C445.414 469.761 454.871 471.079 458.598 472.825Z" fill="#E6E6E6"/>
</g>
<path d="M167.37 222.128C170.214 230.494 168.337 241.521 166.277 243.152C164.217 244.783 156.464 243.398 154.462 241.275C152.46 239.152 155.675 225.824 157.677 224.188C159.68 222.551 167.37 222.128 167.37 222.128Z" fill="#F4B798"/>
<path d="M149.313 236.125C146.647 239.398 139.741 247.215 140.347 248.674C140.953 250.132 154.949 252.067 154.949 251.398C154.949 250.728 154.828 244.794 156.041 240.799C157.254 236.805 149.313 236.125 149.313 236.125Z" fill="#F4B798"/>
<path d="M159.46 234.854C159.46 234.854 156.01 238.828 150.604 238.159C145.199 237.49 139.061 223.764 139.626 222.923C140.19 222.081 168.478 211.723 168.902 213.344C169.325 214.965 168.766 221.129 166.089 225.835C163.412 230.541 162.769 230.483 162.769 230.483C162.769 230.483 162.132 227.461 160.223 227.346C157.437 227.184 155.602 233.118 159.46 234.854Z" fill="#561304"/>
<path d="M168.865 213.37C168.274 209.187 157.965 207.21 155.738 208.11C151.765 209.678 138.287 220.988 139.605 222.949C140.922 224.909 149.422 228.481 154.19 225.793C158.958 223.106 169.048 214.635 168.865 213.37Z" fill="#662820"/>
<path d="M214.447 260.187C214.259 260.841 218.106 266.786 216.135 268.778C214.766 270.205 208.764 274.231 204.896 276.558C203.877 277.243 202.791 277.823 201.654 278.289C200.258 278.597 195.051 273.928 195.051 273.928C195.606 272.966 196.202 272.025 196.839 271.104C205.23 259.021 220.642 251.298 220.992 252.422C221.342 253.63 214.625 259.518 214.447 260.187Z" fill="#F4B798"/>
<path d="M146.114 477.562C145.252 477.719 144.376 477.788 143.5 477.766C142.292 477.766 140.807 477.766 139.317 477.766C136.515 477.693 133.75 477.489 133.007 477.081C132.862 476.976 132.74 476.842 132.65 476.687C132.56 476.532 132.503 476.36 132.484 476.182C131.962 473.651 133.635 466.817 135.48 463.235C135.48 463.235 145.439 463.047 146.354 465.562C146.394 465.65 146.419 465.744 146.427 465.839C146.736 468.632 146.291 477.269 146.114 477.562Z" fill="#3D1006"/>
<path d="M143.51 477.766C143.418 477.831 143.312 477.876 143.201 477.897C141.937 478.022 140.666 478.08 139.396 478.069C136.222 478.069 132.296 477.719 132.516 476.166C132.819 473.85 136.531 473.316 139.73 473.416C142.083 473.489 144.179 473.897 144.466 474.216C145.078 474.885 144.383 477.17 143.51 477.766Z" fill="#661F18"/>
<path d="M178.181 476.281C177.946 477.327 175.839 477.907 173.105 478.169C169.989 478.417 166.86 478.433 163.742 478.216H163.684C162.534 478.142 161.53 478.054 160.731 477.97C156.967 477.531 148.576 478.681 144.639 478.566C143.988 478.599 143.338 478.494 142.731 478.258C142.208 477.939 141.989 477.123 142.051 475.988C142.119 473.416 143.515 469.269 145.507 465.913C145.507 465.913 151.963 462.19 152.868 462.253C153.772 462.315 155.863 467.126 158.551 468.114C161.238 469.102 178.767 473.635 178.181 476.281Z" fill="#471208"/>
<path d="M163.747 478.216H163.689C163.313 478.216 162.816 478.273 158.817 478.142C155.158 478.012 147.943 479.538 144.367 479C143.363 478.854 142.637 478.55 142.36 477.996C142 477.392 141.891 476.671 142.057 475.988C142.856 473.008 150.573 473.489 153.234 473.839C154.636 474.107 156.002 474.535 157.306 475.115C160.432 476.37 163.747 478.101 163.747 478.216Z" fill="#75241B"/>
<path d="M143.379 466.263C143.249 466.509 141.968 466.535 140.337 466.435C137.445 466.232 133.431 465.562 132.589 464.72C131.266 463.398 129.201 453.594 128.835 445.829C128.469 438.065 123.921 426.823 120.842 414.421C118.134 403.572 114.046 365.69 115.138 346.449C115.229 344.466 115.433 342.49 115.75 340.53C115.797 340.18 115.87 339.861 115.928 339.542L117.496 339.045L131.021 334.742C131.021 334.742 131.02 334.873 131.047 335.119C131.151 336.164 131.454 339.265 131.904 343.861C134.79 373.585 143.677 465.709 143.379 466.263Z" fill="#523B38"/>
<path d="M157.191 463.016C156.872 463.847 141.56 467.643 140.645 467.309C140.541 467.277 140.441 466.958 140.337 466.436C139.537 462.253 138.768 444.418 138.115 441.03C137.461 437.641 128.417 372.535 126.613 345.053C126.425 342.245 126.305 339.824 126.295 337.9C126.295 337.9 128.239 336.75 131.047 335.134C137.487 331.443 148.408 325.32 150.662 325.001H150.693C150.796 324.962 150.909 324.962 151.012 325.001C151.331 325.195 151.665 328.07 151.969 332.593C153.046 348.331 153.961 383.944 154.107 394.077C154.285 407.148 157.495 462.253 157.191 463.016Z" fill="#6B4F4B"/>
<path d="M129.081 248.428C115.269 259.335 106.905 284.903 106.905 295.689C106.905 306.476 112.132 332.525 114.542 334.465C116.952 336.405 129.081 248.428 129.081 248.428Z" fill="#A62524"/>
<g style="mix-blend-mode:multiply">
<path d="M151.969 332.583C149.381 334.606 148.048 336.075 143.437 339.291C139.62 341.958 138.083 342.313 131.904 343.856C130.205 344.274 128.417 344.671 126.613 345.032C122.831 345.803 118.995 346.275 115.138 346.444C115.229 344.461 115.433 342.485 115.75 340.525C116.32 340.044 116.9 339.552 117.496 339.04C121.03 336.06 124.867 332.917 127.021 331.422C131.674 328.191 143.144 324.729 150.662 324.98H150.693H151.012C151.331 325.205 151.665 328.081 151.969 332.583Z" fill="#E6E6E6"/>
</g>
<path d="M129.081 248.428C119.781 254.137 119.629 282.236 119.629 293.023C119.629 303.809 115.389 312.411 113.69 318.47C111.991 324.53 110.784 343.798 113.209 344.525C115.635 345.252 133.681 341.858 140.833 336.525C147.985 331.192 151.859 329.377 152.225 328.285C152.591 327.192 150.405 317.503 153.192 305.383C155.978 293.263 160.584 277.269 160.584 277.269C160.584 277.269 166.763 308.17 178.516 310.209C190.268 312.248 204.341 280.281 204.2 278.215C204.143 277.306 196.813 270.822 195.114 272.035C193.415 273.248 182.044 292.275 181.522 291.182C180.999 290.089 180.068 266.608 167.469 257.374C154.87 248.14 135.987 244.182 129.081 248.428Z" fill="#BA2928"/>
<g style="mix-blend-mode:multiply">
<path d="M173.11 478.169C169.994 478.417 166.865 478.432 163.747 478.216H163.689C163.313 478.216 162.816 478.273 158.817 478.142C155.158 478.012 147.943 479.538 144.367 479C144.441 478.844 144.535 478.699 144.644 478.566C146.171 476.731 151.169 475.335 157.306 475.115C157.886 475.115 158.472 475.073 159.068 475.073C165.551 475.073 171.061 476.37 173.11 478.169Z" fill="#E6E6E6"/>
</g>
</g>
<defs>
<linearGradient id="paint0_linear_24_59" x1="62.266" y1="144.034" x2="266.053" y2="144.034" gradientUnits="userSpaceOnUse">
<stop stop-color="white"/>
<stop offset="1" stop-color="#8585FF"/>
</linearGradient>
<linearGradient id="paint1_linear_24_59" x1="548.563" y1="123.179" x2="299.592" y2="301.596" gradientUnits="userSpaceOnUse">
<stop stop-color="white"/>
<stop offset="1" stop-color="#8585FF"/>
</linearGradient>
<linearGradient id="paint2_linear_24_59" x1="241.334" y1="511.683" x2="337.806" y2="367.705" gradientUnits="userSpaceOnUse">
<stop stop-color="white"/>
<stop offset="1" stop-color="#8585FF"/>
</linearGradient>
<clipPath id="clip0_24_59">
<rect width="608" height="526" fill="white"/>
</clipPath>
</defs>
</svg>
