<svg width="767" height="393" viewBox="0 0 767 393" fill="none" xmlns="http://www.w3.org/2000/svg">
<path d="M38.3127 392.88C38.3127 392.88 -44.0815 217.506 118.293 217.506C204.093 217.506 168.747 169.386 227.081 113.7C285.414 58.0142 489.417 13.5209 532.837 121.055C576.257 228.59 468.951 310.233 572.641 296.228C697.246 279.402 746.468 392.88 746.468 392.88H38.3127Z" fill="#DDE8FD"/>
<path d="M705.621 370.63C697.932 365.011 682.219 368.803 670.625 372.86C668.732 370.205 666.598 367.731 664.251 365.468C689.229 349.384 723.73 315.083 705.435 312.18C689.542 309.656 668.087 340.529 656.622 359.327C644.718 351.319 626.474 345.436 598.622 347.476C526.335 352.773 469.865 306.168 428.237 321.711C395.14 334.069 364.808 340.995 335.559 338.63C336.818 317.27 337.092 275.334 320.309 270.983C303.273 266.566 319.984 314.19 329.273 337.987C327.095 337.707 324.92 337.374 322.75 336.99C316.738 325.136 306.817 309.626 295.944 309.097C285.697 308.599 298.349 322.54 310.791 334.355C275.019 326.843 232.585 355.913 231.881 390.278H678.485C678.485 390.278 677.695 385.263 674.193 378.65C691.454 378.295 713.972 376.73 705.621 370.63Z" fill="#FA7269"/>
<path d="M329.309 363.701H211.602V390.269H329.309V363.701Z" fill="#6D89CF"/>
<path d="M293.016 363.701H175.31V390.269H293.016V363.701Z" fill="#3662C1"/>
<path d="M375.615 390.263H463.261V267.813H375.615V390.263Z" fill="#AF4E4E"/>
<path d="M348.59 390.263H436.236V267.813H348.59V390.263Z" fill="#E75755"/>
<path d="M436.236 267.816L463.261 286.202V267.816H436.236Z" fill="#A83F3F"/>
<path d="M165.678 294.939C165.678 294.939 149.289 307.123 146.093 306.384C142.898 305.645 158.07 293.233 158.07 293.233C152.358 290.489 134.622 292.208 134.622 292.208C134.622 292.208 128.709 311.267 125.793 309.764C122.877 308.262 131.89 293.155 131.89 293.155C125.532 292.773 117.731 297.493 117.731 297.493C107.05 305.906 118.431 319.193 118.431 319.193C118.431 319.193 116.24 325.752 109.497 331.729C109.497 331.729 99.8776 338.847 99.1953 351.56L100.945 351.716C100.945 351.716 103.716 339.868 108.761 334.265C108.956 334.06 109.242 333.769 109.59 333.414C110.411 332.657 110.988 332.086 111.373 331.663C113.88 329.259 117.343 326.188 119.011 325.891C118.951 325.616 118.927 325.334 118.942 325.052C118.963 325.323 118.987 325.599 119.011 325.891C119.583 332.6 132.602 338.456 140.61 339.661C148.619 340.866 146.144 337.576 143.385 332.696C140.625 327.817 131.893 325.635 129.9 323.382C127.906 321.128 132.028 321.128 136.853 323.331C141.677 325.533 142.339 331.407 150.079 335.115C157.82 338.823 169.469 325.981 169.469 325.981C163.3 325.68 154.489 318.971 154.808 316.922C155.127 314.872 169.763 320.455 172.265 320.726C174.766 320.996 180.459 317.883 181.34 307.805C182.221 297.728 165.678 294.939 165.678 294.939Z" fill="#93B3F4"/>
<path d="M78.6275 302.505C78.6275 302.505 96.7332 292.37 88.2831 278.618C88.2831 278.618 81.5254 270.175 74.2837 268.002C74.2837 268.002 78.1465 288.509 74.2837 288.993C70.4208 289.477 71.6293 265.83 71.6293 265.83C71.6293 265.83 52.5586 256.663 45.0764 257.387C45.0764 257.387 56.9054 277.413 53.0426 276.917C49.1797 276.421 35.9078 256.167 35.9078 256.167C35.9078 256.167 16.3682 252.561 13.2178 264.129C10.0674 275.697 15.1477 281.502 18.0456 282.226C20.9435 282.951 39.5272 282.707 39.0462 285.12C38.5652 287.533 26.0117 291.394 19.0105 289.221C19.0105 289.221 26.7332 308.283 36.8728 307.319C47.0124 306.354 50.1477 300.08 56.4124 299.597C62.6771 299.113 67.2734 300.798 64.1381 302.493C61.0027 304.188 50.3792 303.046 45.3079 307.352C40.2366 311.657 36.1363 314.313 45.5514 316.242C54.9665 318.171 71.8608 316.967 75.2396 309.728L78.6275 302.505Z" fill="#93B3F4"/>
<path d="M83.4553 320.127C78.387 310.72 78.6275 302.517 78.6275 302.517C72.8348 284.188 22.1459 267.774 22.1459 267.774C86.5937 293.83 75.2487 309.752 75.2487 309.752C76.9862 310.765 79.5895 315.596 81.3991 319.301C81.6547 319.929 82.0635 320.803 82.6677 321.987C82.9142 322.522 83.1096 322.961 83.2449 323.267C86.5516 331.566 84.805 345.899 84.805 345.899L86.8161 346.436C91.2742 331.981 83.4553 320.127 83.4553 320.127Z" fill="#3E4DCE"/>
<path d="M107.432 288.527C107.432 288.527 83.5665 275.172 94.7041 257.044C94.7041 257.044 103.611 245.927 113.159 243.048C113.159 243.048 108.066 270.091 113.159 270.719C118.251 271.347 116.658 240.203 116.658 240.203C116.658 240.203 141.795 228.115 151.658 229.086C151.658 229.086 136.068 255.482 141.157 254.848C146.247 254.214 163.748 227.505 163.748 227.505C163.748 227.505 189.522 222.734 193.659 238.001C197.795 253.267 191.113 260.899 187.295 261.852C183.477 262.804 158.978 262.489 159.612 265.668C160.246 268.847 176.795 273.937 186.023 271.076C186.023 271.076 175.842 296.201 162.477 294.927C149.112 293.653 144.975 285.387 136.702 284.75C128.43 284.113 122.384 286.34 126.521 288.566C130.657 290.793 144.66 289.297 151.339 294.975C158.019 300.654 163.433 304.152 151.038 306.694C138.644 309.236 116.354 307.646 111.899 298.106L107.432 288.527Z" fill="#BED2FA"/>
<path d="M181.887 242.73C181.887 242.73 115.067 264.364 107.432 288.527C107.432 288.527 107.748 299.344 101.065 311.744C101.065 311.744 90.7631 327.387 96.6371 346.424L99.2885 345.712C99.2885 345.712 96.9708 326.822 101.345 315.882C101.522 315.479 101.784 314.902 102.105 314.196C102.905 312.634 103.44 311.492 103.78 310.654C106.163 305.768 109.596 299.404 111.896 298.07C111.884 298.07 96.9317 277.079 181.887 242.73Z" fill="#3E4DCE"/>
<path d="M106.626 387.712C119.024 387.712 130.914 382.789 139.68 374.027C148.446 365.265 153.371 353.381 153.371 340.989H59.8815C59.8815 353.381 64.8064 365.265 73.5727 374.027C82.3391 382.789 94.2288 387.712 106.626 387.712Z" fill="#EF7674"/>
<path d="M118.128 387.354C111.551 388.172 104.875 387.584 98.543 385.628C92.2109 383.672 86.3669 380.393 81.3982 376.01C76.4295 371.626 72.4496 366.236 69.7223 360.199C66.9949 354.161 65.5823 347.613 65.578 340.989H77.1906C77.1914 352.376 81.3515 363.37 88.8894 371.907C96.4272 380.445 106.824 385.938 118.128 387.354Z" fill="#FC9796"/>
<path d="M148.252 384.5H65.0009C63.4717 384.5 62.0052 385.107 60.9239 386.188C59.8426 387.268 59.2352 388.734 59.2352 390.263H154.017C154.017 388.734 153.41 387.268 152.329 386.188C151.247 385.107 149.781 384.5 148.252 384.5Z" fill="#EF7674"/>
<path d="M153.72 340.989H59.0729C58.9748 340.983 58.8765 340.997 58.784 341.03C58.6915 341.063 58.6068 341.115 58.5351 341.182C58.4634 341.249 58.4062 341.33 58.3672 341.42C58.3281 341.51 58.308 341.607 58.308 341.706C58.308 341.804 58.3281 341.901 58.3672 341.991C58.4062 342.081 58.4634 342.162 58.5351 342.23C58.6068 342.297 58.6915 342.349 58.784 342.382C58.8765 342.415 58.9748 342.429 59.0729 342.422H153.732C153.914 342.41 154.085 342.33 154.21 342.197C154.334 342.064 154.404 341.888 154.404 341.706C154.404 341.523 154.334 341.348 154.21 341.215C154.085 341.081 153.914 341.001 153.732 340.989H153.72Z" fill="#AF4E4E"/>
<path d="M514.434 94.9449C513.081 94.7406 508.999 98.5145 508.999 98.5145C500.281 99.521 487.532 101.82 482.945 102.721C479.689 103.346 470.944 100.365 462.398 96.943C452.234 92.8687 442.35 88.1663 442.35 88.1663C436.711 87.8659 430.308 98.1629 441.749 104.692C443.496 105.69 450.055 107.396 457.609 108.95C468.029 111.098 480.338 112.961 484.529 112.306C489.396 111.546 503.167 106.507 511.37 102.649H511.388L511.482 102.604C511.972 102.375 513.98 101.483 515.317 101.561C516.854 101.651 520.271 98.857 520.377 98.0938C520.482 97.3306 515.789 95.1522 514.434 94.9449Z" fill="#EA8888"/>
<path d="M503.789 224.495L498.979 225.468C498.979 225.468 477.011 200.8 473.62 190.419C471.816 184.872 460.21 182.474 448.089 179.34C437.541 176.615 426.595 173.331 421.371 166.922C410.146 153.152 428.438 136.241 428.438 136.241C428.438 136.241 447.885 147.791 464.662 159.729C476.385 168.07 486.81 176.597 488.383 181.498C492.194 193.408 500.284 216.061 503.789 224.495Z" fill="#0B0754"/>
<path d="M497.362 232.634H500.067C500.969 232.49 501.64 232.229 502.569 232.108C503.978 231.922 504.625 232.502 504.754 232.634L504.781 232.661H516.249C516.55 232.25 516.249 231.294 515.991 230.591C515.899 230.356 515.754 230.145 515.568 229.975C515.381 229.805 515.157 229.681 514.915 229.612C513.712 229.26 511.307 228.945 509.107 226.958C507.871 225.844 503.14 222.854 503.14 222.854H503.116C503.01 222.854 502.514 223.007 500.365 224.822C499.253 225.76 497.359 223.5 497.359 223.5C497.099 223.738 496.888 224.023 496.737 224.341C496.47 224.887 496.384 225.504 496.49 226.102C496.662 227.136 496.111 229.056 495.67 230.354C495.402 231.141 495.177 231.697 495.177 231.697C495.177 231.697 495.041 232.343 497.362 232.634Z" fill="#060632"/>
<path d="M464.662 159.723L448.101 179.34C437.553 176.615 426.608 173.331 421.383 166.922C410.146 153.152 428.438 136.241 428.438 136.241C428.438 136.241 447.885 147.785 464.662 159.723Z" fill="#060632"/>
<path d="M449.613 149.462C449.613 149.462 448.278 153.668 446.105 159.999C443.357 168.004 439.263 179.403 434.823 189.974C433.849 192.297 432.854 194.58 431.856 196.777C428.165 204.91 424.383 211.884 421.055 215.427C415.076 221.796 400.539 262.747 400.539 262.747L396.931 261.747C396.931 261.747 391.881 226.778 409.77 206.878C409.972 206.679 410.1 206.417 410.134 206.136C410.372 203.189 411.222 190.001 413.074 176.633C413.531 173.355 414.045 170.068 414.625 166.916C414.661 166.715 414.7 166.516 414.736 166.315C417.457 151.748 420.063 145.282 423.427 142.01L448.161 149.047L449.613 149.462Z" fill="#0B0754"/>
<path d="M396.513 267.789H399.219C400.121 267.648 400.791 267.383 401.72 267.263C403.127 267.08 403.776 267.657 403.905 267.789L403.929 267.816H415.401C415.701 267.404 415.401 266.449 415.139 265.749C415.049 265.513 414.905 265.302 414.718 265.131C414.532 264.961 414.309 264.836 414.066 264.766C412.864 264.415 410.459 264.102 408.255 262.113C407.02 260.998 402.291 258.012 402.291 258.012H402.264C402.162 258.012 401.663 258.165 399.517 259.98C398.404 260.917 396.51 258.658 396.51 258.658C396.25 258.895 396.038 259.18 395.888 259.499C395.62 260.045 395.534 260.662 395.642 261.26C395.813 262.293 395.26 264.213 394.821 265.511C394.553 266.299 394.328 266.857 394.328 266.857C394.328 266.857 394.19 267.497 396.513 267.789Z" fill="#060632"/>
<path d="M401.819 101.916C401.819 101.916 397.68 112.035 392.909 121.888C388.893 130.169 384.435 138.257 381.606 139.985C377.62 142.419 366.636 149.284 359.511 154.407C359.511 154.407 353.953 154.365 353.087 155.429C352.222 156.493 350.232 161.273 350.812 161.757C351.392 162.241 355.814 162.018 356.89 160.916C357.825 159.957 359.896 159.266 360.428 159.113L360.524 159.083H360.548C369.206 156.421 382.794 150.874 386.897 148.161C390.438 145.826 398.284 136.166 404.543 127.567C409.079 121.332 412.782 115.659 413.402 113.745C417.457 101.204 405.793 97.9105 401.819 101.916Z" fill="#FC9290"/>
<path d="M423.46 62.2329C423.004 61.5664 422.509 60.9273 421.978 60.3189C422.599 60.3524 423.221 60.2593 423.806 60.0455C425.258 59.4445 425.91 54.8354 425.703 53.4682C425.495 52.1011 423.466 48.1469 420.977 47.7593C418.488 47.3717 415.918 50.127 415.918 50.127C416.378 48.1349 420.589 46.9841 420.589 46.9841C411.917 48.5826 412.358 54.3636 412.419 54.8955C404.479 52.0711 399.82 67.0103 399.82 67.0103L420.382 79.1222C420.382 79.1222 420.436 75.817 422.399 76.0364C425.456 76.3609 428.005 68.8522 423.46 62.2329Z" fill="#0B0754"/>
<path d="M424.771 93.5748C420.054 95.7953 413.793 92.5953 413.826 92.5622C414.231 92.1566 414.087 90.9457 413.717 89.3622C413.348 87.7127 412.47 85.4562 410.853 82.7519C410.516 82.1781 410.179 81.6072 409.773 81.0002L410.314 80.7989L419.48 77.1272C419.48 77.1272 420.962 79.7863 422.513 82.2141C423.827 84.2333 425.219 86.0541 425.82 85.985C425.85 85.973 431.916 90.1495 424.771 93.5748Z" fill="#FC9290"/>
<path d="M419.48 78.0557C419.245 81.3248 418.133 87.22 413.717 89.3743C413.348 87.7247 412.47 85.4682 410.852 82.764L419.48 78.0557Z" fill="#EA8888"/>
<path d="M410.317 86.4926C410.317 86.4926 422.252 81.7903 419.206 74.4078C416.161 67.0253 415.653 61.4456 407.907 64.1348C400.16 66.824 399.847 70.2463 400.265 72.9595C400.683 75.6727 407.134 87.5232 410.317 86.4926Z" fill="#FC9290"/>
<path d="M414.766 72.7223C420.277 71.947 421.885 69.7176 421.885 69.7176C418.536 68.574 415.688 66.3033 413.829 63.2936C413.829 63.2936 407.636 61.1903 403.046 64.6968C402.756 65.0777 402.558 65.5196 402.465 65.9888C401.413 65.6462 399.832 65.7334 398.921 68.693C397.547 73.1579 402.426 78.0315 402.426 78.0315C403.608 77.698 402.276 73.7198 402.09 71.5985C401.951 70.0331 402.796 68.035 403.25 67.0915C403.833 67.8487 409.647 75.1501 416.744 75.4415C414.194 74.4954 411.785 73.2055 409.584 71.6075C411.279 72.4398 413.086 72.9596 414.766 72.7223Z" fill="#0B0754"/>
<path d="M447.491 108.796C447.392 108.442 447.283 108.072 447.169 107.694C448.677 104.882 449.694 101.834 450.175 98.6797C450.984 93.2232 449.601 89.855 449.601 89.855C449.601 89.855 441.325 85.4681 437.67 84.9093C437.655 84.9069 437.64 84.9069 437.625 84.9093L437.478 84.8943C433.789 84.3865 425.799 86.015 425.799 86.015C425.799 86.015 427.341 90.1164 422.994 92.8477C418.647 95.5789 414.003 92.1476 414.003 92.1476L413.561 92.448C413.561 92.448 402.123 99.9928 401.095 101.714C400.067 103.436 395.669 111.975 395.669 111.975C395.669 111.975 397.064 119.139 412.518 119.74C413.786 122.819 414.76 125.821 415.076 128.327C416.303 138.053 414.878 145.727 416.309 151.403C417.74 157.079 443.52 153.843 448.188 152.752C452.857 151.661 451.796 146.676 452.165 141.836C452.622 135.736 449.012 114.163 447.491 108.796Z" fill="#3662C1"/>
<path d="M450.181 98.6827C449.699 101.85 448.677 104.911 447.16 107.733C446.754 105.948 445.104 99.4129 442.441 96.4473C442.429 96.4473 446.911 96.8529 450.181 98.6827Z" fill="#3E4DCE"/>
<path d="M345.208 162.418C345.208 162.418 350.018 156.598 351.046 155.913C352.074 155.228 356.616 154.017 356.878 154.26C357.14 154.504 357.149 154.861 356.577 155.351C356.006 155.841 353.872 157.1 354.172 157.241C354.473 157.382 360.951 154.161 361.883 155.243C362.815 156.325 361.357 160.799 358.877 162.944C356.397 165.089 348.939 166 348.47 166.3C344.496 168.839 345.208 162.418 345.208 162.418Z" fill="#EA8888"/>
<path d="M260.647 148.984C260.647 148.984 267.561 157.166 276.336 153.743C276.336 153.743 278.223 149.173 278.25 145.805C278.25 145.39 278.25 144.988 278.266 144.603C278.314 140.808 278.44 138.681 278.44 138.681C278.04 138.516 265.009 133.167 265.018 133.612C265.234 143.87 260.647 148.984 260.647 148.984Z" fill="#FC9290"/>
<path d="M266.319 136.058C267.576 138.387 271.887 142.942 278.266 144.606C278.314 140.811 278.44 138.684 278.44 138.684C278.07 138.585 265.944 135.373 266.319 136.058Z" fill="#EA8888"/>
<path d="M281.169 138.29C281.169 138.29 266.515 141.734 264.507 132.582C262.499 123.429 259.261 117.702 268.535 115.115C277.809 112.528 280.397 115.626 281.81 118.52C283.223 121.413 284.93 137.158 281.169 138.29Z" fill="#FC9290"/>
<path d="M265.009 135.072C264.81 135.201 261.657 136.169 255.69 124.276C254.752 122.411 254.112 118.372 256.291 114.803C258.47 111.233 266.211 108.43 272.665 107.207C279.119 105.984 280.649 109.611 282.164 113.246C283.758 117.068 288.354 120.211 288.354 120.211C282.802 123.312 276.116 118.88 273.798 119.61C271.481 120.34 270.663 123.988 270.492 125.16C270.32 126.332 270.053 127.302 267.137 126.257C264.221 125.211 265.82 130.382 266.286 131.365C266.283 131.368 266.68 134.003 265.009 135.072Z" fill="#9E332E"/>
<path d="M227.252 363.695H218.378C216.517 363.695 214.449 361.808 213.932 358.353C213.415 354.898 209.591 353.011 208.762 350.183C207.932 347.356 212.176 343.375 212.176 343.375L212.883 342.452L213.622 341.491L220.651 343.164C220.651 343.164 220.825 344.862 220.933 347.019C221.008 348.579 221.05 350.385 220.963 351.965C220.756 355.736 222.006 359.795 225.313 360.528C228.62 361.262 227.252 363.695 227.252 363.695Z" fill="#060632"/>
<path d="M289.039 363.788H265.514C265.342 363.76 265.174 363.71 265.015 363.641C263.445 362.83 263.935 356.643 264.113 354.729C264.149 354.375 264.176 354.168 264.176 354.168C264.176 354.168 272.446 347.359 273.585 352.572C273.621 352.737 273.663 352.897 273.708 353.053C275.142 357.929 281.563 360.147 285.27 360.763C288.113 361.24 288.847 362.941 289.039 363.788Z" fill="#060632"/>
<path d="M284.296 227.812C284.296 227.812 283.039 243.478 281.56 262.311C279.555 287.893 277.141 319.319 276.904 325.271C276.489 335.608 274.833 352.142 274.833 352.142C274.833 352.142 270.907 356.072 263.046 354.417C263.046 354.417 256.041 330.812 254.027 305.837C253.997 305.429 253.967 305.017 253.934 304.602C252.073 279.18 249.182 225.642 249.182 225.642L284.296 227.812Z" fill="#ED6966"/>
<path d="M284.296 227.812C284.296 227.812 283.039 243.478 281.56 262.311L254.039 305.837C254.009 305.429 253.979 305.017 253.946 304.602C252.085 279.18 249.194 225.642 249.194 225.642L284.296 227.812Z" fill="#E75755"/>
<path d="M278.557 229.687C278.557 229.687 255.912 286.427 241.023 313.094C226.134 339.76 221.483 347.2 221.483 347.2C221.483 347.2 212.952 343.786 212.164 341.464C212.164 341.464 217.858 289.985 227.829 277.437C233.466 270.346 240.082 249.067 240.395 241.624C240.707 234.182 242.409 219.456 242.409 219.456L278.557 229.687Z" fill="#ED6966"/>
<path d="M226.711 220.222C226.711 220.222 226.11 227.31 225.695 228.398C225.28 229.485 222.388 232.86 222.069 232.809C221.751 232.757 221.54 232.508 221.709 231.808C221.877 231.108 222.863 229.002 222.55 229.056C222.238 229.11 218.961 235.086 217.657 234.75C216.352 234.413 215.074 230.164 215.853 227.166C216.631 224.167 221.898 219.453 222.1 218.969C223.807 214.871 226.711 220.222 226.711 220.222Z" fill="#EA8888"/>
<path d="M224.282 222.022C226.786 222.824 227.189 222.644 227.189 222.644C227.189 222.644 239.388 200.442 240.623 198.411C241.859 196.38 266.524 173.517 266.524 173.517L260.181 149.891C260.181 149.891 232.125 186.2 229.098 191.413C224.09 200.021 221.156 220.021 221.156 220.021C222.01 220.943 223.086 221.632 224.282 222.022Z" fill="#060632"/>
<path d="M289.075 182.793C288.988 187.645 288.706 193.099 288.324 198.636C288.3 198.967 288.279 199.294 288.255 199.622C288.011 203.056 287.747 206.493 287.446 209.838C287.322 211.184 287.193 212.51 287.058 213.816L287.037 213.993C287.037 214.483 286.968 215.012 286.914 215.496C285.679 228.061 284.38 237.986 284.139 238.139C283.858 238.335 283.515 238.423 283.174 238.385C279.868 237.97 270.044 238.719 261.994 236.967C255.197 235.534 249.347 232.817 243.148 229.155C242.325 228.668 240.443 227.379 240.602 226.418C240.752 225.36 241.029 223.83 241.381 221.91C242.601 215.225 244.711 203.732 245.43 190.277C245.568 187.771 245.769 185.299 246.031 182.862C246.65 176.881 247.749 170.96 249.317 165.155C252.076 155.219 256.132 147.608 261.224 144.633C261.888 144.261 265.466 146.535 268.739 148.644C271.512 150.418 274.805 151.198 278.079 150.856L280.815 153.879C284.121 157.728 287.651 162.851 288.631 170.134C288.703 170.672 288.763 171.243 288.817 171.85C289.089 175.49 289.175 179.143 289.075 182.793Z" fill="#120E59"/>
<path d="M289.075 182.793C288.988 187.645 288.706 193.099 288.324 198.636C288.3 198.967 288.279 199.294 288.255 199.622C269.425 187.844 266.524 166.27 266.524 166.27C275.788 166.679 283.147 168.806 288.82 171.85C289.091 175.491 289.176 179.143 289.075 182.793Z" fill="#060632"/>
<path d="M348.067 162.998C347.096 160.375 345.587 160.546 345.587 160.546C345.587 160.546 317.591 167.52 315.078 167.817C312.565 168.115 284.93 157.034 284.93 157.034C284.93 157.034 274.054 152.154 268.959 156.61C264.531 160.48 264.329 165.384 265.351 169.503C265.964 171.9 267.286 174.058 269.143 175.694C271 177.33 273.308 178.369 275.764 178.676C287.037 180.113 309.532 182.814 314.243 182.159C324.737 180.698 348.512 166.979 348.512 166.979C348.671 165.635 348.518 164.273 348.067 162.998Z" fill="#120E59"/>
<path d="M624.12 214.288C624.12 214.288 628.01 217.893 627.253 220.453C626.495 223.013 622.984 224.72 622.509 227.848C622.034 230.976 620.137 232.682 618.43 232.682H610.289C610.289 232.682 609.033 230.483 612.069 229.819C615.105 229.155 616.247 225.477 616.058 222.064C615.869 218.651 616.359 214.099 616.359 214.099L622.81 212.596L624.12 214.288Z" fill="#0B0754"/>
<path d="M575.647 232.259C575.25 232.457 573.864 232.592 571.961 232.682H553.552C553.612 232.136 554.042 230.185 557.051 229.699C560.454 229.149 566.346 227.172 567.657 222.824C567.702 222.684 567.741 222.542 567.771 222.397C568.814 217.752 576.404 223.819 576.404 223.819C576.404 223.819 576.425 224.005 576.459 224.32C576.636 226.03 577.084 231.541 575.647 232.259Z" fill="#0B0754"/>
<path d="M557.953 107.997C557.953 107.997 559.107 122.372 560.46 139.649C562.303 163.121 564.518 191.951 564.735 197.414C565.113 206.896 566.635 222.052 566.635 222.052C566.635 222.052 570.242 225.658 577.456 224.137C577.456 224.137 583.88 202.482 585.717 179.569C585.744 179.193 585.774 178.815 585.801 178.436C587.509 155.111 590.166 105.993 590.166 105.993L557.953 107.997Z" fill="#6D89CF"/>
<path d="M557.953 107.997C557.953 107.997 559.107 122.372 560.46 139.648L585.711 179.584C585.738 179.208 585.768 178.829 585.795 178.451C587.503 155.126 590.16 106.008 590.16 106.008L557.953 107.997Z" fill="#3662C1"/>
<path d="M563.217 109.692C563.217 109.692 583.992 161.751 597.654 186.212C611.317 210.673 615.583 217.506 615.583 217.506C615.583 217.506 623.399 214.375 624.12 212.241C624.12 212.241 618.899 165.014 609.748 153.5C604.581 146.995 598.508 127.47 598.223 120.644C597.937 113.817 596.374 100.305 596.374 100.305L563.217 109.692Z" fill="#6D89CF"/>
<path d="M499.139 81.4597C499.139 81.4597 493.502 80.1707 492.552 80.2368C491.602 80.3029 488.287 81.6881 488.244 81.9585C488.202 82.2289 488.356 82.4453 488.93 82.4843C489.504 82.5234 491.389 82.28 491.269 82.5084C491.148 82.7367 485.716 83.8034 485.656 84.9121C485.596 86.0208 488.572 88.037 491.088 88.1752C493.604 88.3134 498.552 85.3899 498.976 85.3508C502.572 85.0233 499.139 81.4597 499.139 81.4597Z" fill="#FC9290"/>
<path d="M496.725 82.8901C495.916 80.3181 496.105 79.9065 496.105 79.9065C496.105 79.9065 518.952 67.5603 521.041 66.3103C523.13 65.0604 546.737 39.9473 546.737 39.9473L570.918 46.5996C570.918 46.5996 533.501 75.09 528.138 78.1487C519.276 83.2176 498.754 86.0871 498.754 86.0871C497.815 85.2121 497.117 84.1115 496.725 82.8901Z" fill="#E75755"/>
<path d="M554.066 27.7392C554.066 27.7392 545.589 42.6484 537.304 44.5924C537.304 44.5924 537.647 39.5866 539.667 36.1613C538.84 35.1878 538.113 34.2924 537.484 33.4902C536.385 32.1098 535.358 30.6725 534.409 29.1845L537.22 21.6277L539.129 16.5017C539.967 18.0352 540.966 19.4746 542.111 20.7954C547.54 27.0361 554.066 27.7392 554.066 27.7392Z" fill="#FC9290"/>
<path d="M542.111 20.7955C542.111 20.7955 543.121 28.2651 537.484 33.4903C536.385 32.1099 535.358 30.6726 534.409 29.1845L537.22 21.6278C540.235 20.7113 542.111 20.7955 542.111 20.7955Z" fill="#EA8888"/>
<path d="M532.176 30.2871C532.176 30.2871 544.84 25.3504 541.645 17.5142C538.449 9.67797 537.944 3.76477 529.708 6.58315C521.471 9.40154 521.143 13.0312 521.591 15.8977C522.039 18.7641 528.797 31.3778 532.176 30.2871Z" fill="#FC9290"/>
<path d="M597.6 104.241C592.49 111.582 554.291 121.392 554.745 116.311C555.05 112.977 555.05 109.622 554.745 106.287C554.649 105.197 554.517 104.043 554.34 102.823C553.369 96.1467 551.063 87.5593 545.922 77.6198C545.538 76.8747 545.135 76.1175 544.72 75.3663C542.625 71.5561 540.853 67.577 539.423 63.4708C536.775 55.8269 535.711 48.5105 537.045 43.7301C537.051 43.7075 537.058 43.6854 537.067 43.664C545.051 39.9712 548.144 25.6599 548.144 25.6599C548.144 25.6599 575.382 30.5485 590.641 66.833C590.641 66.833 602.046 97.8503 597.6 104.241Z" fill="#ED6966"/>
<path d="M554.739 106.288C554.643 105.197 554.511 104.043 554.334 102.823C553.363 96.1468 551.057 87.5594 545.917 77.6199C546.8 72.2716 548.021 67.8247 549.355 65.8206C554.791 57.6839 557.953 56.4099 557.953 56.4099C557.953 56.4099 566.103 90.7564 554.739 106.288Z" fill="#E75755"/>
<path d="M511.791 98.1147C511.791 98.1147 504.255 98.5114 503.089 98.932C501.922 99.3527 498.249 102.279 498.279 102.631C498.309 102.982 498.579 103.202 499.328 103.045C500.077 102.889 502.334 101.913 502.277 102.243C502.22 102.574 495.766 105.849 496.078 107.246C496.391 108.643 500.861 110.13 504.069 109.403C507.276 108.676 512.444 103.238 512.964 103.042C517.386 101.363 511.791 98.1147 511.791 98.1147Z" fill="#FC9290"/>
<path d="M510.375 100.972C508.872 98.5323 509.955 97.4206 509.955 97.4206C509.955 97.4206 533.234 79.2032 535.058 77.3613C536.883 75.5195 545.336 46.2148 545.336 46.2148C545.336 46.2148 548.246 34.3524 555.061 33.0453C560.98 31.9096 565.071 34.8481 567.75 38.2675C569.302 40.2733 570.214 42.7001 570.366 45.2314C570.518 47.7628 569.904 50.2812 568.604 52.4586C562.66 62.4701 550.669 82.3431 547.167 85.7384C539.375 93.2951 513.294 103.854 513.294 103.854C512.113 103.129 511.115 102.143 510.375 100.972Z" fill="#ED6966"/>
<path d="M543.461 2.9566C543.551 2.78233 543.809 2.59604 544.438 2.40374C544.023 2.28356 543.585 2.26705 543.163 2.35567C542.805 1.49032 541.942 0.0120187 540.322 0C540.608 0.0878927 540.871 0.238782 541.091 0.441578C541.311 0.644374 541.483 0.893913 541.594 1.17182C539.372 -0.234367 535.254 -0.630983 524.973 2.77933C511.425 7.28635 518.194 15.1526 520.247 15.7806C522.301 16.4086 526.082 12.3673 529.482 11.8144C532.882 11.2615 534.722 15.9969 536.017 16.3875C537.313 16.7781 536.577 15.7055 537.932 14.6268C539.288 13.5481 540.07 16.0841 540.037 17.8658C540.004 19.6476 542.655 21.3392 542.655 21.3392L544.206 18.4938C545.76 15.6484 545.336 5.31528 543.854 3.45538C543.725 3.29313 543.596 3.13388 543.461 2.9566Z" fill="#0B0754"/>
<path d="M765.96 390.263H1.04011C0.465673 390.263 0 390.728 0 391.302V391.957C0 392.532 0.465673 392.997 1.04011 392.997H765.96C766.534 392.997 767 392.532 767 391.957V391.302C767 390.728 766.534 390.263 765.96 390.263Z" fill="#010117"/>
<path d="M329.309 363.404V378.731L293.013 363.404H329.309Z" fill="#BED2FA"/>
<path d="M639.917 232.682H519.887V390.263H639.917V232.682Z" fill="#6D89CF"/>
<path d="M602.906 232.682H482.876V390.263H602.906V232.682Z" fill="#3662C1"/>
<path d="M639.917 232.682V256.248L602.909 232.682H639.917Z" fill="#BED2FA"/>
</svg>
