<svg width="612" height="403" viewBox="0 0 612 403" fill="none" xmlns="http://www.w3.org/2000/svg">
<path d="M96.4337 121.801H77.803C77.3426 121.801 76.9694 122.172 76.9694 122.63V164.644C76.9694 165.102 77.3426 165.473 77.803 165.473H96.4337C96.8941 165.473 97.2673 165.102 97.2673 164.644V122.63C97.2673 122.172 96.8941 121.801 96.4337 121.801Z" fill="#EBEBFF"/>
<path d="M124.226 144.713H105.862C105.378 144.713 104.986 145.103 104.986 145.583V164.598C104.986 165.079 105.378 165.469 105.862 165.469H124.226C124.709 165.469 125.101 165.079 125.101 164.598V145.583C125.101 145.103 124.709 144.713 124.226 144.713Z" fill="#EBEBFF"/>
<path d="M354.246 15.5579H265.177C264.058 15.5579 263.151 16.4599 263.151 17.5725V241.583C263.151 242.696 264.058 243.598 265.177 243.598H354.246C355.365 243.598 356.271 242.696 356.271 241.583V17.5725C356.271 16.4599 355.365 15.5579 354.246 15.5579Z" fill="#EBEBFF"/>
<path d="M415.24 94.9302H344.714V243.598H415.24V94.9302Z" fill="#EBEBFF"/>
<path d="M288.488 110.898H231.738V243.598H288.488V110.898Z" fill="#EBEBFF"/>
<path d="M241.078 71.6455H154.047C153.126 71.6455 152.38 72.3879 152.38 73.3037V241.94C152.38 242.855 153.126 243.598 154.047 243.598H241.078C241.999 243.598 242.745 242.855 242.745 241.94V73.3037C242.745 72.3879 241.999 71.6455 241.078 71.6455Z" fill="#EBEBFF"/>
<path d="M132.582 152.228H47.7979C47.0175 152.228 46.3849 152.857 46.3849 153.634V242.192C46.3849 242.969 47.0175 243.598 47.7979 243.598H132.582C133.362 243.598 133.995 242.969 133.995 242.192V153.634C133.995 152.857 133.362 152.228 132.582 152.228Z" fill="#EBEBFF"/>
<path d="M64.5948 189.799H1.06283C0.475843 189.799 0 190.272 0 190.856V242.541C0 243.125 0.475843 243.598 1.06283 243.598H64.5948C65.1818 243.598 65.6576 243.125 65.6576 242.541V190.856C65.6576 190.272 65.1818 189.799 64.5948 189.799Z" fill="#EBEBFF"/>
<path d="M223.852 60.5936H171.277C170.573 60.5936 170.002 61.1616 170.002 61.8621V81.8432C170.002 82.5438 170.573 83.1118 171.277 83.1118H223.852C224.556 83.1118 225.127 82.5438 225.127 81.8432V61.8621C225.127 61.1616 224.556 60.5936 223.852 60.5936Z" fill="#EBEBFF"/>
<path d="M610.145 176.649H515.758C514.734 176.649 513.903 177.475 513.903 178.494V241.753C513.903 242.772 514.734 243.598 515.758 243.598H610.145C611.17 243.598 612 242.772 612 241.753V178.494C612 177.475 611.17 176.649 610.145 176.649Z" fill="#EBEBFF"/>
<path d="M559.625 149.845H539.815C538.894 149.845 538.148 150.587 538.148 151.503V202.637C538.148 203.553 538.894 204.295 539.815 204.295H559.625C560.546 204.295 561.293 203.553 561.293 202.637V151.503C561.293 150.587 560.546 149.845 559.625 149.845Z" fill="#EBEBFF"/>
<path d="M66.0827 141.898H54.8835C54.2482 141.898 53.7331 142.41 53.7331 143.042V163.848C53.7331 164.48 54.2482 164.992 54.8835 164.992H66.0827C66.7181 164.992 67.2331 164.48 67.2331 163.848V143.042C67.2331 142.41 66.7181 141.898 66.0827 141.898Z" fill="#EBEBFF"/>
<path d="M594.824 165.378H577.368C576.71 165.378 576.176 165.908 576.176 166.563V203.109C576.176 203.764 576.71 204.295 577.368 204.295H594.824C595.482 204.295 596.016 203.764 596.016 203.109V166.563C596.016 165.908 595.482 165.378 594.824 165.378Z" fill="#EBEBFF"/>
<path d="M477.529 77.6812V242.47C477.529 243.1 476.842 243.606 475.996 243.606H395.292C394.458 243.606 393.762 243.1 393.762 242.47V30.8503C393.762 29.9051 395.229 29.3745 396.234 29.9549L476.938 76.7982C477.106 76.8805 477.249 77.0054 477.353 77.1605C477.457 77.3156 477.518 77.4952 477.529 77.6812Z" fill="#EBEBFF"/>
<path d="M461.545 128.649V242.574C461.545 243.142 462.162 243.598 462.925 243.598H519.134C519.897 243.598 520.514 243.142 520.514 242.574V96.5221C520.514 95.6682 519.196 95.1873 518.292 95.6931L462.083 127.824C461.927 127.901 461.795 128.018 461.701 128.164C461.606 128.309 461.553 128.476 461.545 128.649Z" fill="#EBEBFF"/>
<path d="M115.456 128.293V243.299C115.456 243.465 115.635 243.598 115.873 243.598H174.02C174.241 243.598 174.437 243.465 174.437 243.299V95.0421C174.437 94.7934 174.053 94.6566 173.786 94.8058L115.61 128.056C115.566 128.078 115.528 128.112 115.501 128.154C115.474 128.195 115.458 128.243 115.456 128.293Z" fill="#EBEBFF"/>
<path d="M331.343 0H288.08C287.304 0 286.675 0.625465 286.675 1.39702V22.3481C286.675 23.1197 287.304 23.7451 288.08 23.7451H331.343C332.119 23.7451 332.748 23.1197 332.748 22.3481V1.39702C332.748 0.625465 332.119 0 331.343 0Z" fill="#EBEBFF"/>
<path d="M183.898 63.7318L197.264 16.7391C197.293 16.6854 197.336 16.6404 197.389 16.6091C197.441 16.5777 197.501 16.5612 197.563 16.5612C197.624 16.5612 197.684 16.5777 197.736 16.6091C197.789 16.6404 197.832 16.6854 197.861 16.7391L211.227 63.7318C211.265 63.8728 211.123 64.0054 210.927 64.0054H184.194C184.002 64.0054 183.877 63.8728 183.898 63.7318Z" fill="#EBEBFF"/>
<path d="M375.436 375.916C375.436 375.916 321.828 387.337 320.294 386.582C318.76 385.828 314.417 375.149 297.058 364.238C279.698 353.328 271.529 339.101 269.999 332.24C268.47 325.379 275.105 270.286 273.575 265.718C273.109 264.313 269.241 258.14 264.339 250.115C261.622 245.65 258.579 240.605 255.624 235.494C246.601 219.886 238.423 203.611 242.703 200.962C247.401 198.061 254.374 203.686 259.459 209.013C261.77 211.446 263.933 214.016 265.936 216.707L271.946 227C285.433 250.115 317.085 304.569 319.294 310.149C322.078 317.258 375.436 375.916 375.436 375.916Z" fill="#F7D2B7"/>
<g style="mix-blend-mode:multiply">
<path d="M272.913 328.695C282.136 338.674 318.127 341.318 322.741 338.794C327.355 336.269 321.803 325.027 325.608 316.769C329.413 308.511 272.913 328.695 272.913 328.695Z" fill="#E6E6E6"/>
</g>
<g style="mix-blend-mode:multiply">
<path d="M264.339 250.115C261.622 245.65 258.579 240.605 255.624 235.494C254.549 226.274 255.466 215.405 259.442 209.013C261.754 211.446 263.917 214.015 265.919 216.707L271.929 227C272.846 234.18 268.636 246.682 264.339 250.115Z" fill="#E6E6E6"/>
</g>
<path d="M344.514 188.472V321.98C344.514 324.619 343.46 327.149 341.584 329.015C339.708 330.881 337.164 331.929 334.511 331.929H264.431C263.037 331.919 261.703 331.364 260.718 330.383C259.733 329.403 259.175 328.076 259.167 326.689V188.472C259.167 185.833 260.221 183.303 262.097 181.437C263.973 179.571 266.517 178.523 269.17 178.523H334.536C336.191 178.529 337.819 178.943 339.274 179.729C340.729 180.515 341.965 181.647 342.871 183.025C343.947 184.64 344.518 186.535 344.514 188.472Z" fill="#015DA6"/>
<path d="M264.431 327.552C264.255 327.553 264.083 327.5 263.939 327.398C263.823 327.317 263.727 327.21 263.66 327.085C263.592 326.961 263.555 326.822 263.552 326.681V188.472C263.554 186.994 264.145 185.577 265.196 184.532C266.247 183.487 267.671 182.899 269.157 182.896H334.527C336.014 182.897 337.439 183.485 338.49 184.531C339.541 185.576 340.132 186.994 340.133 188.472V321.98C340.131 323.458 339.54 324.874 338.489 325.919C337.438 326.963 336.013 327.55 334.527 327.552H264.431Z" fill="#D6EEFF"/>
<path d="M320.06 279.605H284.229C283.713 279.605 283.295 280.021 283.295 280.534V293.99C283.295 294.503 283.713 294.918 284.229 294.918H320.06C320.576 294.918 320.994 294.503 320.994 293.99V280.534C320.994 280.021 320.576 279.605 320.06 279.605Z" fill="#CE462C"/>
<path d="M358.968 295.117C358.968 314.162 361.652 341.961 349.207 354.92C337.382 367.215 320.486 348.059 318.668 339.581C318.573 339.173 318.519 338.757 318.506 338.338C318.21 326.639 323.091 318.572 328.509 312.304C333.927 306.036 339.725 301.651 341.538 297.198C345.177 288.244 343.622 279.87 351.874 268.255C360.127 256.639 369.109 257.589 369.109 259.682C369.109 261.776 358.968 276.048 358.968 295.117Z" fill="#F7D2B7"/>
<path d="M263.868 314.655C249.28 312.69 242.787 293.364 248.63 290.172L248.668 290.147C249.031 289.957 249.424 289.831 249.831 289.774C249.831 289.774 257.929 297.165 263.414 303.914C264.356 305.062 265.219 306.198 265.952 307.272C269.116 311.919 269.853 315.463 263.868 314.655Z" fill="#F7D2B7"/>
<g style="mix-blend-mode:multiply">
<path d="M268.374 305.663C266.669 305.235 265.009 304.649 263.414 303.914C264.356 305.062 265.219 306.198 265.952 307.272C256.783 306.248 249.093 295.043 248.676 290.276C248.68 290.24 248.68 290.204 248.676 290.168C248.604 289.625 248.725 289.073 249.018 288.609C249.018 288.609 267.849 301.369 269.082 305.842C268.845 305.779 268.615 305.725 268.374 305.663Z" fill="#E6E6E6"/>
</g>
<path d="M269.074 305.821C268.845 305.779 268.615 305.726 268.374 305.663C266.669 305.235 265.009 304.65 263.414 303.914C257.02 300.975 251.977 295.851 248.676 290.263C248.676 290.238 248.643 290.209 248.63 290.18C243.141 280.845 242.532 270.241 248.63 266.489C248.813 266.373 249.001 266.269 249.201 266.166C249.201 266.166 263.601 282.221 270.649 293.965C275.209 301.597 276.684 307.417 269.074 305.821Z" fill="#F7D2B7"/>
<g style="mix-blend-mode:multiply">
<path d="M270.629 293.957C254.04 289.326 248.309 272.434 248.609 266.481C248.793 266.365 248.98 266.261 249.18 266.157C249.18 266.157 263.581 282.213 270.629 293.957Z" fill="#E6E6E6"/>
</g>
<path d="M245.367 250.724C242.337 266.062 262.505 291.531 276.21 292.178C289.835 292.837 270.595 265.204 263.518 258.31C256.441 251.416 246.484 245.082 245.367 250.724Z" fill="#F7D2B7"/>
<path d="M312.25 377.375C314.334 375.302 375.436 365.188 376.582 366.328C377.728 367.468 380.221 375.091 380.221 377.184C380.221 379.278 312.25 377.375 312.25 377.375Z" fill="#F7F5FF"/>
<path d="M309.378 376.803C313.392 376.517 381.375 374.138 383.288 375.091C385.201 376.045 401.669 396.991 401.098 398.894C400.527 400.797 317.039 404.797 315.697 401.75C314.355 398.704 306.698 376.994 309.378 376.803Z" fill="#25144F"/>
<path d="M289.239 257.97C289.066 257.97 288.898 257.911 288.763 257.804C288.627 257.697 288.533 257.548 288.493 257.38C288.454 257.212 288.473 257.037 288.547 256.881C288.621 256.726 288.746 256.6 288.901 256.524L297.387 252.424C297.414 252.414 297.437 252.395 297.45 252.369C297.463 252.344 297.466 252.314 297.458 252.287L281.961 217.246C281.946 217.218 281.923 217.194 281.895 217.179C281.867 217.163 281.835 217.156 281.803 217.159H273.951C273.757 217.144 273.575 217.058 273.442 216.916C273.31 216.774 273.236 216.587 273.236 216.394C273.236 216.2 273.31 216.014 273.442 215.872C273.575 215.73 273.757 215.643 273.951 215.629H281.824C282.154 215.627 282.478 215.721 282.756 215.899C283.033 216.077 283.253 216.332 283.387 216.632L298.883 251.669C299.048 252.059 299.056 252.497 298.907 252.894C298.757 253.29 298.461 253.614 298.079 253.8L289.593 257.896C289.482 257.947 289.361 257.973 289.239 257.97Z" fill="#300046"/>
<path d="M298.896 252.011L298.417 253.5L313.44 258.277L313.918 256.788L298.896 252.011Z" fill="#300046"/>
<path d="M318.577 246.052H295.436C295.238 246.038 295.052 245.949 294.917 245.804C294.781 245.659 294.706 245.469 294.706 245.271C294.706 245.073 294.781 244.882 294.917 244.737C295.052 244.592 295.238 244.504 295.436 244.489H318.577C318.609 244.489 318.64 244.479 318.666 244.459C318.692 244.44 318.71 244.413 318.718 244.382L322.949 229.582C322.954 229.562 322.954 229.541 322.951 229.52C322.947 229.499 322.939 229.48 322.927 229.462C322.915 229.445 322.9 229.43 322.882 229.418C322.865 229.407 322.845 229.399 322.824 229.396L286.25 224.421C286.148 224.407 286.05 224.374 285.961 224.322C285.872 224.27 285.794 224.202 285.732 224.12C285.669 224.039 285.624 223.946 285.598 223.846C285.571 223.747 285.565 223.644 285.579 223.543C285.593 223.441 285.627 223.343 285.679 223.255C285.731 223.166 285.8 223.089 285.882 223.027C285.964 222.965 286.057 222.92 286.157 222.894C286.257 222.867 286.361 222.861 286.463 222.875L323.036 227.85C323.281 227.883 323.515 227.967 323.724 228.098C323.932 228.229 324.11 228.403 324.245 228.608C324.379 228.814 324.468 229.046 324.505 229.288C324.542 229.53 324.528 229.777 324.462 230.013L320.231 244.813C320.127 245.169 319.909 245.483 319.611 245.706C319.313 245.929 318.95 246.051 318.577 246.052Z" fill="#300046"/>
<path d="M320.373 240.601H293.19C293.117 240.607 293.044 240.599 292.975 240.575C292.906 240.552 292.842 240.515 292.788 240.466C292.735 240.417 292.692 240.358 292.662 240.291C292.633 240.225 292.618 240.153 292.618 240.081C292.618 240.008 292.633 239.936 292.662 239.87C292.692 239.804 292.735 239.744 292.788 239.695C292.842 239.646 292.906 239.609 292.975 239.586C293.044 239.562 293.117 239.554 293.19 239.56H320.373C320.446 239.554 320.519 239.562 320.588 239.586C320.657 239.609 320.72 239.646 320.774 239.695C320.828 239.744 320.871 239.804 320.9 239.87C320.93 239.936 320.945 240.008 320.945 240.081C320.945 240.153 320.93 240.225 320.9 240.291C320.871 240.358 320.828 240.417 320.774 240.466C320.72 240.515 320.657 240.552 320.588 240.575C320.519 240.599 320.446 240.607 320.373 240.601Z" fill="#300046"/>
<path d="M322.374 234.88L290.797 233.636C290.723 233.634 290.65 233.616 290.582 233.586C290.514 233.555 290.453 233.511 290.403 233.457C290.352 233.402 290.312 233.339 290.286 233.269C290.261 233.2 290.249 233.126 290.251 233.052C290.252 232.977 290.268 232.904 290.298 232.835C290.328 232.767 290.372 232.706 290.427 232.655C290.482 232.605 290.547 232.566 290.618 232.541C290.689 232.517 290.764 232.507 290.839 232.513L322.415 233.757C322.557 233.769 322.689 233.833 322.784 233.937C322.88 234.041 322.934 234.177 322.934 234.318C322.934 234.459 322.88 234.596 322.784 234.7C322.689 234.804 322.557 234.868 322.415 234.88H322.374Z" fill="#300046"/>
<path d="M300.659 245.397C300.584 245.397 300.511 245.383 300.442 245.355C300.373 245.327 300.311 245.286 300.258 245.234C300.205 245.182 300.163 245.12 300.135 245.052C300.106 244.984 300.092 244.911 300.092 244.837V225.814C300.085 225.736 300.095 225.658 300.12 225.584C300.145 225.51 300.186 225.442 300.239 225.384C300.292 225.327 300.356 225.281 300.428 225.249C300.5 225.218 300.578 225.202 300.657 225.202C300.735 225.202 300.813 225.218 300.885 225.249C300.957 225.281 301.021 225.327 301.074 225.384C301.127 225.442 301.168 225.51 301.193 225.584C301.218 225.658 301.228 225.736 301.221 225.814V244.837C301.221 244.986 301.162 245.128 301.057 245.233C300.951 245.338 300.808 245.397 300.659 245.397Z" fill="#300046"/>
<path d="M311.095 245.372H311.049C310.906 245.361 310.774 245.293 310.681 245.184C310.588 245.075 310.542 244.934 310.553 244.792L311.95 227.381C311.966 227.242 312.035 227.115 312.144 227.026C312.253 226.938 312.392 226.894 312.532 226.906C312.672 226.917 312.802 226.982 312.895 227.087C312.988 227.192 313.036 227.329 313.029 227.468L311.633 244.879C311.622 245.013 311.561 245.139 311.461 245.231C311.362 245.322 311.231 245.373 311.095 245.372Z" fill="#300046"/>
<path d="M288.188 260.644C289.972 260.644 291.418 259.206 291.418 257.432C291.418 255.657 289.972 254.219 288.188 254.219C286.404 254.219 284.958 255.657 284.958 257.432C284.958 259.206 286.404 260.644 288.188 260.644Z" fill="#300046"/>
<path d="M315.351 260.644C317.135 260.644 318.581 259.206 318.581 257.432C318.581 255.657 317.135 254.219 315.351 254.219C313.567 254.219 312.12 255.657 312.12 257.432C312.12 259.206 313.567 260.644 315.351 260.644Z" fill="#300046"/>
<path d="M323.399 233.454C326.235 233.454 328.534 231.167 328.534 228.347C328.534 225.526 326.235 223.24 323.399 223.24C320.563 223.24 318.264 225.526 318.264 228.347C318.264 231.167 320.563 233.454 323.399 233.454Z" fill="#CE462C"/>
<path d="M321.703 231.025V230.656C321.806 230.405 321.947 230.17 322.119 229.959C322.303 229.746 322.498 229.543 322.703 229.35C322.911 229.155 323.12 228.969 323.332 228.79C323.545 228.612 323.749 228.434 323.899 228.256C324.057 228.088 324.197 227.905 324.316 227.708C324.419 227.528 324.473 227.323 324.474 227.116C324.478 226.961 324.451 226.808 324.395 226.664C324.347 226.54 324.27 226.429 324.17 226.34C324.07 226.253 323.952 226.19 323.824 226.154C323.678 226.111 323.526 226.09 323.374 226.092C323.105 226.082 322.842 226.169 322.632 226.336C322.529 226.427 322.445 226.537 322.385 226.66C322.325 226.783 322.29 226.917 322.282 227.053L321.757 227C321.778 226.82 321.829 226.645 321.907 226.481C321.984 226.324 322.092 226.183 322.224 226.067C322.366 225.939 322.533 225.841 322.715 225.781C322.931 225.706 323.158 225.669 323.386 225.673C323.614 225.671 323.84 225.703 324.057 225.768C324.245 225.824 324.42 225.917 324.57 226.042C324.713 226.16 324.824 226.311 324.895 226.481C324.973 226.675 325.011 226.882 325.008 227.091C325.011 227.273 324.978 227.455 324.912 227.626C324.848 227.796 324.763 227.958 324.658 228.106C324.55 228.263 324.427 228.409 324.291 228.542C324.153 228.683 324.007 228.819 323.853 228.956L323.395 229.371C323.241 229.499 323.095 229.632 322.978 229.785C322.845 229.915 322.721 230.054 322.607 230.2C322.503 230.326 322.416 230.466 322.349 230.614H325.104V231.07L321.703 231.025Z" fill="white"/>
<path d="M173.165 380.837C223.987 380.837 265.185 369.371 265.185 355.226C265.185 341.082 223.987 329.616 173.165 329.616C122.344 329.616 81.1456 341.082 81.1456 355.226C81.1456 369.371 122.344 380.837 173.165 380.837Z" fill="#EBEBFF"/>
<path d="M136.433 282.59C134.816 281.612 130.182 275.982 130.436 273.151C130.69 270.319 139.005 266.489 139.801 266.804C140.597 267.119 143.035 276.21 142.498 277.317C141.96 278.424 136.433 282.59 136.433 282.59Z" fill="#25144F"/>
<path d="M141.835 281.989C141.681 282.756 141.468 283.647 141.227 284.737C140.948 285.957 140.741 287.192 140.606 288.435C140.372 290.736 140.535 292.091 140.464 292.506C140.372 293.099 131.382 291.648 131.069 289.977C130.757 288.307 135.2 282.623 136.371 280.977C136.683 280.609 137.018 280.261 137.375 279.937C138.064 279.244 138.91 278.728 139.843 278.432C140.107 278.358 140.383 278.334 140.656 278.362C142.169 278.536 142.31 279.481 141.835 281.989Z" fill="#DBA179"/>
<g style="mix-blend-mode:multiply">
<path d="M141.835 281.989C141.681 282.756 141.468 283.647 141.227 284.737C140.948 285.957 140.741 287.192 140.606 288.435C137.163 286.201 137.367 282.996 137.609 281.744C137.813 280.683 137.609 280.683 137.375 279.937C138.063 279.244 138.91 278.728 139.843 278.432C140.301 279.1 140.91 280.31 141.835 281.989Z" fill="#E6E6E6"/>
</g>
<path d="M150.813 272.106C150.35 288.522 146.262 288.016 145.524 287.892C144.098 287.656 139.134 286.084 138.288 283.684C137.442 281.284 143.79 271.899 143.873 271.77C143.957 271.642 150.813 272.106 150.813 272.106Z" fill="#F4B387"/>
<path d="M142.244 276.969C140.868 273.835 138.667 274.253 137.946 275.431C136.834 277.259 137.63 280.252 140.635 280.443C143.64 280.633 142.244 276.969 142.244 276.969Z" fill="#F4B387"/>
<path d="M169.827 335.025C169.719 334.855 169.26 334.196 168.723 333.562C168.185 332.928 167.535 332.289 167.055 332.186C166.576 332.082 165.901 332.347 165.167 332.6C164.434 332.853 163.592 333.197 163.025 333.114C161.239 332.78 159.478 332.329 157.753 331.763C157.59 331.713 157.448 331.651 157.307 331.601C156.947 331.495 156.614 331.312 156.331 331.066C156.328 331.046 156.328 331.025 156.331 331.004C156.314 330.94 156.313 330.873 156.327 330.808C156.342 330.743 156.372 330.682 156.415 330.631C156.415 330.631 156.415 330.611 156.415 330.602C156.627 330.631 156.852 330.681 157.094 330.722C157.042 330.521 156.945 330.334 156.811 330.175C157.451 329.658 158.138 329.199 158.861 328.803C159.249 328.985 159.541 329.147 159.816 329.259C160.458 329.549 160.945 329.611 162.133 329.218C163.8 328.65 167.618 327.257 168.347 327.609C168.989 327.912 172.595 333.55 173.895 335.046C174.099 335.278 174.241 335.398 174.312 335.411C174.908 335.44 170.052 335.369 169.827 335.025Z" fill="#E0A47C"/>
<path d="M141.364 274.73L141.464 275.626C143.332 274.564 145.356 273.803 147.462 273.37C150.071 272.902 150.667 273.337 150.825 273.213C150.984 273.089 152.076 269.519 152.076 266.804C152.076 264.089 151.734 261.896 151.613 261.726C151.492 261.556 139.826 266.804 139.826 266.804L141.364 274.73Z" fill="#25144F"/>
<path d="M130.436 273.147C131.128 266.34 141.227 262.671 143.998 261.726C145.482 261.22 151.326 259.873 151.642 261.904C151.959 263.936 143.969 264.549 137.801 267.832C135.146 269.312 132.674 271.096 130.436 273.147Z" fill="#3A2278"/>
<path d="M190.508 358.99C184.169 363.173 168.447 365.171 162.687 361.606C162.31 361.373 161.963 361.094 161.654 360.777C161.606 360.733 161.561 360.686 161.52 360.636C159.995 358.949 161.712 357.585 164.467 356.553C169.085 354.807 176.633 353.958 176.633 353.958C179.687 353.255 182.815 352.929 185.949 352.988C192.48 353.232 195.356 355.798 190.508 358.99Z" fill="#071B4D"/>
<g style="mix-blend-mode:multiply">
<path d="M156.827 330.175L156.41 330.59C156.623 330.619 156.848 330.669 157.09 330.71C157.038 330.509 156.941 330.322 156.806 330.163C157.447 329.645 158.134 329.186 158.857 328.791C159.245 328.973 159.536 329.135 159.811 329.247C159.668 329.911 159.411 330.546 159.053 331.125C158.836 331.469 158.594 331.722 158.382 331.759C158.169 331.791 157.953 331.791 157.74 331.759C157.592 331.745 157.445 331.717 157.302 331.676C156.905 331.598 156.545 331.393 156.277 331.091C156.152 330.93 156.084 330.732 156.085 330.528C156.188 330.538 156.289 330.555 156.39 330.577L156.827 330.175Z" fill="#E6E6E6"/>
</g>
<path d="M144.169 317.946C146.749 320.682 159.703 328.807 159.616 329.189C159.528 329.57 158.053 331.713 156.781 331.796C155.51 331.879 142.264 333.143 141.46 330.66C140.656 328.177 144.169 317.946 144.169 317.946Z" fill="#9893EB"/>
<path d="M144.132 345.775C143.786 347.371 135.525 355.454 130.682 357.05C129.636 357.394 128.744 357.436 128.131 357.05C125.593 355.454 122.517 346.595 120.212 334.449C119.345 329.964 118.586 325.027 117.994 319.841C115.79 300.647 125.105 290.624 128.831 289.028C131.878 287.718 137 288.199 140.918 291.979C143.123 294.081 144.807 298.123 145.236 302.082C145.665 306.041 144.549 343.835 144.132 345.775Z" fill="#A49FFF"/>
<g style="mix-blend-mode:multiply">
<path d="M130.682 357.05C129.635 357.394 128.744 357.436 128.131 357.05C125.593 355.454 122.517 346.596 120.212 334.45C123.442 340.717 126.359 350.372 128.027 350.148C129.94 349.899 136.471 346.111 138.38 346.554C140.047 346.935 134.47 354.725 130.682 357.05Z" fill="#E6E6E6"/>
</g>
<g style="mix-blend-mode:multiply">
<path d="M185.961 353.008C186.003 359.081 168.722 361.635 162.7 361.606C162.141 361.625 161.581 361.581 161.033 361.473C161.033 361.473 161.216 361.171 161.541 360.644C162.447 359.231 163.431 357.867 164.488 356.561C169.106 354.816 176.654 353.966 176.654 353.966C179.705 353.268 182.831 352.947 185.961 353.008Z" fill="#E6E6E6"/>
</g>
<path d="M144.148 344.656C127.935 348.987 124.976 357.158 129.802 362.066C134.629 366.974 149.292 366.423 159.703 362.895C170.115 359.368 191 350.583 193.73 345.534C196.46 340.485 193.73 337.766 188.779 337.451C183.827 337.136 148.4 343.52 144.148 344.656Z" fill="#173B9E"/>
<path d="M176.625 336.008C176.683 336.423 171.503 338.947 166.651 338.471C161.8 337.994 159.478 336.17 158.594 335.917C157.982 335.87 157.367 335.907 156.765 336.025L155.514 336.22C153.664 336.51 151.692 336.866 151.563 336.672C151.338 336.319 155.656 330.478 155.656 330.478C155.798 330.478 155.948 330.52 156.123 330.553C156.225 330.563 156.327 330.58 156.427 330.603C156.64 330.632 156.865 330.681 157.107 330.723C157.673 330.835 158.332 330.976 159.057 331.137C160.833 331.531 162.975 332.066 165.159 332.621C166.347 332.937 167.547 333.247 168.706 333.562C170.673 334.097 172.503 334.624 173.895 335.047C175.541 335.54 176.604 335.905 176.625 336.008Z" fill="#F4B387"/>
<g style="mix-blend-mode:multiply">
<path d="M156.786 336.025L155.952 336.149L155.506 336.22C155.668 334.504 155.935 332.8 156.306 331.117C156.312 331.087 156.312 331.056 156.306 331.026C156.335 330.893 156.369 330.764 156.39 330.652V330.623L156.431 330.582L156.402 330.615C156.419 330.611 156.436 330.611 156.452 330.615C156.644 330.644 156.869 330.686 157.081 330.727C157.177 331.019 157.241 331.321 157.273 331.627C157.273 331.656 157.273 331.676 157.273 331.705C157.384 333.163 157.218 334.628 156.786 336.025Z" fill="#E6E6E6"/>
</g>
<path d="M155.952 336.157C155.939 336.195 155.923 336.231 155.902 336.265C155.585 336.771 135.454 340.825 130.444 337.782C125.434 334.74 124.28 320.488 125.176 309.241C126.072 297.995 129.665 291.644 136.033 293.957C139.843 295.35 141.306 301.858 139.964 308.292C138.622 314.726 135.454 328.439 136.346 328.567C137.238 328.696 155.018 329.699 156.215 330.329C156.318 330.38 156.404 330.461 156.46 330.561C156.464 330.567 156.465 330.575 156.465 330.582C156.465 330.589 156.464 330.596 156.46 330.603C157.152 331.772 156.29 335.361 155.952 336.157Z" fill="#B7B3FF"/>
<path d="M190.963 335.718L164.767 338.86C164.683 338.87 164.601 338.897 164.527 338.938C164.453 338.98 164.388 339.036 164.336 339.102C164.284 339.169 164.245 339.245 164.223 339.327C164.2 339.408 164.194 339.493 164.204 339.577C164.214 339.661 164.241 339.743 164.282 339.817C164.324 339.891 164.38 339.956 164.447 340.008C164.514 340.061 164.591 340.099 164.673 340.122C164.755 340.145 164.841 340.151 164.925 340.141L191.117 336.999C191.287 336.978 191.443 336.891 191.549 336.756C191.655 336.622 191.704 336.451 191.684 336.282C191.662 336.112 191.574 335.958 191.439 335.853C191.304 335.748 191.133 335.699 190.963 335.718Z" fill="black"/>
<path d="M203.191 313.03L190.496 336.033C190.455 336.107 190.429 336.189 190.42 336.273C190.41 336.357 190.418 336.442 190.442 336.524C190.466 336.605 190.506 336.681 190.56 336.747C190.613 336.813 190.679 336.867 190.754 336.908C190.829 336.948 190.911 336.974 190.996 336.983C191.08 336.992 191.166 336.985 191.248 336.961C191.33 336.937 191.406 336.897 191.472 336.844C191.538 336.791 191.593 336.725 191.634 336.65L204.325 313.647C204.366 313.573 204.392 313.492 204.402 313.408C204.412 313.324 204.404 313.239 204.381 313.158C204.357 313.076 204.318 313.001 204.264 312.935C204.211 312.868 204.145 312.813 204.071 312.773C203.996 312.732 203.914 312.706 203.83 312.697C203.745 312.688 203.659 312.695 203.577 312.719C203.496 312.743 203.419 312.783 203.353 312.836C203.287 312.89 203.232 312.955 203.191 313.03Z" fill="black"/>
<path d="M460.641 355.077C507.068 355.077 544.704 344.602 544.704 331.681C544.704 318.759 507.068 308.284 460.641 308.284C414.214 308.284 376.578 318.759 376.578 331.681C376.578 344.602 414.214 355.077 460.641 355.077Z" fill="#EBEBFF"/>
<path d="M468.522 309.257C468.629 311.844 468.459 314.434 468.014 316.984L467.151 315.961L464.48 312.773C464.48 312.773 464.671 310.667 464.671 310.095C464.671 309.523 464.48 307.989 464.48 307.989C464.48 307.989 463.646 311.243 463.396 311.243C463.146 311.243 458.961 308.383 458.128 307.989C457.294 307.595 453.193 308.109 451.909 306.074C450.625 304.038 440.685 289.16 440.685 289.16C440.685 289.16 440.114 284.186 439.622 280.194C439.322 277.765 439.051 275.713 438.951 275.377C438.688 274.49 436.396 263.625 437.921 260.959C439.172 258.779 441.848 257.489 444.548 257.46C444.906 257.455 445.264 257.473 445.62 257.514C449.371 257.929 455.502 260.192 459.736 273.976C463.488 286.221 465.434 291.411 466.676 293.807C466.834 294.114 466.976 294.367 467.093 294.587C468.268 296.502 471.44 299.076 471.64 299.238C471.436 299.176 468.122 298.148 466.193 295.669C464.204 293.119 463.112 291.523 463.112 291.523C463.112 291.523 463.333 295.196 464.53 297.518C466.088 300.506 468.331 305.116 468.522 309.257Z" fill="#3A0982"/>
<path d="M452.101 278.909C452.201 279.323 446.758 280.438 446.758 280.438C446.758 280.438 446.683 279.435 446.537 278.225C446.341 276.633 446.037 274.664 445.657 274.121C445.657 274.121 445.682 273.992 445.732 273.793C445.949 272.927 446.649 270.738 448.012 271.633C448.189 271.751 448.35 271.89 448.491 272.048C448.629 272.193 448.767 272.359 448.908 272.546C450.413 274.527 452.018 278.536 452.101 278.909Z" fill="#FFCAB0"/>
<g style="mix-blend-mode:multiply">
<path d="M448.491 272.048C447.528 272.559 446.606 273.143 445.732 273.793C445.682 273.992 445.657 274.121 445.657 274.121C446.037 274.664 446.341 276.633 446.537 278.225C447.37 276.84 448.658 274.229 448.912 272.546L448.491 272.048Z" fill="#E6E6E6"/>
</g>
<path d="M436.896 268.359C436.896 272.89 438.98 278.254 441.61 278.905C444.945 279.734 449.921 271.998 449.342 269.955C448.762 267.911 444.403 262.298 442.606 262.045C440.81 261.792 438.18 264.47 437.792 265.49C437.405 266.51 436.896 268.359 436.896 268.359Z" fill="#FFCAB0"/>
<path d="M443.344 302.691C443.344 302.691 440.218 298.575 436.221 296.473C432.224 294.371 431.361 293.264 430.928 292.261C430.494 291.258 428.844 288.004 428.235 287.378C427.627 286.752 423.425 282.258 423.234 282.258C423.042 282.258 425.209 290.3 426.939 292.692C428.669 295.084 441.039 308.292 443.011 307.434C444.982 306.575 443.344 302.691 443.344 302.691Z" fill="#FFCAB0"/>
<path d="M429.461 288.63C429.461 287.598 429.198 286.474 428.74 286.354C428.281 286.234 427.585 286.188 427.443 286.329C427.302 286.47 429.461 288.63 429.461 288.63Z" fill="#FFCAB0"/>
<g style="mix-blend-mode:multiply">
<path d="M464.48 312.773C464.48 312.773 464.671 310.667 464.671 310.095C464.671 309.523 464.48 307.989 464.48 307.989C464.48 307.989 463.646 311.243 463.396 311.243C463.146 311.243 458.961 308.383 458.128 307.989C457.294 307.595 453.193 308.109 451.909 306.074C450.625 304.039 440.685 289.16 440.685 289.16C440.685 289.16 440.114 284.186 439.622 280.194C443.065 286.777 449.167 296.672 454.989 300.142C460.987 303.707 466.214 306.451 467.151 315.961L464.48 312.773Z" fill="#CCCCCC"/>
</g>
<path d="M471.157 331.846C467.243 331.15 464.996 333.505 463.071 332.493C461.145 331.482 459.736 331.15 459.09 327.324C458.444 323.497 457.619 311.243 458.007 306.265C458.244 303.143 457.507 298.803 456.965 295.524C456.927 295.317 456.898 295.109 456.861 294.91C456.598 293.252 456.406 291.946 456.444 291.333C456.569 290.147 457.607 287.635 458.34 285.973C458.49 285.62 458.632 285.314 458.757 285.053L459.074 284.377C459.128 284.472 459.19 284.572 459.245 284.671C459.299 284.771 459.407 284.945 459.482 285.086C459.557 285.227 459.62 285.339 459.691 285.5C459.757 285.633 459.828 285.761 459.899 285.915C462.579 291.051 463.799 296.817 463.429 302.592C462.854 310.634 460.608 327.8 461.637 328.82C462.667 329.84 465.609 327.61 467.151 327.8C468.693 327.991 475.233 331.436 475.879 331.627C476.525 331.817 475.066 332.551 471.157 331.846Z" fill="#FFCAB0"/>
<path d="M448.683 339.059C448.375 338.686 445.932 337.45 443.84 336.609C442.978 336.219 442.067 335.948 441.131 335.805C441.131 335.805 436.546 332.405 433.716 329.972C432.399 328.832 431.478 327.899 431.599 327.622C431.986 326.764 432.37 327.29 435.117 328.036C437.863 328.782 443.677 333.197 444.786 333.425C445.895 333.653 448.446 333.326 449.212 333.661C449.979 333.997 449.167 339.635 448.683 339.059Z" fill="#FFCAB0"/>
<path d="M456.398 344.887C456.225 346.173 455.871 347.429 455.348 348.618C454.931 349.476 454.514 349.833 454.31 349.567C453.893 349.045 451.293 343.196 450.367 342.002C449.442 340.808 447.004 338.984 447.229 338.71C447.454 338.437 449.113 336.804 448.896 335.506C448.679 334.209 447.1 332.774 447.2 332.492C447.3 332.21 454.548 333.603 455.248 335.232C455.256 335.257 455.266 335.28 455.277 335.303C455.973 336.986 456.907 341.608 456.398 344.887Z" fill="#6C50CC"/>
<path d="M439.589 313.154C426.889 313.026 406.808 316.856 405.524 320.749C404.24 324.641 446.97 328.405 447.62 327.829C448.271 327.253 439.589 313.154 439.589 313.154Z" fill="#907AE0"/>
<g style="mix-blend-mode:multiply">
<path d="M443.84 336.609C442.978 336.219 442.067 335.949 441.131 335.805C441.131 335.805 436.546 332.406 433.716 329.972C433.987 328.729 434.295 327.829 434.295 327.829C436.038 328.281 442.331 332.107 443.84 336.609Z" fill="#E6E6E6"/>
</g>
<path d="M405.266 323.364C405.462 326.681 406.808 330.192 414.764 332.041C422.721 333.89 443.311 337.082 443.311 336.381C443.311 335.681 436.388 328.389 434.075 327.448C425.86 324.131 421.933 322.473 416.302 322.278C407.579 322.009 405.266 323.364 405.266 323.364Z" fill="#A58CFF"/>
<path d="M409.78 321.366C409.651 322.004 405.291 325.316 404.645 326.66C403.999 328.003 403.878 328.985 403.107 329.852C402.336 330.718 397.017 328.065 398.364 327.522C399.226 327.169 400.544 326 401.665 324.86C401.798 324.728 401.919 324.599 402.044 324.446C402.382 324.089 402.698 323.741 402.961 323.443C403.044 323.343 403.136 323.244 403.236 323.132C404.232 322.377 405.268 321.676 406.341 321.034C406.798 320.752 407.286 320.522 407.796 320.35C408.796 320.068 409.421 320.35 409.667 320.74C409.728 320.831 409.77 320.933 409.789 321.041C409.809 321.149 409.805 321.259 409.78 321.366Z" fill="#FFCAB0"/>
<path d="M405.362 327.895C405.524 328.136 402.923 333.371 401.744 333.877C401.694 333.906 401.638 333.921 401.581 333.923C400.506 333.952 393.854 333.541 390.82 331.183C390.201 330.7 389.624 330.168 389.094 329.591C387.494 327.804 387.102 326.233 387.31 325.79C387.577 325.217 391.428 326.681 394.092 326.901C396.755 327.12 399.018 325.69 399.051 325.852C399.151 326.304 398.751 328.02 400.506 328.534C402.261 329.048 405.195 327.634 405.362 327.895Z" fill="#6C50CC"/>
<path d="M450.434 269.478C445.716 274.295 440.81 264.566 440.81 264.566C440.81 264.566 439.656 270.626 436.863 269.635C434.071 268.645 437.28 260.623 438.918 259.844C441.002 258.866 445.524 260.478 446.262 261.564C446.999 262.65 450.434 269.478 450.434 269.478Z" fill="#3A0982"/>
<g style="mix-blend-mode:multiply">
<path d="M458.461 292.531C457.761 293.492 457.244 294.284 456.861 294.91C456.598 293.252 456.406 291.946 456.444 291.333C456.569 290.147 457.607 287.635 458.34 285.973C458.49 285.62 458.632 285.314 458.757 285.052C458.965 284.891 459.136 284.762 459.245 284.671C459.34 284.609 459.386 284.572 459.386 284.572C459.486 284.853 459.586 285.152 459.67 285.475C460.057 286.661 460.15 287.922 459.939 289.151C459.729 290.38 459.222 291.54 458.461 292.531Z" fill="#E6E6E6"/>
</g>
<path d="M454.348 309.257C456.336 316.342 455.902 322.867 454.556 325.615C454.343 326.03 453.835 325.885 453.139 325.292C449.475 322.191 440.568 307.305 441.648 307.094C442.923 306.841 442.285 297.712 442.223 297.198C442.16 296.684 439.53 293.633 439.589 290.951C439.647 288.269 445.057 280.049 446.904 279.207C447.291 279.029 451.23 277.375 454.364 278.188C457.498 279 458.453 281.251 459.67 284.82C460.887 288.389 457.236 292.862 455.502 294.769C455.006 295.356 454.616 296.024 454.348 296.742C453.285 299.429 452.83 303.885 454.348 309.257Z" fill="#F9ACFF"/>
<g style="mix-blend-mode:multiply">
<path d="M410.384 320.728C410.2 320.954 410.001 321.167 409.788 321.366C407.95 323.103 404.553 324.513 402.052 324.488C402.39 324.131 402.707 323.783 402.969 323.485C403.053 323.385 403.144 323.286 403.244 323.174C404.24 322.418 405.276 321.718 406.349 321.076C407.396 320.977 408.825 320.852 409.684 320.782L410.384 320.728Z" fill="#E6E6E6"/>
</g>
<g style="mix-blend-mode:multiply">
<path d="M454.556 325.615C454.343 326.03 453.835 325.885 453.139 325.292C451.717 321.938 450.309 317.283 450.638 317.047C451.155 316.665 453.335 318.829 453.972 317.047C454.61 315.264 450.784 300.776 454.356 296.734C453.293 299.408 452.839 303.864 454.356 309.237C456.336 316.342 455.902 322.867 454.556 325.615Z" fill="#E6E6E6"/>
</g>
<path d="M447.337 330.018C442.469 329.603 436.534 326.287 431.124 316.856C430.482 315.737 429.873 314.634 429.352 313.569C425.301 305.585 423.934 299.304 423.78 298.517C424.062 301.013 423.831 303.541 423.1 305.945C422.495 307.852 421.627 309.666 420.52 311.334C418.901 313.769 416.987 315.996 414.823 317.967C409.759 322.668 401.423 324.6 401.998 323.708C402.573 322.817 406.549 317.325 412.068 305.908C417.586 294.492 419.958 289.505 423.938 290.081C427.918 290.657 451.972 311.695 454.664 323.771C455.281 326.473 453.447 330.54 447.337 330.018Z" fill="#A58CFF"/>
<path d="M431.082 291.018C431.04 291.053 430.992 291.079 430.94 291.096C430.887 291.112 430.832 291.119 430.778 291.114C430.723 291.109 430.67 291.094 430.621 291.069C430.573 291.044 430.53 291.01 430.494 290.968L421.233 280.041C421.198 279.999 421.171 279.951 421.154 279.899C421.138 279.847 421.132 279.792 421.136 279.738C421.141 279.684 421.156 279.631 421.182 279.583C421.207 279.534 421.241 279.491 421.283 279.456C421.325 279.421 421.373 279.394 421.426 279.378C421.478 279.361 421.533 279.355 421.587 279.36C421.642 279.364 421.695 279.38 421.744 279.405C421.792 279.43 421.836 279.464 421.871 279.506L431.132 290.433C431.167 290.475 431.194 290.523 431.211 290.575C431.227 290.627 431.234 290.681 431.229 290.736C431.224 290.79 431.209 290.843 431.184 290.891C431.159 290.94 431.124 290.983 431.082 291.018Z" fill="black"/>
<g style="mix-blend-mode:soft-light">
<path d="M466.676 293.808C464.317 291.465 460.537 285.998 457.553 275.829C453.647 262.522 448.983 259.375 444.549 257.46C444.906 257.455 445.264 257.473 445.62 257.514C449.371 257.929 455.502 260.192 459.737 273.976C463.505 286.221 465.434 291.411 466.676 293.808Z" fill="#D9D9D9"/>
</g>
<g style="mix-blend-mode:multiply">
<path d="M456.398 344.887C456.225 346.174 455.871 347.43 455.348 348.618C454.71 347.246 454.281 344.734 454.281 341.865C454.281 339.113 454.672 336.704 455.273 335.303C455.973 336.986 456.906 341.608 456.398 344.887Z" fill="#E6E6E6"/>
</g>
<g style="mix-blend-mode:multiply">
<path d="M401.744 333.877C401.694 333.906 401.638 333.921 401.581 333.923C400.506 333.952 393.854 333.541 390.82 331.183C390.201 330.7 389.624 330.168 389.094 329.591C391.004 329.792 392.89 330.176 394.725 330.739C397.726 331.635 400.281 332.804 401.744 333.877Z" fill="#E6E6E6"/>
</g>
<g style="mix-blend-mode:multiply">
<path d="M423.78 298.517C424.062 301.013 423.831 303.54 423.1 305.945C422.495 307.852 421.627 309.665 420.52 311.334C422.121 307.031 423.184 297.704 423.375 296.46C423.588 295.088 428.919 309.659 429.352 313.585C425.301 305.585 423.951 299.304 423.78 298.517Z" fill="#E6E6E6"/>
</g>
<path d="M470.04 265.32C498.152 266.344 513.703 253.522 513.282 242.375C512.861 231.228 480.08 231.298 470.273 242.79C462.387 252.03 475.525 256.167 482.11 257.838C488.695 259.508 470.04 265.32 470.04 265.32Z" fill="#A49FFF"/>
<path d="M115.79 274.714C81.079 275.957 61.8772 260.146 62.3982 246.384C62.9192 232.621 103.39 232.704 115.498 246.898C125.234 258.31 109.013 263.413 100.885 265.477C92.7576 267.542 115.79 274.714 115.79 274.714Z" fill="#A49FFF"/>
<path d="M495.827 252.005C495.828 252.14 495.802 252.273 495.751 252.398C495.699 252.523 495.624 252.637 495.528 252.732C495.432 252.828 495.318 252.904 495.193 252.955C495.067 253.007 494.933 253.033 494.797 253.033H486.345C486.071 253.032 485.809 252.923 485.615 252.73C485.421 252.538 485.312 252.277 485.311 252.005V243.486C485.311 243.213 485.42 242.952 485.614 242.759C485.808 242.566 486.071 242.458 486.345 242.458H494.806C495.079 242.458 495.341 242.566 495.535 242.757C495.729 242.949 495.838 243.21 495.839 243.482V252.005H495.827Z" fill="#FFE2D6"/>
<path d="M494.231 239.328C494.231 239.411 492.597 240.435 492.313 240.758L492.038 241.086C491.796 241.397 491.546 241.732 491.534 241.753C491.244 241.75 490.954 241.729 490.667 241.691L490.221 241.641C490.221 241.591 490.283 241.43 490.338 241.198C490.429 240.858 490.546 240.369 490.671 239.846C490.859 238.955 491.097 238.075 491.384 237.21C491.471 237.264 492.313 238.213 492.634 238.454C492.955 238.694 494.222 239.249 494.231 239.328Z" fill="#FFD0B3"/>
<path d="M490.971 240.149C490.971 240.149 490.925 240.68 490.842 241.123C490.817 241.285 490.779 241.444 490.729 241.6C490.717 241.636 490.696 241.667 490.667 241.691C490.375 241.948 489.345 241.716 489.279 241.542C489.248 241.501 489.21 241.466 489.166 241.438C488.687 241.115 486.828 240.257 486.828 240.195C487.12 239.949 487.429 239.725 487.753 239.523C488.224 239.179 489.204 237.969 489.3 237.973C489.714 238.626 490.171 239.252 490.667 239.846C490.763 239.95 490.867 240.054 490.971 240.149Z" fill="#FFD0B3"/>
<g style="mix-blend-mode:multiply">
<path d="M495.831 244.382C495.773 244.405 495.71 244.417 495.648 244.415H485.474C485.421 244.415 485.369 244.407 485.319 244.39V243.478C485.319 243.205 485.428 242.944 485.622 242.751C485.816 242.558 486.079 242.45 486.353 242.45H494.806C495.079 242.45 495.341 242.558 495.535 242.75C495.729 242.941 495.838 243.202 495.839 243.474V244.378L495.831 244.382Z" fill="#E6E6E6"/>
</g>
<g style="mix-blend-mode:multiply">
<path d="M492.038 241.086C491.796 241.397 491.546 241.733 491.534 241.753C491.244 241.75 490.954 241.73 490.667 241.691C490.375 241.948 489.346 241.716 489.279 241.542C489.248 241.501 489.21 241.465 489.167 241.438C489.45 241.363 489.879 241.272 490.334 241.198C490.5 241.169 490.675 241.144 490.842 241.123C491.238 241.061 491.639 241.049 492.038 241.086Z" fill="#E6E6E6"/>
</g>
<path d="M496.189 243.644C496.189 243.755 496.154 243.863 496.089 243.954C496.024 244.045 495.932 244.113 495.827 244.15C495.77 244.173 495.709 244.184 495.648 244.183H485.474C485.418 244.18 485.364 244.171 485.311 244.154C485.201 244.121 485.105 244.053 485.036 243.961C484.968 243.87 484.931 243.758 484.932 243.644V242.023C484.932 241.881 484.988 241.745 485.089 241.645C485.19 241.545 485.327 241.488 485.469 241.488H495.639C495.782 241.488 495.919 241.545 496.021 241.645C496.122 241.745 496.18 241.881 496.181 242.023L496.189 243.644Z" fill="#FFEAE0"/>
<path d="M491.584 253.029L489.5 253.033L489.496 244.187V242.454L489.492 241.484H491.58V242.454V244.183L491.584 253.029Z" fill="#FFD0B3"/>
<path d="M99.9306 254.099C99.9306 254.308 99.8473 254.509 99.6989 254.657C99.5505 254.805 99.3491 254.889 99.1387 254.89H92.6659C92.4562 254.889 92.2554 254.806 92.1071 254.658C91.9588 254.511 91.8751 254.311 91.874 254.103V247.578C91.874 247.368 91.9572 247.168 92.1056 247.019C92.254 246.871 92.4554 246.787 92.6659 246.786H99.1387C99.3491 246.786 99.5509 246.869 99.7001 247.016C99.8493 247.164 99.9336 247.364 99.9347 247.574V254.099H99.9306Z" fill="#FFDFD1"/>
<path d="M98.7052 244.394C98.7052 244.46 97.4548 245.223 97.2381 245.493L97.0255 245.741C96.8421 245.978 96.6504 246.235 96.6379 246.251C96.4162 246.251 96.1948 246.235 95.9752 246.206L95.6293 246.168C95.6665 246.057 95.6971 245.943 95.721 245.828C95.7918 245.567 95.8793 245.194 95.9794 244.792C96.1229 244.11 96.3038 243.436 96.5212 242.773C96.5879 242.815 97.2339 243.54 97.4673 243.714C97.7007 243.888 98.701 244.336 98.7052 244.394Z" fill="#FFD0B3"/>
<path d="M96.2128 245.024C96.2128 245.024 96.1753 245.439 96.1128 245.77C96.0912 245.894 96.0605 246.016 96.0211 246.135C96.0123 246.162 95.9965 246.186 95.9752 246.205C95.8019 246.273 95.6145 246.298 95.4294 246.278C95.2442 246.258 95.0667 246.193 94.9124 246.089C94.8887 246.059 94.8606 246.033 94.829 246.011C94.4581 245.762 93.0368 245.107 93.0368 245.057C93.2602 244.869 93.497 244.697 93.7454 244.543C94.1038 244.282 94.854 243.353 94.9291 243.358C95.2463 243.859 95.5972 244.338 95.9794 244.792C96.053 244.873 96.1309 244.951 96.2128 245.024Z" fill="#FFD0B3"/>
<g style="mix-blend-mode:multiply">
<path d="M99.9306 248.274C99.8852 248.291 99.8372 248.299 99.7889 248.299H91.9949C91.9562 248.305 91.9168 248.305 91.8782 248.299V247.603C91.8782 247.393 91.9615 247.193 92.1098 247.044C92.2582 246.896 92.4597 246.812 92.6701 246.811H99.1429C99.3533 246.811 99.5552 246.894 99.7043 247.041C99.8535 247.189 99.9378 247.389 99.9389 247.598V248.274H99.9306Z" fill="#E6E6E6"/>
</g>
<g style="mix-blend-mode:multiply">
<path d="M97.0257 245.741C96.8423 245.978 96.6506 246.235 96.6381 246.251C96.4164 246.251 96.195 246.235 95.9754 246.206C95.802 246.274 95.6147 246.299 95.4295 246.278C95.2443 246.258 95.0669 246.193 94.9125 246.089C94.8889 246.059 94.8608 246.033 94.8292 246.011C95.1232 245.935 95.4209 245.874 95.7211 245.828C95.8503 245.803 95.9837 245.787 96.1129 245.77C96.4148 245.723 96.7214 245.713 97.0257 245.741Z" fill="#E6E6E6"/>
</g>
<path d="M100.206 247.702C100.205 247.786 100.178 247.869 100.129 247.937C100.08 248.006 100.011 248.059 99.9306 248.087C99.8863 248.103 99.84 248.113 99.7931 248.116H91.9991C91.9578 248.125 91.9153 248.125 91.874 248.116C91.7904 248.09 91.7171 248.038 91.6647 247.968C91.6124 247.899 91.5835 247.814 91.5823 247.727V246.483C91.5823 246.373 91.6262 246.268 91.7044 246.19C91.7825 246.112 91.8885 246.069 91.9991 246.069H99.7931C99.9036 246.069 100.01 246.112 100.088 246.19C100.166 246.268 100.21 246.373 100.21 246.483L100.206 247.702Z" fill="#FFEAE0"/>
<path d="M96.6795 254.89L95.0832 254.894L95.079 248.116V246.79V246.048L96.6753 246.044V246.79V248.112L96.6795 254.89Z" fill="#FFD0B3"/>
<path d="M96.617 257.808C96.6148 257.874 96.5871 257.936 96.5396 257.982C96.4922 258.028 96.4288 258.053 96.3628 258.053H88.502V250.591C88.5018 250.556 88.5091 250.521 88.5234 250.488C88.5377 250.456 88.5587 250.427 88.585 250.403C88.6114 250.379 88.6424 250.361 88.6762 250.35C88.71 250.339 88.7458 250.335 88.7812 250.338C89.694 250.438 92.6158 250.861 94.3788 252.411C94.7023 252.686 94.9832 253.008 95.2124 253.365C95.4722 253.778 95.7034 254.209 95.9043 254.654C96.3768 255.639 96.6203 256.717 96.617 257.808Z" fill="#FFFBFA"/>
<path d="M88.5228 255.918V258.053H75.5522C75.5018 258.053 75.452 258.044 75.4055 258.024C75.359 258.005 75.3167 257.977 75.2811 257.942C75.2455 257.906 75.2172 257.864 75.198 257.818C75.1787 257.772 75.1688 257.722 75.1688 257.672V256.3C75.1688 256.199 75.2092 256.102 75.2811 256.03C75.353 255.959 75.4505 255.918 75.5522 255.918H88.5228Z" fill="#FFFBFA"/>
<path d="M75.9066 248.108H87.8603C88.0537 248.108 88.2393 248.184 88.376 248.321C88.5128 248.457 88.5897 248.641 88.5897 248.833V256.022H75.9066C75.7132 256.022 75.5277 255.945 75.3909 255.809C75.2541 255.673 75.1772 255.489 75.1772 255.296V248.833C75.1772 248.641 75.2541 248.457 75.3909 248.321C75.5277 248.184 75.7132 248.108 75.9066 248.108Z" fill="#FFEBE6"/>
<path d="M95.9002 254.621L90.7529 253.663C90.7135 253.655 90.6781 253.634 90.6524 253.603C90.6266 253.572 90.6121 253.533 90.6111 253.493V252.552C90.6111 252.506 90.6296 252.462 90.6624 252.429C90.6953 252.397 90.7398 252.378 90.7862 252.378H94.379C94.7024 252.654 94.9833 252.975 95.2125 253.332C95.4709 253.745 95.7007 254.176 95.9002 254.621Z" fill="#FFEFEB"/>
<path d="M82.1791 258.053H77.8236C77.8767 257.513 78.13 257.012 78.534 256.648C78.9381 256.283 79.4642 256.081 80.0097 256.081C80.5553 256.081 81.0813 256.283 81.4854 256.648C81.8895 257.012 82.1427 257.513 82.1958 258.053H82.1791Z" fill="#F5D9D3"/>
<path d="M93.7954 258.053H89.4232C89.4763 257.513 89.7295 257.012 90.1336 256.648C90.5377 256.283 91.0638 256.081 91.6093 256.081C92.1549 256.081 92.6809 256.283 93.085 256.648C93.4891 257.012 93.7424 257.513 93.7954 258.053Z" fill="#F5D9D3"/>
<path d="M93.2578 258.256C93.2578 257.928 93.16 257.608 92.9768 257.335C92.7936 257.062 92.5332 256.85 92.2286 256.724C91.924 256.599 91.5887 256.566 91.2653 256.63C90.9419 256.694 90.6449 256.852 90.4117 257.084C90.1786 257.316 90.0198 257.611 89.9554 257.933C89.8911 258.254 89.9241 258.588 90.0503 258.891C90.1765 259.194 90.3902 259.453 90.6644 259.635C90.9385 259.817 91.2609 259.914 91.5906 259.914C92.0328 259.914 92.4568 259.74 92.7695 259.429C93.0821 259.118 93.2578 258.696 93.2578 258.256Z" fill="#FFEBE6"/>
<path d="M81.6584 258.256C81.6584 257.928 81.5606 257.608 81.3774 257.335C81.1943 257.062 80.9339 256.85 80.6292 256.724C80.3246 256.599 79.9894 256.566 79.666 256.63C79.3426 256.694 79.0455 256.852 78.8123 257.084C78.5792 257.316 78.4204 257.611 78.3561 257.933C78.2917 258.254 78.3248 258.588 78.451 258.891C78.5771 259.194 78.7908 259.453 79.065 259.635C79.3392 259.817 79.6615 259.914 79.9912 259.914C80.4334 259.914 80.8575 259.74 81.1701 259.429C81.4828 259.118 81.6584 258.696 81.6584 258.256Z" fill="#FFEBE6"/>
<path d="M499.511 250.152C499.511 250.152 498.236 254.712 497.965 254.712C497.694 254.712 498.257 250.981 498.153 250.981C498.048 250.981 497.477 250.981 495.173 254.745C494.977 255.064 489.117 254.828 489.125 254.745C489.125 254.422 490.563 253.837 491.759 253.41C492.363 253.191 492.909 252.996 493.18 252.921C493.225 252.914 493.269 252.9 493.309 252.88H493.36L493.614 252.507C494.389 251.396 496.706 248.083 497.419 247.362C497.445 247.335 497.472 247.31 497.502 247.288C497.552 247.246 497.594 247.217 497.615 247.229C497.617 247.239 497.617 247.249 497.615 247.259C497.953 247.565 499.47 249.737 499.511 250.152Z" fill="#FFE1D1"/>
<path d="M497.64 247.234C497.752 247.648 494.251 253.129 493.384 253.452C492.854 253.634 492.274 253.612 491.759 253.39C492.363 253.17 492.909 252.975 493.18 252.901L493.309 252.859H493.359L493.613 252.486C494.385 251.367 496.681 248.034 497.419 247.342C497.444 247.314 497.472 247.289 497.502 247.267C497.533 247.237 497.572 247.217 497.615 247.209C497.625 247.215 497.634 247.224 497.64 247.234Z" fill="#FFF7F5"/>
<g style="mix-blend-mode:multiply">
<path d="M328.505 312.304C326.521 315.621 324.387 320.67 324.27 323.194C323.737 334.897 322.828 337.127 318.656 339.573C318.561 339.165 318.506 338.748 318.493 338.329C318.21 326.623 323.107 318.572 328.505 312.304Z" fill="#E6E6E6"/>
</g>
</svg>
